<svg width="320" height="320" viewBox="0 0 320 320" fill="none" xmlns="http://www.w3.org/2000/svg">
<path d="M172.184 3.67948L212.759 30.4707C213.103 30.7007 213.333 30.8157 213.563 30.9307C213.793 31.0456 214.138 31.1606 214.483 31.1606L262.184 40.9342C266.552 41.8541 270.345 43.9238 273.218 46.7984C276.207 49.788 278.276 53.5825 279.08 57.8369L288.851 105.555C288.966 105.9 288.966 106.245 289.08 106.475C289.195 106.705 289.31 107.05 289.54 107.28L316.322 147.869C318.736 151.549 320 155.803 320 159.943C320 164.082 318.736 168.221 316.322 172.016L289.54 212.605C289.31 212.835 289.195 213.18 289.08 213.41C288.966 213.64 288.851 213.985 288.851 214.33L279.08 262.048C278.161 266.418 276.092 270.212 273.218 273.202C270.23 276.191 266.437 278.261 262.069 279.066L214.368 288.839C214.023 288.954 213.678 288.954 213.448 289.069C213.218 289.184 212.874 289.299 212.644 289.529L172.069 316.321C168.391 318.735 164.138 320 160 320C155.862 320 151.724 318.735 147.931 316.321L107.356 289.529C107.011 289.299 106.782 289.184 106.552 289.069C106.322 288.954 105.977 288.839 105.632 288.839L57.931 279.066C53.5632 278.146 49.7701 276.076 46.7816 273.202C43.7931 270.212 41.7241 266.418 40.9195 262.048L31.1494 214.33C31.0345 213.985 31.0345 213.64 30.9195 213.41C30.8046 213.18 30.6897 212.95 30.4598 212.605L3.67816 172.016C1.26437 168.336 0 164.082 0 159.943C0 155.803 1.26437 151.664 3.67816 147.869L30.4598 107.28C30.6897 106.935 30.8046 106.705 30.9195 106.475C31.0345 106.245 31.1494 105.9 31.1494 105.555L40.9195 57.8369C41.8391 53.4675 43.9081 49.673 46.7816 46.7984C49.7701 43.8088 53.5632 41.7391 57.8161 40.9342L105.517 31.1606C105.862 31.0456 106.207 31.0456 106.437 30.9307C106.667 30.8157 106.897 30.7007 107.241 30.4707L147.816 3.67948C151.494 1.26482 155.747 0 159.885 0C164.023 0 168.161 1.26482 171.954 3.67948H172.184ZM130.92 96.1265H189.425V109.695H130.92V96.1265ZM130.92 210.42H189.425V223.989H130.92V210.42ZM135.747 171.096V176.04C135.747 178.34 136.667 180.41 138.161 181.904C139.655 183.399 141.724 184.319 144.023 184.319H145.057C147.356 184.319 149.425 183.399 150.92 181.904C152.414 180.41 153.333 178.34 153.333 176.04V168.221L122.069 163.507L122.184 144.075C122.184 138.096 124.598 132.576 128.621 128.667C132.529 124.757 138.046 122.228 144.023 122.228H145.057C151.034 122.228 156.552 124.642 160.46 128.667C164.368 132.576 166.897 138.096 166.897 144.075V149.019H153.333V144.075C153.333 141.775 152.414 139.705 150.92 138.211C149.425 136.716 147.356 135.796 145.057 135.796H144.023C141.724 135.796 139.655 136.716 138.161 138.211C136.667 139.705 135.747 141.775 135.747 144.075V151.894L167.012 156.608V176.04C167.012 182.019 164.598 187.539 160.575 191.448C156.667 195.358 151.149 197.887 145.172 197.887H144.138C138.161 197.887 132.644 195.473 128.736 191.448C124.828 187.539 122.299 182.019 122.299 176.04V171.096H135.862H135.747ZM198.736 122.113H199.77C205.747 122.113 211.149 124.527 215.172 128.552C219.08 132.576 221.609 137.981 221.609 143.96V176.04C221.609 182.019 219.195 187.539 215.172 191.448C211.264 195.358 205.747 197.887 199.77 197.887H198.736C192.759 197.887 187.241 195.473 183.333 191.448C179.425 187.539 176.897 182.019 176.897 176.04V143.96C176.897 137.981 179.31 132.461 183.333 128.552C187.356 124.642 192.759 122.113 198.736 122.113ZM199.77 135.681H198.736C196.437 135.681 194.368 136.601 192.874 138.096C191.379 139.59 190.46 141.66 190.46 143.96V176.04C190.46 178.34 191.379 180.41 192.874 181.904C194.368 183.399 196.437 184.319 198.736 184.319H199.77C202.069 184.319 204.138 183.399 205.632 181.904C207.126 180.41 208.046 178.34 208.046 176.04V143.96C208.046 141.66 207.126 139.59 205.632 138.096C204.138 136.601 202.069 135.681 199.77 135.681ZM98.7356 128.897V122.113H112.299V197.772H98.7356V128.897ZM160.23 56.687C188.736 56.687 214.598 68.3004 233.218 86.9278C251.954 105.67 263.448 131.427 263.448 159.943C263.448 188.459 251.839 214.33 233.218 232.957C214.483 251.7 188.736 263.198 160.23 263.198C131.724 263.198 105.862 251.585 87.2414 232.957C68.5058 214.215 57.0115 188.459 57.0115 159.943C57.0115 131.427 68.6207 105.555 87.2414 86.9278C105.977 68.1854 131.724 56.687 160.23 56.687ZM221.264 98.8861C205.632 83.2483 184.023 73.5897 160.23 73.5897C136.322 73.5897 114.828 83.2483 99.1954 98.8861C83.5632 114.524 73.9081 136.141 73.9081 159.943C73.9081 183.859 83.5632 205.361 99.1954 220.999C114.828 236.637 136.437 246.295 160.23 246.295C184.138 246.295 205.632 236.637 221.264 220.999C236.897 205.361 246.552 183.744 246.552 159.943C246.552 136.026 236.897 114.524 221.264 98.8861ZM203.563 44.4987L162.989 17.7075C162.184 17.1326 161.149 16.9026 160.23 16.9026C159.31 16.9026 158.391 17.1326 157.471 17.7075L116.897 44.4987C115.747 45.3036 114.483 45.8786 113.218 46.4535C111.954 47.0284 110.69 47.3733 109.31 47.6033L61.6092 57.3769C60.5747 57.6069 59.6552 58.0668 59.0805 58.6418C58.3908 59.3317 57.931 60.1365 57.8161 61.1714L48.046 108.89C47.8161 110.27 47.3563 111.649 46.8966 112.799C46.3218 114.064 45.7471 115.329 44.9425 116.479L18.1609 157.068C17.5862 157.873 17.3563 158.908 17.3563 159.828C17.3563 160.747 17.5862 161.667 18.1609 162.587L44.9425 203.176C45.7471 204.326 46.3218 205.591 46.8966 206.856C47.4713 208.121 47.8161 209.386 48.046 210.765L57.8161 258.484C58.046 259.519 58.5057 260.323 59.1954 261.013C59.8851 261.703 60.6897 262.163 61.7241 262.278L109.425 272.052C110.805 272.397 112.184 272.742 113.333 273.202C114.598 273.777 115.862 274.351 117.011 275.156L157.586 301.948C158.391 302.522 159.425 302.752 160.345 302.752C161.264 302.752 162.184 302.522 163.103 301.948L203.678 275.156C204.943 274.351 206.092 273.662 207.356 273.202C208.621 272.627 209.885 272.282 211.264 272.052L258.966 262.278C260 262.048 260.805 261.588 261.494 260.898C262.184 260.208 262.644 259.404 262.874 258.369L272.644 210.65C272.988 209.271 273.333 207.891 273.793 206.741C274.368 205.476 274.943 204.326 275.747 203.061L302.529 162.472C303.103 161.667 303.333 160.632 303.333 159.713C303.333 158.793 303.103 157.873 302.529 156.953L275.747 116.364C274.943 115.099 274.253 113.949 273.793 112.684C273.218 111.419 272.874 110.155 272.644 108.775L262.874 61.0564C262.644 60.0216 262.184 59.2167 261.494 58.5268C260.805 57.8369 260 57.3769 258.966 57.147L211.264 47.3733C209.885 47.1434 208.506 46.6834 207.356 46.2235C206.092 45.6486 204.828 45.0737 203.678 44.2688L203.563 44.4987Z" fill="#FF6F0F"/>
</svg>
