<svg width="181" height="56" viewBox="0 0 181 56" fill="none" xmlns="http://www.w3.org/2000/svg">
<path d="M129.4 45.5638C125.423 45.3127 123.109 43.0824 122.498 38.9087C122.334 37.7979 122.334 37.769 122.316 30.5615L122.301 23.5847H125.819L125.834 30.3335C125.846 36.4158 125.853 37.1285 125.913 37.5555C126.151 39.2925 126.63 40.4596 127.441 41.2978C128.09 41.9686 128.853 42.361 129.905 42.5702C130.402 42.6683 131.816 42.6683 132.27 42.5702C133.287 42.3655 134.219 41.8668 134.947 41.1377C135.808 40.2908 136.444 39.0891 136.753 37.7301L136.857 37.2713L136.869 30.4662L136.88 23.6612H140.473V45.0574H136.917V43.3594C136.917 42.2067 136.904 41.6671 136.877 41.6758C136.796 41.7685 136.728 41.8713 136.674 41.9816C136.025 43.1167 135.073 44.0548 133.922 44.6938C132.581 45.4224 131.235 45.6806 129.398 45.5638H129.4ZM169.762 45.5464C168.314 45.428 166.914 44.978 165.674 44.2322C163.128 42.6813 161.621 40.1235 161.179 36.6048C161.026 35.3886 161.007 33.7526 161.135 32.7182C161.42 30.4056 162.342 28.1363 163.656 26.5162C163.993 26.1007 164.756 25.3491 165.178 25.0173C166.314 24.1231 167.643 23.4983 169.063 23.1909C169.888 23.0134 171.338 22.9312 172.215 23.0105C174.413 23.2111 176.429 24.231 177.799 25.8353C179.192 27.4655 179.956 29.7449 180.054 32.5509C180.068 32.9909 180.073 33.7627 180.063 34.2648L180.042 35.178L172.339 35.1881L164.638 35.1967V35.5358C164.653 36.638 164.889 37.7264 165.331 38.7385C165.71 39.5998 166.363 40.5404 166.897 40.9948C167.994 41.9282 169.361 42.4972 170.804 42.6207C171.347 42.6712 172.734 42.6178 173.355 42.5241C175.095 42.2682 176.746 41.5977 178.165 40.5707C178.326 40.4524 178.478 40.3413 178.506 40.3254C178.545 40.3009 178.554 40.6082 178.552 41.9051V43.5152L178.187 43.7373C176.615 44.6848 174.855 45.2857 173.026 45.4988C172.469 45.5666 170.428 45.5969 169.762 45.5464ZM176.467 31.9652C176.467 30.2383 175.728 28.321 174.682 27.3342C173.937 26.6301 172.985 26.1757 171.963 26.0358C171.455 25.9579 170.387 25.9868 169.852 26.0935C168.759 26.2986 167.755 26.824 166.97 27.6011C166.108 28.4444 165.456 29.4736 165.065 30.6076C164.919 31.0231 164.749 31.7041 164.696 32.0849L164.672 32.2653H176.466L176.467 31.9652ZM71.9798 45.0098L77.792 29.9714L83.5882 14.9821H87.3138L87.4674 15.3716C87.9401 16.5633 99.0715 45.0242 99.0715 45.0401C99.0715 45.0487 98.1788 45.0574 97.0901 45.0574H95.1088L93.505 40.8506L91.8998 36.6437H78.9817L78.9261 36.7866C78.8954 36.8645 78.2091 38.7572 77.4028 40.9919L75.9351 45.0559H73.9509C72.3793 45.0559 71.9666 45.0473 71.9798 45.0098ZM90.7204 33.4338C90.7204 33.4266 89.6419 30.5441 88.3205 27.0284C85.8534 20.4498 85.7159 20.0545 85.5198 18.997C85.429 18.5022 85.3822 18.4892 85.3295 18.9393C85.2517 19.4294 85.1388 19.9134 84.9915 20.3878C84.9271 20.5869 83.815 23.5905 82.5215 27.0644C81.7294 29.1777 80.9446 31.2937 80.167 33.4122C80.167 33.4309 82.5419 33.4454 85.4437 33.4454C88.3469 33.4454 90.7204 33.4396 90.7204 33.4338ZM100.27 44.5092V43.961L106.706 35.2487L113.143 26.535L107.314 26.5162L101.487 26.4975L101.477 25.0404L101.467 23.5847H118.324V24.5686L111.886 33.3299C108.347 38.1484 105.45 42.0985 105.45 42.1071C105.45 42.1172 108.312 42.1259 111.81 42.1259H118.169V45.0574H100.27V44.5092ZM147.498 45.0314C147.484 45.017 147.472 40.1869 147.472 34.2965V23.5847H150.991V25.792C150.991 27.0082 151.006 28.0022 151.023 28.0022C151.042 28.0022 151.127 27.8031 151.213 27.5593C151.622 26.4272 152.295 25.406 153.179 24.5787C153.939 23.8513 154.911 23.3758 155.959 23.2183C156.259 23.1707 156.515 23.1606 157.118 23.1764C157.876 23.1966 158.271 23.2515 158.732 23.3986L158.878 23.4462V27.0413L158.461 26.8365C157.741 26.4774 156.936 26.3183 156.132 26.3763C155.565 26.4051 155.194 26.4773 154.742 26.6446C153.821 26.9788 153.041 27.6064 152.523 28.4278C151.735 29.6957 151.233 31.1163 151.053 32.5927C151.023 32.8481 151.007 34.9226 151 39.0126L150.99 45.0574H149.257C148.304 45.0574 147.513 45.0458 147.498 45.0314ZM21.5279 7.65616e-08C22.1198 8.00424e-05 22.6969 0.183158 23.1778 0.523472C23.6586 0.863786 24.0192 1.3442 24.2087 1.89711L41.3967 52.1048C41.5402 52.5246 41.5804 52.972 41.5138 53.4101C41.4471 53.8481 41.2757 54.2643 41.0136 54.6241C40.7515 54.9838 40.4062 55.2769 40.0064 55.4791C39.6066 55.6812 39.1637 55.7866 38.7144 55.7865H58.5218C59.199 55.7847 59.8533 55.544 60.3662 55.1079C60.8791 54.6718 61.2168 54.0692 61.3181 53.409C61.3846 52.9713 61.3445 52.5242 61.2011 52.1048L44.0145 1.89711C43.8253 1.34408 43.4648 0.863547 42.9838 0.523202C42.5029 0.182858 41.9258 -0.00013665 41.3337 7.65616e-08H21.5279ZM20.8884 0.216402C20.2958 0.216732 19.7181 0.400206 19.2367 0.741019C18.7553 1.08183 18.3944 1.56284 18.2047 2.11639L1.0167 52.3212C0.873096 52.7406 0.832854 53.1876 0.899307 53.6253C0.96576 54.0631 1.137 54.4789 1.39884 54.8384C1.66069 55.198 2.00562 55.4908 2.40509 55.6928C2.80456 55.8948 3.24708 56.0001 3.69602 56H17.5257C18.1185 56.0003 18.6964 55.8173 19.1782 55.4767C19.6599 55.1361 20.0211 54.6551 20.2109 54.1015L23.5707 44.3274L17.1511 38.261C17.0341 38.1456 16.5029 37.1862 16.9755 36.374C17.5052 35.5906 18.3891 35.5906 18.3891 35.5906H26.6626L31.0057 23.2529L23.5794 1.72254C23.5604 1.61723 23.1434 1.07623 22.4878 0.646318C21.8322 0.213517 20.887 0.216402 20.887 0.216402H20.8884ZM18.553 35.957C18.2911 35.9568 18.0352 36.0344 17.8186 36.1796C17.6021 36.3248 17.4349 36.531 17.3389 36.7712C17.2429 37.0114 17.2225 37.2746 17.2803 37.5264C17.3382 37.7783 17.4716 38.0071 17.6633 38.1831L35.7703 54.8459C36.297 55.3306 36.9672 55.6148 37.6872 55.6148C37.6872 55.6148 38.3018 55.6566 38.672 55.5989C39.5412 55.4633 40.3592 54.7636 40.6299 54.4693C41.3264 53.5547 41.0104 52.1322 41.0104 52.1322L35.5288 35.9556L18.553 35.957Z" fill="#474747"/>
</svg>
