<svg width="172" height="56" viewBox="0 0 172 56" fill="none" xmlns="http://www.w3.org/2000/svg">
<path d="M166.259 34.1992L171.002 37.3612C169.463 39.6286 165.781 43.5187 159.415 43.5187C151.51 43.5187 145.623 37.4028 145.623 29.6227C145.623 21.3433 151.573 15.7267 158.749 15.7267C165.968 15.7267 169.504 21.4681 170.648 24.5677L171.272 26.1487L152.675 33.8456C154.09 36.6331 156.295 38.0476 159.415 38.0476C162.535 38.0476 164.699 36.5083 166.259 34.1992ZM151.677 29.1858L164.096 24.0268C163.409 22.3002 161.37 21.0729 158.937 21.0729C155.837 21.0729 151.531 23.8188 151.677 29.1858Z" fill="#FF302F"/>
<path d="M136.657 1.56018H142.648V42.2496H136.657V1.56018Z" fill="#20B15A"/>
<path d="M127.213 16.8083H132.996V41.5216C132.996 51.7771 126.943 56 119.787 56C113.047 56 108.99 51.4651 107.472 47.7831L112.776 45.578C113.733 47.8455 116.042 50.529 119.787 50.529C124.384 50.529 127.213 47.6791 127.213 42.3537V40.3566H127.005C125.632 42.0208 123.011 43.5186 119.683 43.5186C112.735 43.5186 106.369 37.4651 106.369 29.6642C106.369 21.8217 112.735 15.7058 119.683 15.7058C122.99 15.7058 125.632 17.1828 127.005 18.8054H127.213V16.8083ZM127.629 29.6642C127.629 24.7548 124.363 21.1768 120.203 21.1768C116.001 21.1768 112.464 24.7548 112.464 29.6642C112.464 34.5112 116.001 38.0268 120.203 38.0268C124.363 38.0476 127.629 34.5112 127.629 29.6642Z" fill="#3686F7"/>
<path d="M73.4805 29.5602C73.4805 37.5691 67.2397 43.4562 59.5845 43.4562C51.9292 43.4562 45.6885 37.5483 45.6885 29.5602C45.6885 21.5097 51.9292 15.6434 59.5845 15.6434C67.2397 15.6434 73.4805 21.5097 73.4805 29.5602ZM67.4062 29.5602C67.4062 24.5677 63.7865 21.1353 59.5845 21.1353C55.3824 21.1353 51.7628 24.5677 51.7628 29.5602C51.7628 34.5112 55.3824 37.9852 59.5845 37.9852C63.7865 37.9852 67.4062 34.5112 67.4062 29.5602Z" fill="#FF302F"/>
<path d="M103.831 29.6227C103.831 37.6316 97.5903 43.5187 89.935 43.5187C82.2798 43.5187 76.0391 37.6316 76.0391 29.6227C76.0391 21.5722 82.2798 15.7267 89.935 15.7267C97.5903 15.7267 103.831 21.5513 103.831 29.6227ZM97.7359 29.6227C97.7359 24.6301 94.1163 21.1977 89.9142 21.1977C85.7122 21.1977 82.0926 24.6301 82.0926 29.6227C82.0926 34.5736 85.7122 38.0476 89.9142 38.0476C94.1371 38.0476 97.7359 34.5528 97.7359 29.6227Z" fill="#FFBA40"/>
<path d="M22.8475 37.4235C14.1313 37.4235 7.30811 30.3923 7.30811 21.6761C7.30811 12.9599 14.1313 5.92868 22.8475 5.92868C27.5488 5.92868 30.9812 7.78009 33.5191 10.1516L37.7004 5.97028C34.164 2.57949 29.4418 0 22.8475 0C10.9069 0 0.859375 9.73551 0.859375 21.6761C0.859375 33.6166 10.9069 43.3522 22.8475 43.3522C29.2962 43.3522 34.164 41.2303 37.9708 37.2779C41.8817 33.367 43.0882 27.8752 43.0882 23.4235C43.0882 22.0297 42.9218 20.5944 42.7346 19.5334H22.8475V25.3165H37.0139C36.5979 28.9361 35.4537 31.4116 33.7687 33.0966C31.7301 35.156 28.5057 37.4235 22.8475 37.4235Z" fill="#3686F7"/>
</svg>
