<svg width="73" height="58" viewBox="0 0 73 58" fill="none" xmlns="http://www.w3.org/2000/svg">
<path d="M62.2777 17.4119H72.6234V56.9881H62.2777V17.4119ZM17.4571 11.3702C19.0587 11.3725 20.594 12.0104 21.7268 13.1439C22.8596 14.2775 23.4974 15.8144 23.5005 17.4179H33.8463C33.8415 13.0674 32.1133 8.89651 29.0408 5.82026C25.9682 2.74401 21.8023 1.0137 17.4571 1.00896C13.1113 1.0137 8.94497 2.74443 5.87234 5.82132C2.7997 8.89822 1.07182 13.0699 1.06787 17.4209H11.4136C11.416 15.8169 12.0535 14.2792 13.1863 13.145C14.3192 12.0108 15.855 11.3725 17.4571 11.3702ZM23.5005 56.997L33.8463 56.9911V17.4179H23.5005V56.997ZM50.1908 56.9821V46.6299H39.845L33.8433 46.6328V56.9911L50.1908 56.9821ZM50.1908 17.4119C50.1931 15.8079 50.8306 14.2703 51.9635 13.136C53.0963 12.0018 54.6321 11.3636 56.2342 11.3612V1C51.889 1.00474 47.7231 2.73506 44.6505 5.81131C41.578 8.88756 39.8498 13.0585 39.845 17.409V46.6299H50.1908V17.4119ZM62.2777 17.4119H72.6234C72.6187 13.0615 70.8905 8.89054 67.8179 5.81429C64.7454 2.73804 60.5795 1.00773 56.2342 1.00299V11.3612C57.8363 11.3636 59.3721 12.0018 60.505 13.136C61.6378 14.2703 62.2753 15.8079 62.2777 17.4119ZM1.06787 56.994H11.4136V17.4209H1.06787L1.06787 57V56.994Z" fill="black"/>
<path d="M62.2777 17.4119H72.6234M62.2777 17.4119V56.9881H72.6234V17.4119M62.2777 17.4119C62.2753 15.8079 61.6378 14.2703 60.505 13.136C59.3721 12.0018 57.8363 11.3636 56.2342 11.3612M72.6234 17.4119C72.6187 13.0615 70.8905 8.89054 67.8179 5.81429C64.7454 2.73804 60.5795 1.00773 56.2342 1.00299V11.3612M23.5005 17.4179C23.4974 15.8144 22.8596 14.2775 21.7268 13.1439C20.594 12.0104 19.0587 11.3725 17.4571 11.3702C15.855 11.3725 14.3192 12.0108 13.1863 13.145C12.0535 14.2792 11.416 15.8169 11.4136 17.4209M23.5005 17.4179H33.8463M23.5005 17.4179V56.997L33.8463 56.9911V17.4179M33.8463 17.4179C33.8415 13.0674 32.1133 8.89651 29.0408 5.82026C25.9682 2.74401 21.8023 1.0137 17.4571 1.00896C13.1113 1.0137 8.94497 2.74443 5.87234 5.82132C2.7997 8.89822 1.07182 13.0699 1.06787 17.4209M1.06787 17.4209H11.4136M1.06787 17.4209L1.06787 57V56.994H11.4136V17.4209M50.1908 46.6299V56.9821L33.8433 56.9911V46.6328L39.845 46.6299M50.1908 46.6299H39.845M50.1908 46.6299V17.4119C50.1931 15.8079 50.8306 14.2703 51.9635 13.136C53.0963 12.0018 54.6321 11.3636 56.2342 11.3612M39.845 46.6299V17.409C39.8498 13.0585 41.578 8.88756 44.6505 5.81131C47.7231 2.73506 51.889 1.00474 56.2342 1V11.3612" stroke="white" stroke-width="0.75"/>
</svg>
