<svg width="263" height="56" viewBox="0 0 263 56" fill="none" xmlns="http://www.w3.org/2000/svg">
<path d="M262.307 25.3334V20.7204H256.578V13.5486L256.385 13.6079L251.005 15.2541L250.899 15.2864V20.7204H242.406V17.6935C242.406 16.284 242.721 15.2052 243.342 14.4859C243.959 13.7751 244.842 13.4138 245.967 13.4138C246.776 13.4138 247.614 13.6044 248.456 13.9803L248.668 14.0745V9.21626L248.568 9.17978C247.782 8.89717 246.712 8.75476 245.387 8.75476C243.716 8.75476 242.197 9.11825 240.874 9.83888C239.549 10.5605 238.506 11.5907 237.777 12.9006C237.049 14.209 236.68 15.72 236.68 17.3922V20.7204H232.691V25.3334H236.68V44.7674H242.406V25.3334H250.899V37.6835C250.899 42.7698 253.298 45.3475 258.029 45.3475C258.807 45.3475 259.625 45.2561 260.461 45.0776C261.311 44.8945 261.89 44.7115 262.231 44.5162L262.307 44.4717V39.8159L262.074 39.97C261.763 40.1775 261.376 40.3465 260.922 40.4721C260.466 40.6003 260.086 40.6646 259.791 40.6646C258.683 40.6646 257.863 40.3659 257.354 39.7765C256.839 39.1818 256.578 38.1415 256.578 36.6866V25.3334H262.307ZM219.903 40.6651C217.825 40.6651 216.186 39.9759 215.031 38.6183C213.869 37.2538 213.281 35.3085 213.281 32.8371C213.281 30.2873 213.869 28.2916 215.032 26.903C216.187 25.5236 217.81 24.8235 219.856 24.8235C221.842 24.8235 223.422 25.4922 224.555 26.8119C225.693 28.1384 226.27 30.1182 226.27 32.6978C226.27 35.3092 225.727 37.315 224.656 38.6567C223.593 39.9885 221.994 40.6651 219.903 40.6651ZM220.158 20.141C216.193 20.141 213.043 21.3028 210.798 23.5945C208.554 25.8864 207.416 29.0579 207.416 33.022C207.416 36.7869 208.526 39.8154 210.717 42.0217C212.908 44.2289 215.889 45.347 219.578 45.347C223.422 45.347 226.509 44.169 228.753 41.8456C230.998 39.5245 232.135 36.3832 232.135 32.5117C232.135 28.6877 231.068 25.6368 228.962 23.4451C226.856 21.2524 223.893 20.141 220.158 20.141ZM198.183 20.1409C195.486 20.1409 193.255 20.8307 191.55 22.1911C189.836 23.5594 188.966 25.3544 188.966 27.5261C188.966 28.6549 189.154 29.6579 189.523 30.5082C189.895 31.3618 190.47 32.1128 191.234 32.7434C191.993 33.3689 193.163 34.0242 194.715 34.6906C196.019 35.2272 196.992 35.6814 197.61 36.0392C198.214 36.3897 198.642 36.7424 198.884 37.0856C199.119 37.4215 199.239 37.8811 199.239 38.4488C199.239 40.0642 198.029 40.8502 195.54 40.8502C194.616 40.8502 193.563 40.6577 192.409 40.2774C191.255 39.8977 190.176 39.3518 189.203 38.6518L188.966 38.4815V43.9944L189.053 44.035C189.863 44.4089 190.885 44.7242 192.089 44.9726C193.291 45.2209 194.382 45.3475 195.331 45.3475C198.258 45.3475 200.615 44.6541 202.335 43.2858C204.065 41.908 204.943 40.0709 204.943 37.8237C204.943 36.2029 204.471 34.8127 203.54 33.6918C202.615 32.5797 201.011 31.559 198.773 30.6567C196.99 29.9411 195.848 29.347 195.377 28.8912C194.923 28.4507 194.692 27.8277 194.692 27.0389C194.692 26.3395 194.977 25.7794 195.561 25.3255C196.15 24.8694 196.97 24.6375 197.998 24.6375C198.952 24.6375 199.928 24.7882 200.899 25.0835C201.869 25.3788 202.721 25.7743 203.433 26.2583L203.666 26.4182V21.1885L203.577 21.1498C202.92 20.8685 202.055 20.6278 201.004 20.4324C199.958 20.2389 199.008 20.1409 198.183 20.1409ZM174.037 40.6651C171.96 40.6651 170.32 39.9759 169.166 38.6183C168.004 37.2538 167.416 35.3092 167.416 32.8371C167.416 30.2873 168.004 28.2916 169.167 26.903C170.322 25.5236 171.944 24.8235 173.991 24.8235C175.976 24.8235 177.557 25.4922 178.689 26.8119C179.827 28.1384 180.404 30.1182 180.404 32.6978C180.404 35.3092 179.861 37.315 178.79 38.6567C177.727 39.9885 176.129 40.6651 174.037 40.6651ZM174.293 20.141C170.327 20.141 167.177 21.3028 164.933 23.5945C162.689 25.8864 161.55 29.0579 161.55 33.022C161.55 36.7885 162.661 39.8154 164.852 42.0217C167.043 44.2289 170.024 45.347 173.713 45.347C177.556 45.347 180.644 44.169 182.888 41.8456C185.132 39.5245 186.27 36.3832 186.27 32.5117C186.27 28.6877 185.202 25.6368 183.097 23.4451C180.99 21.2524 178.028 20.141 174.293 20.141ZM152.858 24.8846V20.7204H147.201V44.7667H152.858V32.4662C152.858 30.3744 153.332 28.6562 154.267 27.3583C155.191 26.076 156.423 25.4261 157.926 25.4261C158.435 25.4261 159.007 25.5101 159.627 25.6763C160.24 25.8416 160.684 26.0208 160.946 26.2095L161.183 26.3817V20.6791L161.092 20.6398C160.565 20.4159 159.82 20.303 158.877 20.303C157.455 20.303 156.183 20.7597 155.094 21.6589C154.137 22.4493 153.446 23.5331 152.918 24.8846H152.858ZM137.071 20.1409C134.477 20.1409 132.162 20.6975 130.193 21.7943C128.22 22.8937 126.694 24.4634 125.656 26.4594C124.623 28.4507 124.098 30.7766 124.098 33.3701C124.098 35.6421 124.607 37.7272 125.612 39.5647C126.618 41.4053 128.043 42.8452 129.845 43.844C131.645 44.8416 133.725 45.3475 136.029 45.3475C138.717 45.3475 141.012 44.8099 142.852 43.7502L142.927 43.7073V38.5253L142.689 38.6988C141.855 39.3058 140.924 39.7905 139.922 40.1397C138.922 40.4886 138.01 40.665 137.211 40.665C134.992 40.665 133.21 39.9703 131.917 38.6014C130.62 37.2302 129.963 35.3052 129.963 32.8826C129.963 30.4448 130.649 28.4703 131.999 27.0132C133.346 25.5605 135.131 24.8237 137.305 24.8237C139.164 24.8237 140.976 25.4533 142.69 26.6967L142.927 26.8689V21.4086L142.85 21.3655C142.205 21.0046 141.325 20.7064 140.233 20.4803C139.146 20.2548 138.082 20.1409 137.071 20.1409ZM120.202 20.7204H114.546V44.7668H120.202V20.7204ZM117.432 10.4765C116.501 10.4765 115.689 10.7933 115.022 11.4214C114.352 12.0513 114.012 12.8442 114.012 13.7799C114.012 14.701 114.348 15.4794 115.011 16.0925C115.67 16.7037 116.485 17.0136 117.432 17.0136C118.379 17.0136 119.196 16.7037 119.863 16.0934C120.535 15.4794 120.875 14.701 120.875 13.7799C120.875 12.8769 120.544 12.0919 119.891 11.4467C119.239 10.8029 118.411 10.4765 117.432 10.4765ZM103.319 18.9463V44.7667H109.091V11.2128H101.102L90.9463 36.1356L81.0912 11.2128H72.7764V44.7667H78.2011V18.9438H78.3876L88.7943 44.7667H92.8881L103.132 18.9463H103.319Z" fill="#706D6E"/>
<path d="M26.6095 26.6095H0V0H26.6095V26.6095Z" fill="#F1511B"/>
<path d="M55.99 26.6095H29.3809V0H55.99V26.6095Z" fill="#80CC28"/>
<path d="M26.6088 56H0V29.3905H26.6088V56Z" fill="#00ADEF"/>
<path d="M55.99 56H29.3809V29.3905H55.99V56Z" fill="#FBBC09"/>
</svg>
