<svg width="277" height="56" viewBox="0 0 277 56" fill="none" xmlns="http://www.w3.org/2000/svg">
<path d="M0.627781 23.113C0.481536 31.6805 4.10721 38.2768 12.3853 44.4923C15.9866 47.1948 29.2737 55.4912 30.0567 55.9391L30.1634 56H32.1042L32.1925 55.9482C32.7288 55.6466 35.1692 54.2511 36.5951 53.4377C37.0643 53.1695 37.0735 52.4931 36.6134 52.2098L36.2509 51.9904C32.3144 49.55 24.5847 44.6659 17.0713 39.3462C11.0234 35.0716 7.61407 29.1974 7.72071 23.2318C7.87609 14.1767 15.3621 6.9345 24.408 7.09598C33.6306 7.25441 40.7296 14.3534 40.5773 23.2562C40.5346 25.6083 39.8491 28.4235 38.7827 30.6111C38.6456 30.8945 38.4994 31.1534 38.347 31.4276L38.1002 31.8786C37.9174 32.2168 38.0302 32.6342 38.3592 32.8322C39.4226 33.4659 41.6345 34.7761 42.4267 35.2148L42.8837 35.4921C43.1914 35.6749 43.5906 35.6048 43.813 35.3245L44.0232 35.0564C46.1651 32.1924 47.594 27.6131 47.6672 23.3811C47.8896 10.4992 37.7255 0.231565 24.5329 0.00305541C24.3958 8.61612e-06 24.2556 -1.33267e-06 24.1185 -1.33267e-06C11.3464 -1.33267e-06 0.850197 10.2829 0.627781 23.113Z" fill="url(#paint0_linear_1441_71)"/>
<path d="M34.1116 36.4977L33.7582 36.772C32.5822 37.686 30.4951 39.051 28.5939 40.1112C28.3776 40.227 28.3502 40.553 28.5147 40.6658C28.99 40.9948 30.5439 41.921 31.4914 42.4938C32.2501 42.9509 33.481 43.7339 33.7887 43.9502C34.1299 44.1909 34.3859 44.194 34.7667 43.9898C36.1896 43.2281 39.1419 41.2477 40.2479 40.358C40.519 40.1387 40.4459 39.8248 40.2387 39.6877C39.8366 39.4288 35.9153 37.0553 35.2511 36.6562L34.9221 36.452C34.8063 36.385 34.6784 36.3485 34.5473 36.3485C34.395 36.3485 34.2396 36.3972 34.1116 36.4977Z" fill="url(#paint1_linear_1441_71)"/>
<path d="M239.907 41.0827L239.947 14.1186C239.947 14.0028 240.029 13.9053 240.142 13.887L244.322 13.1558C244.465 13.1314 244.596 13.2411 244.596 13.3873V41.0827C244.596 41.2106 244.493 41.3142 244.365 41.3142H240.139C240.011 41.3142 239.907 41.2106 239.907 41.0827Z" fill="#2A5484"/>
<path d="M78.9346 23.584L77.3655 26.0641C77.2771 26.2012 77.0974 26.2408 76.9603 26.1585C75.513 25.3085 74.0567 24.885 72.5912 24.885C71.5888 24.885 70.8149 25.0525 70.2634 25.3907C69.7119 25.7289 69.4377 26.2103 69.4377 26.8349C69.4377 27.362 69.5626 27.7825 69.8125 28.0932C70.0623 28.4071 70.4706 28.6752 71.0342 28.9006C71.5949 29.1261 72.4662 29.3759 73.6423 29.6532C75.5435 30.1285 76.9785 30.8353 77.9413 31.7738C78.9041 32.7122 79.3855 33.9461 79.3855 35.4726C79.3855 37.5231 78.6116 39.1013 77.0578 40.2012C75.5069 41.3041 73.6057 41.8525 71.3511 41.8525C68.5877 41.8525 66.263 41.1731 64.377 39.8112C64.246 39.7167 64.2186 39.5309 64.31 39.3999L66.0131 36.9411C66.1015 36.8101 66.2752 36.7766 66.4123 36.8558C67.1313 37.2854 67.8443 37.6114 68.5542 37.8369C69.3433 38.0867 70.1994 38.2116 71.1257 38.2116C72.2012 38.2116 73.036 38.0105 73.624 37.6114C74.212 37.2123 74.5045 36.609 74.5045 35.8077C74.5045 35.2837 74.3796 34.8693 74.1298 34.5707C73.8799 34.2691 73.4778 34.0071 72.9294 33.7816C72.3779 33.5561 71.5278 33.3063 70.3761 33.0321C68.4475 32.5568 67.0277 31.856 66.1137 30.9298C65.1996 30.0036 64.7457 28.7392 64.7457 27.1365C64.7457 25.3085 65.4464 23.8765 66.848 22.8375C68.2495 21.7986 70.0989 21.2806 72.4023 21.2806C74.9006 21.2806 77.0486 21.9144 78.8554 23.1788C78.9864 23.2702 79.0199 23.4499 78.9346 23.584Z" fill="#2A5484"/>
<path d="M81.9873 35.8466C81.9873 33.2934 83.1268 31.383 84.7081 30.5147C86.527 29.5215 89.132 29.0126 92.5383 29.0126C93.364 29.0126 93.9886 29.0279 94.4152 29.0522V28.0742C94.4152 25.9719 93.0746 24.9208 90.3964 24.9208C88.5623 24.9208 86.7616 25.3748 84.9975 26.2827C84.8482 26.3589 84.6654 26.301 84.5923 26.1547L83.2791 23.5619C83.2091 23.4187 83.2578 23.242 83.3949 23.1658C84.3851 22.6052 85.4942 22.1604 86.719 21.8253C88.0443 21.4627 89.3575 21.2799 90.6585 21.2799C93.6382 21.2799 95.7893 21.9502 97.1177 23.2877C98.443 24.6283 99.1072 26.6727 99.1072 29.427V36.8612V41.0292C99.1072 41.1937 98.9732 41.3278 98.8086 41.3278H95.0885C94.924 41.3278 94.7899 41.1937 94.7899 41.0292V39.1798H94.6772C93.9764 40.106 93.1386 40.7275 92.1605 41.1785C91.1856 41.6294 90.0461 41.8549 88.4435 41.8549C86.6428 41.8549 85.1682 41.3034 83.9403 40.2949C82.8709 39.4174 81.9873 37.7752 81.9873 35.8466ZM94.3816 32.2057L92.9131 32.1661C90.5396 32.1661 88.9218 32.4677 87.895 32.9917C86.8683 33.5158 86.2985 34.3537 86.2985 35.5815C86.2985 37.0166 87.3009 38.2505 89.1594 38.2505C90.7346 38.2505 91.8345 37.827 92.8065 36.9861C93.69 36.2244 94.3816 34.9021 94.3816 33.8296V32.2057Z" fill="#2A5484"/>
<path d="M129.487 33.2936H116.163C116.364 34.8444 116.919 36.0418 117.833 36.8797C118.747 37.7176 120.005 38.138 121.608 38.138C122.708 38.138 123.677 37.9918 124.518 37.7054C125.282 37.4433 126.096 37.0473 126.955 36.5232C127.092 36.441 127.272 36.4775 127.36 36.6085L129.063 39.1343C129.155 39.2684 129.121 39.4542 128.99 39.5456C127.933 40.289 126.803 40.8497 125.605 41.2336C124.317 41.6479 122.885 41.8521 121.306 41.8521C119.253 41.8521 117.489 41.4285 116.014 40.5785C114.536 39.7254 113.403 38.525 112.614 36.9741C111.828 35.4203 111.432 33.6196 111.432 31.5661C111.432 28.4645 112.251 25.9722 113.89 24.0954C115.53 22.2185 117.851 21.2801 120.855 21.2801C123.808 21.2801 126.05 22.2064 127.577 24.0588C129.103 25.9112 129.865 28.4005 129.865 31.5295C129.865 32.0383 129.84 32.538 129.786 33.0285C129.77 33.1809 129.639 33.2936 129.487 33.2936ZM125.249 29.7654C125.197 28.3121 124.804 27.1239 124.067 26.1976C123.326 25.2714 122.245 24.8083 120.819 24.8083C119.365 24.8083 118.247 25.2775 117.458 26.2159C116.669 27.1543 116.224 28.3395 116.127 29.7654H125.249Z" fill="#2A5484"/>
<path d="M146.734 23.584L145.165 26.0641C145.076 26.2012 144.897 26.2408 144.76 26.1585C143.312 25.3085 141.856 24.885 140.39 24.885C139.388 24.885 138.614 25.0525 138.063 25.3907C137.511 25.7289 137.237 26.2103 137.237 26.8349C137.237 27.362 137.362 27.7825 137.612 28.0932C137.862 28.4071 138.27 28.6752 138.834 28.9006C139.394 29.1261 140.266 29.3759 141.442 29.6532C143.343 30.1285 144.778 30.8353 145.741 31.7738C146.703 32.7122 147.185 33.9461 147.185 35.4726C147.185 37.5231 146.408 39.1013 144.857 40.2012C143.306 41.3041 141.405 41.8525 139.15 41.8525C136.387 41.8525 134.062 41.1731 132.176 39.8112C132.045 39.7167 132.018 39.5309 132.109 39.3999L133.812 36.9411C133.901 36.8101 134.074 36.7766 134.212 36.8558C134.931 37.2854 135.644 37.6114 136.353 37.8369C137.143 38.0867 137.999 38.2116 138.925 38.2116C140 38.2116 140.835 38.0105 141.423 37.6114C142.011 37.2123 142.304 36.609 142.304 35.8077C142.304 35.2837 142.179 34.8693 141.929 34.5707C141.679 34.2691 141.277 34.0071 140.729 33.7816C140.177 33.5561 139.327 33.3063 138.175 33.0321C136.247 32.5568 134.827 31.856 133.913 30.9298C132.999 30.0036 132.545 28.7392 132.545 27.1365C132.545 25.3085 133.243 23.8765 134.647 22.8375C136.049 21.7986 137.898 21.2806 140.202 21.2806C142.7 21.2806 144.848 21.9144 146.655 23.1788C146.786 23.2702 146.819 23.4499 146.734 23.584Z" fill="#2A5484"/>
<path d="M182.265 26.1232C181.464 24.5967 180.306 23.4085 178.792 22.5554C177.278 21.7053 175.459 21.2788 173.329 21.2788C171.202 21.2788 169.38 21.7053 167.866 22.5554C166.352 23.4085 165.194 24.5967 164.396 26.1232C163.595 27.6496 163.192 29.4411 163.192 31.4916C163.192 33.4934 163.601 35.2788 164.414 36.8418C165.228 38.4048 166.398 39.6326 167.924 40.5223C169.45 41.4089 171.251 41.8538 173.329 41.8538C175.407 41.8538 177.211 41.4089 178.737 40.5223C180.264 39.6326 181.434 38.4048 182.247 36.8418C183.061 35.2788 183.466 33.4934 183.466 31.4916C183.466 29.4411 183.067 27.6496 182.265 26.1232ZM173.329 38.1336C171.498 38.1245 170.279 37.4329 169.332 36.3147C168.299 35.1021 167.784 33.5848 167.784 31.583C167.784 29.6057 168.274 28.0427 169.313 26.7813C170.218 25.6753 171.477 25.0355 173.329 25.0355C175.182 25.0355 176.443 25.6753 177.348 26.7813C178.384 28.0427 178.877 29.6057 178.877 31.583C178.877 33.5848 178.359 35.1021 177.329 36.3147C176.379 37.4329 175.16 38.1245 173.329 38.1336Z" fill="#2A5484"/>
<path d="M209.393 21.2801C211.754 21.2801 213.86 21.9291 215.709 23.227C215.834 23.3154 215.871 23.483 215.801 23.617L214.311 26.3683C214.231 26.5206 214.039 26.5694 213.893 26.478C212.47 25.6157 210.984 25.1831 209.43 25.1831C207.653 25.1831 206.328 25.7467 205.451 26.874C204.576 28.0013 204.137 29.5522 204.137 31.5295C204.137 33.4581 204.576 35.0029 205.451 36.1667C206.328 37.3306 207.629 37.9126 209.357 37.9126C210.801 37.9126 212.324 37.4647 213.927 36.5659C214.073 36.4836 214.262 36.5385 214.341 36.6877L215.767 39.5121C215.837 39.6492 215.794 39.8168 215.666 39.8991C214.749 40.5023 213.747 40.9746 212.659 41.3097C211.483 41.6723 210.255 41.8521 208.979 41.8521C206.602 41.8521 204.701 41.328 203.272 40.2769C201.846 39.2257 200.847 37.9247 200.271 36.3709C199.695 34.8201 199.406 33.2053 199.406 31.5295C199.406 29.4516 199.808 27.6449 200.609 26.1032C201.408 24.5646 202.559 23.3763 204.061 22.5385C205.563 21.7006 207.34 21.2801 209.393 21.2801Z" fill="#2A5484"/>
<path d="M235.528 33.2936H222.204C222.405 34.8444 222.96 36.0418 223.874 36.8797C224.788 37.7176 226.046 38.138 227.649 38.138C228.749 38.138 229.718 37.9918 230.559 37.7054C231.323 37.4433 232.137 37.0473 232.996 36.5232C233.133 36.441 233.313 36.4775 233.401 36.6085L235.104 39.1343C235.196 39.2684 235.162 39.4542 235.031 39.5456C233.974 40.289 232.844 40.8497 231.646 41.2336C230.358 41.6479 228.926 41.8521 227.347 41.8521C225.294 41.8521 223.53 41.4285 222.055 40.5785C220.577 39.7254 219.444 38.525 218.655 36.9741C217.869 35.4203 217.473 33.6196 217.473 31.5661C217.473 28.4645 218.292 25.9722 219.931 24.0954C221.571 22.2185 223.892 21.2801 226.896 21.2801C229.849 21.2801 232.091 22.2064 233.618 24.0588C235.144 25.9112 235.909 28.4005 235.909 31.5295C235.909 32.0383 235.881 32.538 235.827 33.0285C235.811 33.1809 235.68 33.2936 235.528 33.2936ZM231.29 29.7654C231.238 28.3121 230.845 27.1239 230.108 26.1976C229.367 25.2714 228.286 24.8083 226.86 24.8083C225.406 24.8083 224.288 25.2775 223.499 26.2159C222.71 27.1543 222.265 28.3395 222.168 29.7654H231.29Z" fill="#2A5484"/>
<path d="M103.175 41.0827L103.214 14.1186C103.214 14.0028 103.297 13.9053 103.409 13.887L107.59 13.1558C107.733 13.1314 107.864 13.2411 107.864 13.3873V41.0827C107.864 41.2106 107.76 41.3142 107.632 41.3142H103.406C103.278 41.3142 103.175 41.2106 103.175 41.0827Z" fill="#2A5484"/>
<path d="M276.8 27.1725L276.797 27.0689C276.794 26.8983 276.791 26.7276 276.785 26.5662C276.696 23.9185 276.142 21.539 275.136 19.4976C274.018 17.2186 272.367 15.4271 270.231 14.1718C268.107 12.9226 265.548 12.292 262.623 12.292C262.599 12.292 262.571 12.292 262.547 12.292H262.507C262.483 12.292 262.456 12.292 262.428 12.292C258.022 12.292 254.692 13.6264 252.267 16.3594C251.411 17.2704 250.686 18.3276 250.11 19.4976C249.007 21.7461 248.443 24.3877 248.443 27.3461V27.4589C248.443 30.4173 249.007 33.0558 250.11 35.3074C250.686 36.4774 251.411 37.5316 252.255 38.4304C254.692 41.1786 258.022 42.5131 262.428 42.5131C262.456 42.5131 262.483 42.5131 262.507 42.5131H262.547C262.571 42.5131 262.599 42.5131 262.623 42.5131C265.548 42.5131 268.107 41.8793 270.231 40.6332C270.49 40.4809 270.743 40.3194 270.99 40.1518L273.071 42.1261C273.192 42.2419 273.381 42.2358 273.494 42.117L276.206 39.2591C276.318 39.1403 276.312 38.9483 276.194 38.8356L274.189 36.9374C274.539 36.4256 274.856 35.8832 275.136 35.3074C276.142 33.263 276.696 30.8865 276.785 28.2419C276.791 28.0743 276.794 27.9068 276.797 27.7331L276.8 27.6325C276.803 27.5747 276.803 27.5168 276.803 27.4589V27.3461C276.803 27.2852 276.803 27.2304 276.8 27.1725ZM267.906 31.3801L265.195 34.238C265.082 34.3568 265.088 34.5457 265.207 34.6584L267.65 36.9862C266.301 37.7753 264.652 38.1622 262.663 38.1622C259.57 38.1622 257.434 37.1659 255.719 35.2587C254.046 33.3971 253.263 30.725 253.254 27.404C253.263 24.08 254.08 21.4201 255.683 19.5007C257.288 17.5751 259.57 16.6397 262.663 16.6397C265.752 16.6397 268.028 17.5751 269.622 19.4976C271.212 21.4201 272.026 24.08 272.035 27.401C272.026 29.8506 271.584 31.9377 270.712 33.6378L268.327 31.3679C268.208 31.2552 268.019 31.2613 267.906 31.3801Z" fill="#2A5484"/>
<path d="M162.44 22.1621L162.05 25.5684C162.038 25.6872 161.938 25.7786 161.819 25.7786H157.121V41.0827C157.121 41.2106 157.017 41.3142 156.889 41.3142H152.663C152.535 41.3142 152.432 41.2106 152.432 41.0827V25.7786H149.866C149.729 25.7786 149.623 25.6598 149.635 25.5257L149.906 22.0798C149.915 21.958 150.019 21.8635 150.141 21.8635H152.432V20.3889C152.432 15.8918 154.68 13.6829 158.711 13.6829C160.253 13.6829 161.341 13.8931 162.34 14.1765C162.44 14.2069 162.507 14.2983 162.507 14.4019V17.8631C162.507 18.0185 162.355 18.1281 162.206 18.0824C161.398 17.8296 160.655 17.6772 159.756 17.6772C157.974 17.6772 157.045 18.6461 157.045 20.7758V21.9001H162.209C162.346 21.9001 162.456 22.0219 162.44 22.1621Z" fill="#2A5484"/>
<path d="M198.904 22.3027C199.001 22.0132 198.797 21.8761 198.712 21.8426C198.496 21.7604 197.411 21.5105 196.576 21.4801C195.178 21.4252 194.139 21.7086 193.276 22.1534C192.533 22.5373 191.573 23.2624 191.019 24.4415V22.2296C191.019 22.0163 190.866 21.8426 190.653 21.8426H186.921C186.708 21.8426 186.555 22.0163 186.555 22.2296V40.9033C186.555 41.1166 186.729 41.2903 186.942 41.2903H190.866C191.08 41.2903 191.253 41.1166 191.253 40.9033V32.5399C191.253 28.8502 191.988 27.8052 192.88 26.9795C193.828 26.102 194.937 25.7334 196.079 25.7242C196.747 25.7212 197.481 25.8949 197.481 25.8949C197.725 25.9223 197.862 25.773 197.944 25.5536C198.163 24.9686 198.785 22.65 198.904 22.3027Z" fill="#2A5484"/>
<defs>
<linearGradient id="paint0_linear_1441_71" x1="-18.3669" y1="27.3115" x2="26.1368" y2="-15.6652" gradientUnits="userSpaceOnUse">
<stop stop-color="#5CC8B9"/>
<stop offset="1" stop-color="#48A1DE"/>
</linearGradient>
<linearGradient id="paint1_linear_1441_71" x1="9.95687" y1="56.6337" x2="54.4607" y2="13.657" gradientUnits="userSpaceOnUse">
<stop stop-color="#5CC8B9"/>
<stop offset="1" stop-color="#48A1DE"/>
</linearGradient>
</defs>
</svg>
