<svg width="253" height="56" viewBox="0 0 253 56" fill="none" xmlns="http://www.w3.org/2000/svg">
<path d="M247.295 0L233.497 29.5182L228.308 18.3336H222.696L231.229 36.6287H235.764L252.868 0H247.295Z" fill="#D52B1E"/>
<path d="M188.105 54.8084H199.213V34.4762C199.213 29.8256 201.903 26.5586 205.9 26.5586C209.744 26.5586 211.743 29.2491 211.743 33.131V54.8084H222.85V31.0171C222.85 22.9457 218.008 17.2573 210.167 17.2573C205.17 17.2573 201.673 19.4097 199.059 23.33H198.828V18.3335H188.067L188.105 54.8084ZM166.274 17.3342C154.666 17.3342 146.903 25.6746 146.903 36.667C146.903 47.5826 154.666 55.9999 166.274 55.9999C177.881 55.9999 185.645 47.5826 185.645 36.667C185.684 25.6746 177.881 17.3342 166.274 17.3342ZM166.197 47.7748C160.931 47.7748 158.126 43.3547 158.126 36.667C158.126 29.9025 160.893 25.5593 166.197 25.5593C171.463 25.5593 174.384 29.9025 174.384 36.667C174.422 43.3547 171.501 47.7748 166.197 47.7748ZM115.232 54.8084H146.441V46.0452H128.761V45.8146L145.673 26.8661V18.295H115.232V27.0967H132.336V27.3273L115.232 46.4296V54.8084ZM100.973 54.8084H112.157V18.3335H100.973V54.8084ZM75.0288 54.8084H86.175V38.0507C86.175 30.4405 90.7488 27.0583 97.7055 28.0191H97.9361V18.4104C97.3596 18.1797 96.7062 18.1413 95.6685 18.1413C91.3253 18.1413 88.4042 20.1399 85.9059 24.4062H85.6753V18.3335H75.0288V54.8084ZM54.5813 47.8132C49.6616 47.8132 46.6637 44.6231 46.0871 39.7034H72.3768C72.4537 31.8626 70.3782 25.5977 66.035 21.6773C62.9602 18.8331 58.9245 17.2573 53.7742 17.2573C42.7817 17.2573 35.1716 25.5977 35.1716 36.5133C35.1716 47.5057 42.4358 55.8846 54.5044 55.8846C59.0782 55.8846 62.6911 54.6547 65.6891 52.6176C68.8792 50.4268 71.1853 47.1983 71.8003 44.0081H61.1153C60.0775 46.3911 57.8483 47.8132 54.5813 47.8132ZM54.0048 25.2134C57.9252 25.2134 60.6156 28.1344 61.0768 32.4007H46.164C47.048 28.096 49.3926 25.2134 54.0048 25.2134ZM12.9561 54.8084H24.6403L37.3239 18.3335H26.1393L19.0288 41.7789H18.8751L11.7646 18.3335H0.272461L12.9561 54.8084ZM100.973 5.34241H112.157V15.2587H100.973V5.34241Z" fill="black"/>
</svg>
