<svg width="113" height="21" viewBox="0 0 113 21" fill="none" xmlns="http://www.w3.org/2000/svg">
<path d="M3.84812 20.4079L6.41612 12.7759L0.224121 8.62394H7.80812L10.5201 0.439941L13.2801 8.62394H20.8161L14.6241 12.7759L17.2401 20.4079L10.5201 15.5359L3.84812 20.4079Z" fill="#FF6F0F"/>
<path d="M26.8872 20.4079L29.4552 12.7759L23.2632 8.62394H30.8472L33.5592 0.439941L36.3192 8.62394H43.8552L37.6632 12.7759L40.2792 20.4079L33.5592 15.5359L26.8872 20.4079Z" fill="#FF6F0F"/>
<path d="M49.9262 20.4079L52.4942 12.7759L46.3022 8.62394H53.8862L56.5982 0.439941L59.3582 8.62394H66.8942L60.7022 12.7759L63.3182 20.4079L56.5982 15.5359L49.9262 20.4079Z" fill="#FF6F0F"/>
<path d="M72.9653 20.4079L75.5333 12.7759L69.3413 8.62394H76.9253L79.6373 0.439941L82.3973 8.62394H89.9333L83.7413 12.7759L86.3573 20.4079L79.6373 15.5359L72.9653 20.4079Z" fill="#FF6F0F"/>
<path d="M96.0044 20.4079L98.5724 12.7759L92.3804 8.62394H99.9644L102.676 0.439941L105.436 8.62394H112.972L106.78 12.7759L109.396 20.4079L102.676 15.5359L96.0044 20.4079Z" fill="#FF6F0F"/>
</svg>
