<svg width="44" height="44" viewBox="0 0 44 44" fill="none" xmlns="http://www.w3.org/2000/svg">
<path d="M21.7708 36.6667C21.893 36.6667 22.0152 36.6361 22.1374 36.575C22.2597 36.5139 22.3513 36.4528 22.4124 36.3917L37.4458 21.3583C37.8124 20.9917 38.0798 20.5792 38.2479 20.1208C38.4159 19.6625 38.4999 19.2042 38.4999 18.7458C38.4999 18.2569 38.4159 17.791 38.2479 17.3479C38.0798 16.9049 37.8124 16.5153 37.4458 16.1792L29.6541 8.38749C29.318 8.02082 28.9284 7.75346 28.4854 7.58541C28.0423 7.41735 27.5763 7.33332 27.0874 7.33332C26.6291 7.33332 26.1708 7.41735 25.7124 7.58541C25.2541 7.75346 24.8416 8.02082 24.4749 8.38749L23.9708 8.89166L27.3624 12.3292C27.8208 12.7569 28.1569 13.2458 28.3708 13.7958C28.5847 14.3458 28.6916 14.9264 28.6916 15.5375C28.6916 16.8208 28.2562 17.8979 27.3854 18.7687C26.5145 19.6396 25.4374 20.075 24.1541 20.075C23.543 20.075 22.9548 19.968 22.3895 19.7542C21.8242 19.5403 21.3277 19.2194 20.8999 18.7917L17.4624 15.4L9.44161 23.4208C9.34994 23.5125 9.28119 23.6118 9.23536 23.7187C9.18952 23.8257 9.16661 23.9403 9.16661 24.0625C9.16661 24.3069 9.25827 24.5285 9.44161 24.7271C9.62494 24.9257 9.83883 25.025 10.0833 25.025C10.2055 25.025 10.3277 24.9944 10.4499 24.9333C10.5722 24.8722 10.6638 24.8111 10.7249 24.75L16.9583 18.5167L19.5249 21.0833L13.3374 27.3167C13.2458 27.4083 13.177 27.5076 13.1312 27.6146C13.0854 27.7215 13.0624 27.8361 13.0624 27.9583C13.0624 28.2028 13.1541 28.4167 13.3374 28.6C13.5208 28.7833 13.7347 28.875 13.9791 28.875C14.1013 28.875 14.2236 28.8444 14.3458 28.7833C14.468 28.7222 14.5597 28.6611 14.6208 28.6L20.8541 22.4125L23.4208 24.9792L17.2333 31.2125C17.1416 31.2736 17.0729 31.3653 17.027 31.4875C16.9812 31.6097 16.9583 31.7319 16.9583 31.8542C16.9583 32.0986 17.0499 32.3125 17.2333 32.4958C17.4166 32.6792 17.6305 32.7708 17.8749 32.7708C17.9972 32.7708 18.1117 32.7479 18.2187 32.7021C18.3256 32.6562 18.4249 32.5875 18.5166 32.4958L24.7499 26.3083L27.3166 28.875L21.0833 35.1083C20.9916 35.2 20.9229 35.2993 20.877 35.4062C20.8312 35.5132 20.8083 35.6278 20.8083 35.75C20.8083 35.9944 20.9076 36.2083 21.1062 36.3917C21.3048 36.575 21.5263 36.6667 21.7708 36.6667ZM21.7249 40.3333C20.5944 40.3333 19.5937 39.959 18.7229 39.2104C17.852 38.4618 17.3402 37.5222 17.1874 36.3917C16.1486 36.2389 15.2777 35.8111 14.5749 35.1083C13.8722 34.4055 13.4444 33.5347 13.2916 32.4958C12.2527 32.343 11.3895 31.9076 10.702 31.1896C10.0145 30.4715 9.59439 29.6083 9.44161 28.6C8.2805 28.4472 7.33327 27.943 6.59994 27.0875C5.86661 26.2319 5.49994 25.2236 5.49994 24.0625C5.49994 23.4514 5.61452 22.8632 5.84369 22.2979C6.07286 21.7326 6.40133 21.2361 6.82911 20.8083L17.4624 10.2208L23.4666 16.225C23.5277 16.3167 23.6194 16.3854 23.7416 16.4312C23.8638 16.4771 23.9861 16.5 24.1083 16.5C24.3833 16.5 24.6124 16.416 24.7958 16.2479C24.9791 16.0799 25.0708 15.8583 25.0708 15.5833C25.0708 15.4611 25.0479 15.3389 25.002 15.2167C24.9562 15.0944 24.8874 15.0028 24.7958 14.9417L18.2416 8.38749C17.9055 8.02082 17.5159 7.75346 17.0729 7.58541C16.6298 7.41735 16.1638 7.33332 15.6749 7.33332C15.2166 7.33332 14.7583 7.41735 14.2999 7.58541C13.8416 7.75346 13.4291 8.02082 13.0624 8.38749L6.59994 14.8958C6.32494 15.1708 6.09577 15.4917 5.91244 15.8583C5.72911 16.225 5.60689 16.5917 5.54577 16.9583C5.48466 17.325 5.48466 17.6993 5.54577 18.0812C5.60689 18.4632 5.72911 18.8222 5.91244 19.1583L3.25411 21.8167C2.73466 21.1139 2.35272 20.3424 2.10827 19.5021C1.86383 18.6618 1.77216 17.8139 1.83327 16.9583C1.89439 16.1028 2.10827 15.2701 2.47494 14.4604C2.84161 13.6507 3.34577 12.925 3.98744 12.2833L10.4499 5.82082C11.1833 5.11805 12.0006 4.58332 12.902 4.21666C13.8034 3.84999 14.7277 3.66666 15.6749 3.66666C16.6222 3.66666 17.5465 3.84999 18.4479 4.21666C19.3492 4.58332 20.1513 5.11805 20.8541 5.82082L21.3583 6.32499L21.8624 5.82082C22.5958 5.11805 23.4131 4.58332 24.3145 4.21666C25.2159 3.84999 26.1402 3.66666 27.0874 3.66666C28.0347 3.66666 28.959 3.84999 29.8604 4.21666C30.7617 4.58332 31.5638 5.11805 32.2666 5.82082L40.0124 13.5667C40.7152 14.2694 41.2499 15.0792 41.6166 15.9958C41.9833 16.9125 42.1666 17.8444 42.1666 18.7917C42.1666 19.7389 41.9833 20.6632 41.6166 21.5646C41.2499 22.466 40.7152 23.268 40.0124 23.9708L24.9791 38.9583C24.5513 39.3861 24.0548 39.7222 23.4895 39.9667C22.9242 40.2111 22.3361 40.3333 21.7249 40.3333Z" fill="#FF6F0F"/>
</svg>
