<svg width="44" height="44" viewBox="0 0 44 44" fill="none" xmlns="http://www.w3.org/2000/svg">
<path d="M16.5 27.5V16.5H27.5V27.5H16.5ZM20.1667 23.8333H23.8333V20.1667H20.1667V23.8333ZM16.5 38.5V34.8333H12.8333C11.825 34.8333 10.9618 34.4743 10.2438 33.7563C9.52569 33.0382 9.16667 32.175 9.16667 31.1667V27.5H5.5V23.8333H9.16667V20.1667H5.5V16.5H9.16667V12.8333C9.16667 11.825 9.52569 10.9618 10.2438 10.2438C10.9618 9.52569 11.825 9.16667 12.8333 9.16667H16.5V5.5H20.1667V9.16667H23.8333V5.5H27.5V9.16667H31.1667C32.175 9.16667 33.0382 9.52569 33.7563 10.2438C34.4743 10.9618 34.8333 11.825 34.8333 12.8333V16.5H38.5V20.1667H34.8333V23.8333H38.5V27.5H34.8333V31.1667C34.8333 32.175 34.4743 33.0382 33.7563 33.7563C33.0382 34.4743 32.175 34.8333 31.1667 34.8333H27.5V38.5H23.8333V34.8333H20.1667V38.5H16.5ZM31.1667 31.1667V12.8333H12.8333V31.1667H31.1667Z" fill="#FF6F0F"/>
</svg>
