<svg width="44" height="44" viewBox="0 0 44 44" fill="none" xmlns="http://www.w3.org/2000/svg">
<path d="M21.9998 40.3333C19.4637 40.3333 17.0804 39.8521 14.8498 38.8896C12.6193 37.9271 10.679 36.6208 9.029 34.9708C7.379 33.3208 6.07275 31.3805 5.11025 29.15C4.14775 26.9194 3.6665 24.5361 3.6665 22C3.6665 19.4639 4.14775 17.0805 5.11025 14.85C6.07275 12.6194 7.379 10.6792 9.029 9.02916C10.679 7.37916 12.6193 6.07291 14.8498 5.11041C17.0804 4.14791 19.4637 3.66666 21.9998 3.66666C24.5359 3.66666 26.9193 4.14791 29.1498 5.11041C31.3804 6.07291 33.3207 7.37916 34.9707 9.02916C36.6207 10.6792 37.9269 12.6194 38.8894 14.85C39.8519 17.0805 40.3332 19.4639 40.3332 22C40.3332 24.5361 39.8519 26.9194 38.8894 29.15C37.9269 31.3805 36.6207 33.3208 34.9707 34.9708C33.3207 36.6208 31.3804 37.9271 29.1498 38.8896C26.9193 39.8521 24.5359 40.3333 21.9998 40.3333ZM20.1665 36.575V33C19.1582 33 18.295 32.641 17.5769 31.9229C16.8589 31.2049 16.4998 30.3417 16.4998 29.3333V27.5L7.69984 18.7C7.60817 19.25 7.52414 19.8 7.44775 20.35C7.37137 20.9 7.33317 21.45 7.33317 22C7.33317 25.6972 8.54775 28.9361 10.9769 31.7167C13.4061 34.4972 16.4693 36.1167 20.1665 36.575ZM32.8165 31.9C33.4276 31.2278 33.9776 30.5021 34.4665 29.7229C34.9554 28.9437 35.3603 28.134 35.6811 27.2937C36.0019 26.4535 36.2464 25.5903 36.4144 24.7042C36.5825 23.818 36.6665 22.9167 36.6665 22C36.6665 19.0055 35.8339 16.2708 34.1686 13.7958C32.5033 11.3208 30.2804 9.53332 27.4998 8.43332V9.16666C27.4998 10.175 27.1408 11.0382 26.4228 11.7562C25.7047 12.4743 24.8415 12.8333 23.8332 12.8333H20.1665V16.5C20.1665 17.0194 19.9908 17.4549 19.6394 17.8062C19.288 18.1576 18.8526 18.3333 18.3332 18.3333H14.6665V22H25.6665C26.1859 22 26.6214 22.1757 26.9728 22.5271C27.3241 22.8785 27.4998 23.3139 27.4998 23.8333V29.3333H29.3332C30.1276 29.3333 30.8457 29.5701 31.4873 30.0437C32.129 30.5174 32.5721 31.1361 32.8165 31.9Z" fill="#FF6F0F"/>
</svg>
