<svg width="123" height="122" viewBox="0 0 123 122" fill="none" xmlns="http://www.w3.org/2000/svg">
<path d="M66.1198 1.39456L81.5035 11.5487C81.6342 11.6359 81.7214 11.6794 81.8085 11.723C81.8957 11.7666 82.0265 11.8102 82.1572 11.8102L100.243 15.5145C101.899 15.8631 103.337 16.6476 104.427 17.7371C105.56 18.8701 106.344 20.3083 106.649 21.9207L110.353 40.0064C110.397 40.1372 110.397 40.2679 110.441 40.3551C110.484 40.4422 110.528 40.573 110.615 40.6601L120.769 56.0439C121.684 57.4384 122.164 59.0509 122.164 60.6198C122.164 62.1887 121.684 63.7575 120.769 65.1957L110.615 80.5794C110.528 80.6666 110.484 80.7973 110.441 80.8845C110.397 80.9716 110.353 81.1024 110.353 81.2331L106.649 99.3188C106.301 100.975 105.516 102.413 104.427 103.546C103.293 104.679 101.855 105.464 100.199 105.769L82.1136 109.473C81.9829 109.517 81.8521 109.517 81.765 109.56C81.6778 109.604 81.5471 109.647 81.4599 109.734L66.0762 119.889C64.6816 120.804 63.0692 121.283 61.5003 121.283C59.9314 121.283 58.3625 120.804 56.9244 119.889L41.5406 109.734C41.4099 109.647 41.3227 109.604 41.2356 109.56C41.1484 109.517 41.0177 109.473 40.8869 109.473L22.8012 105.769C21.1452 105.42 19.7071 104.636 18.574 103.546C17.4409 102.413 16.6565 100.975 16.3514 99.3188L12.6471 81.2331C12.6035 81.1024 12.6035 80.9716 12.5599 80.8845C12.5164 80.7973 12.4728 80.7102 12.3856 80.5794L2.23147 65.1957C1.31629 63.8011 0.836914 62.1887 0.836914 60.6198C0.836914 59.0509 1.31629 57.482 2.23147 56.0439L12.3856 40.6601C12.4728 40.5294 12.5164 40.4422 12.5599 40.3551C12.6035 40.2679 12.6471 40.1372 12.6471 40.0064L16.3514 21.9207C16.7 20.2647 17.4845 18.8266 18.574 17.7371C19.7071 16.604 21.1452 15.8195 22.7577 15.5145L40.8434 11.8102C40.9741 11.7666 41.1048 11.7666 41.192 11.723C41.2792 11.6794 41.3663 11.6359 41.4971 11.5487L56.8808 1.39456C58.2754 0.47938 59.8878 0 61.4567 0C63.0256 0 64.5945 0.47938 66.0326 1.39456H66.1198ZM50.4745 36.4329H72.6567V41.5753H50.4745V36.4329ZM50.4745 79.7514H72.6567V84.8938H50.4745V79.7514ZM52.3049 64.847V66.721C52.3049 67.5926 52.6535 68.377 53.2201 68.9436C53.7866 69.5101 54.5711 69.8587 55.4427 69.8587H55.8349C56.7065 69.8587 57.4909 69.5101 58.0575 68.9436C58.624 68.377 58.9726 67.5926 58.9726 66.721V63.7575L47.1189 61.9708L47.1625 54.6057C47.1625 52.3396 48.0776 50.2477 49.6029 48.766C51.0847 47.2843 53.1765 46.3255 55.4427 46.3255H55.8349C58.101 46.3255 60.1929 47.2407 61.6746 48.766C63.1563 50.2477 64.1151 52.3396 64.1151 54.6057V56.4797H58.9726V54.6057C58.9726 53.7341 58.624 52.9497 58.0575 52.3832C57.4909 51.8166 56.7065 51.468 55.8349 51.468H55.4427C54.5711 51.468 53.7866 51.8166 53.2201 52.3832C52.6535 52.9497 52.3049 53.7341 52.3049 54.6057V57.5692L64.1587 59.356V66.721C64.1587 68.9871 63.2435 71.079 61.7182 72.5607C60.2365 74.0424 58.1446 75.0012 55.8785 75.0012H55.4862C53.2201 75.0012 51.1282 74.086 49.6465 72.5607C48.1648 71.079 47.206 68.9871 47.206 66.721V64.847H52.3485H52.3049ZM76.1867 46.282H76.579C78.8451 46.282 80.8934 47.1971 82.4187 48.7224C83.9004 50.2477 84.8592 52.296 84.8592 54.5622V66.721C84.8592 68.9871 83.944 71.079 82.4187 72.5607C80.937 74.0424 78.8451 75.0012 76.579 75.0012H76.1867C73.9206 75.0012 71.8287 74.086 70.347 72.5607C68.8653 71.079 67.9065 68.9871 67.9065 66.721V54.5622C67.9065 52.296 68.8217 50.2042 70.347 48.7224C71.8723 47.2407 73.9206 46.282 76.1867 46.282ZM76.579 51.4244H76.1867C75.3151 51.4244 74.5307 51.773 73.9642 52.3396C73.3976 52.9061 73.049 53.6906 73.049 54.5622V66.721C73.049 67.5926 73.3976 68.377 73.9642 68.9436C74.5307 69.5101 75.3151 69.8587 76.1867 69.8587H76.579C77.4506 69.8587 78.235 69.5101 78.8015 68.9436C79.3681 68.377 79.7167 67.5926 79.7167 66.721V54.5622C79.7167 53.6906 79.3681 52.9061 78.8015 52.3396C78.235 51.773 77.4506 51.4244 76.579 51.4244ZM38.2721 48.8532V46.282H43.4146V74.9576H38.2721V48.8532ZM61.5874 21.4849C72.3953 21.4849 82.2008 25.8865 89.2607 32.9465C96.3643 40.05 100.722 49.8119 100.722 60.6198C100.722 71.4276 96.3207 81.2331 89.2607 88.2931C82.1572 95.3966 72.3953 99.7546 61.5874 99.7546C50.7796 99.7546 40.9741 95.353 33.9141 88.2931C26.8106 81.1895 22.4526 71.4276 22.4526 60.6198C22.4526 49.8119 26.8542 40.0064 33.9141 32.9465C41.0177 25.8429 50.7796 21.4849 61.5874 21.4849ZM84.7284 37.4788C78.8015 31.5519 70.6085 27.8912 61.5874 27.8912C52.5228 27.8912 44.3733 31.5519 38.4465 37.4788C32.5196 43.4057 28.8589 51.5987 28.8589 60.6198C28.8589 69.6844 32.5196 77.8339 38.4465 83.7607C44.3733 89.6876 52.5664 93.3484 61.5874 93.3484C70.6521 93.3484 78.8015 89.6876 84.7284 83.7607C90.6553 77.8339 94.316 69.6408 94.316 60.6198C94.316 51.5551 90.6553 43.4057 84.7284 37.4788ZM78.0171 16.8655L62.6334 6.71132C62.3283 6.49342 61.9361 6.40626 61.5874 6.40626C61.2388 6.40626 60.8902 6.49342 60.5415 6.71132L45.1578 16.8655C44.722 17.1705 44.2426 17.3884 43.7632 17.6063C43.2838 17.8242 42.8045 17.955 42.2815 18.0421L24.1958 21.7464C23.8036 21.8336 23.4549 22.0079 23.237 22.2258C22.9756 22.4873 22.8012 22.7923 22.7577 23.1846L19.0534 41.2703C18.9662 41.7932 18.7919 42.3162 18.6176 42.752C18.3997 43.2314 18.1818 43.7107 17.8767 44.1465L7.72255 59.5303C7.50465 59.8353 7.41749 60.2276 7.41749 60.5762C7.41749 60.9248 7.50465 61.2735 7.72255 61.6221L17.8767 77.0059C18.1818 77.4417 18.3997 77.921 18.6176 78.4004C18.8355 78.8798 18.9662 79.3592 19.0534 79.8821L22.7577 97.9678C22.8448 98.3601 23.0191 98.6651 23.2806 98.9266C23.5421 99.1881 23.8472 99.3624 24.2394 99.406L42.3251 103.11C42.848 103.241 43.371 103.372 43.8068 103.546C44.2862 103.764 44.7656 103.982 45.2014 104.287L60.5851 114.441C60.8902 114.659 61.2824 114.746 61.631 114.746C61.9796 114.746 62.3283 114.659 62.6769 114.441L78.0607 104.287C78.54 103.982 78.9759 103.72 79.4552 103.546C79.9346 103.328 80.414 103.197 80.937 103.11L99.0227 99.406C99.4149 99.3188 99.7199 99.1445 99.9814 98.883C100.243 98.6215 100.417 98.3165 100.504 97.9243L104.209 79.8386C104.339 79.3156 104.47 78.7926 104.644 78.3568C104.862 77.8775 105.08 77.4417 105.385 76.9623L115.539 61.5785C115.757 61.2735 115.845 60.8813 115.845 60.5326C115.845 60.184 115.757 59.8353 115.539 59.4867L105.385 44.103C105.08 43.6236 104.819 43.1878 104.644 42.7084C104.427 42.229 104.296 41.7496 104.209 41.2267L100.504 23.141C100.417 22.7488 100.243 22.4437 99.9814 22.1822C99.7199 21.9207 99.4149 21.7464 99.0227 21.6593L80.937 17.955C80.414 17.8678 79.891 17.6935 79.4552 17.5192C78.9759 17.3013 78.4965 17.0834 78.0607 16.7783L78.0171 16.8655Z" fill="#FF6F0F"/>
</svg>
