<svg width="252" height="85" viewBox="0 0 252 85" fill="none" xmlns="http://www.w3.org/2000/svg">
<path d="M95.114 80.4119C94.6802 80.4119 94.2909 80.342 93.9435 80.202C93.5961 80.0621 93.3103 79.862 93.0853 79.6025C92.8603 79.343 92.7139 79.0347 92.6455 78.68L93.4275 78.5628C93.5268 78.9289 93.733 79.2153 94.0462 79.4211C94.3593 79.6277 94.7281 79.7302 95.1525 79.7302C95.4272 79.7302 95.6753 79.6895 95.896 79.6074C96.1168 79.5252 96.2931 79.4073 96.4248 79.2535C96.5566 79.0998 96.6225 78.9183 96.6225 78.7085C96.6225 78.5816 96.5985 78.4709 96.5498 78.3766C96.5019 78.2822 96.4377 78.2033 96.3589 78.1382C96.2794 78.0739 96.1887 78.0186 96.0869 77.9731C95.985 77.9267 95.8789 77.8876 95.7686 77.8559L94.2096 77.4158C94.0393 77.3695 93.875 77.3101 93.7159 77.2361C93.5576 77.162 93.4156 77.0693 93.2915 76.957C93.1666 76.8456 93.0673 76.7097 92.9937 76.5511C92.9201 76.3924 92.8833 76.2045 92.8833 75.9898C92.8833 75.6481 92.9775 75.3544 93.1657 75.1096C93.354 74.8647 93.6098 74.6776 93.9332 74.5499C94.2566 74.4222 94.6203 74.3579 95.025 74.3579C95.4357 74.3604 95.8028 74.4303 96.1271 74.5662C96.4522 74.702 96.7209 74.8964 96.9348 75.1494C97.1487 75.4024 97.2925 75.7051 97.366 76.0581L96.5635 76.1915C96.5207 75.9572 96.4266 75.7539 96.2802 75.5814C96.1339 75.409 95.9525 75.2772 95.7344 75.1836C95.5162 75.0909 95.2774 75.0429 95.0164 75.0404C94.7675 75.0372 94.5416 75.0762 94.3405 75.1551C94.1394 75.2341 93.9794 75.3439 93.8605 75.4822C93.7415 75.6205 93.6825 75.7791 93.6825 75.9573C93.6825 76.137 93.7364 76.2818 93.8442 76.3892C93.9512 76.4966 94.0838 76.5828 94.2412 76.6455C94.3987 76.7089 94.5518 76.7602 94.7024 76.8008L95.8661 77.1197C95.9996 77.1547 96.1536 77.2035 96.3273 77.2653C96.5018 77.3272 96.6713 77.4142 96.8347 77.5256C96.999 77.6371 97.135 77.7852 97.2428 77.9698C97.3506 78.1545 97.4046 78.3863 97.4046 78.6662C97.4046 78.9468 97.3455 79.1958 97.2283 79.4138C97.1102 79.6318 96.9468 79.8156 96.7372 79.9637C96.5275 80.1117 96.2845 80.224 96.0064 80.2988C95.7284 80.3745 95.4314 80.4119 95.114 80.4119ZM242.382 57.962H250.475V60.1332H242.382V57.962ZM246.428 65.4421C245.177 65.4421 244.075 65.1858 243.122 64.6733C242.169 64.1608 241.423 63.4547 240.884 62.5558C240.345 61.6569 240.075 60.627 240.075 59.4662C240.075 58.1979 240.339 57.094 240.867 56.1553C241.394 55.2165 242.122 54.4876 243.048 53.9678C243.975 53.4488 245.041 53.1885 246.248 53.1885C247.529 53.1885 248.618 53.4756 249.515 54.0483C250.411 54.621 251.074 55.4272 251.504 56.4668C251.933 57.5057 252.084 58.7275 251.956 60.1316H248.915V59.057C248.915 57.875 248.717 57.0241 248.322 56.5042C247.926 55.9852 247.28 55.7249 246.383 55.7249C245.336 55.7249 244.565 56.0275 244.071 56.6336C243.577 57.2388 243.331 58.1329 243.331 59.3149C243.331 60.3968 243.577 61.2331 244.071 61.8245C244.565 62.4151 245.29 62.7104 246.247 62.7104C246.849 62.7104 247.366 62.5851 247.796 62.3345C248.225 62.084 248.553 61.722 248.78 61.2493L251.854 62.0881C251.394 63.1488 250.669 63.9729 249.678 64.5602C248.687 65.1476 247.605 65.4421 246.428 65.4421ZM233.858 65.4421C232.593 65.4421 231.507 65.1736 230.602 64.6359C229.698 64.099 229.004 63.3677 228.522 62.4435C228.04 61.5194 227.798 60.4773 227.798 59.3165C227.798 58.141 228.049 57.0916 228.55 56.1675C229.051 55.2433 229.758 54.5161 230.67 53.9857C231.581 53.4553 232.659 53.1901 233.903 53.1901C235.343 53.1901 236.55 53.5366 237.526 54.2273C238.502 54.9188 239.125 55.8632 239.397 57.059L236.323 57.8335C236.142 57.2315 235.828 56.7621 235.379 56.4253C234.931 56.0886 234.424 55.921 233.859 55.921C233.211 55.921 232.68 56.0698 232.265 56.3668C231.851 56.6645 231.545 57.0688 231.349 57.5813C231.153 58.0938 231.056 58.6722 231.056 59.3173C231.056 60.3277 231.291 61.146 231.763 61.7724C232.233 62.3996 232.932 62.7128 233.859 62.7128C234.553 62.7128 235.08 62.5623 235.442 62.2613C235.804 61.9603 236.075 61.53 236.256 60.9719L239.398 61.5951C239.051 62.8275 238.396 63.7769 237.431 64.4431C236.467 65.1094 235.275 65.4421 233.858 65.4421ZM222.983 65.1199V59.6386C222.983 59.3734 222.968 59.035 222.937 58.6226C222.907 58.2109 222.813 57.7969 222.655 57.3812C222.497 56.9655 222.238 56.6181 221.881 56.3383C221.523 56.0584 221.016 55.9193 220.36 55.9193C220.096 55.9193 219.814 55.9584 219.512 56.0373C219.211 56.1162 218.928 56.2683 218.664 56.4945C218.401 56.7206 218.184 57.0517 218.014 57.4886C217.845 57.9254 217.76 58.5054 217.76 59.2294L215.997 58.4338C215.997 57.5162 216.192 56.6572 216.584 55.8543C216.976 55.0522 217.566 54.403 218.354 53.9092C219.142 53.4146 220.134 53.1681 221.332 53.1681C222.29 53.1681 223.069 53.3219 223.672 53.6302C224.275 53.9385 224.744 54.3282 225.08 54.8016C225.415 55.2743 225.654 55.7672 225.798 56.2797C225.941 56.7922 226.027 57.26 226.058 57.6822C226.088 58.1044 226.103 58.4135 226.103 58.6063V65.1191L222.983 65.1199ZM214.64 65.1199V53.5122H217.376V57.36H217.761V65.1199H214.64ZM203.449 57.962H211.543V60.1332H203.449V57.962ZM207.497 65.4421C206.246 65.4421 205.144 65.1858 204.19 64.6733C203.236 64.1608 202.491 63.4547 201.952 62.5558C201.413 61.6569 201.144 60.627 201.144 59.4662C201.144 58.1979 201.408 57.094 201.935 56.1553C202.463 55.2165 203.19 54.4876 204.117 53.9678C205.043 53.4488 206.11 53.1885 207.315 53.1885C208.596 53.1885 209.685 53.4756 210.582 54.0483C211.479 54.621 212.142 55.4272 212.571 56.4668C213.001 57.5057 213.152 58.7275 213.023 60.1316H209.982V59.057C209.982 57.875 209.785 57.0241 209.389 56.5042C208.993 55.9852 208.347 55.7249 207.45 55.7249C206.402 55.7249 205.632 56.0275 205.138 56.6336C204.645 57.2388 204.398 58.1329 204.398 59.3149C204.398 60.3968 204.645 61.2331 205.138 61.8245C205.632 62.4151 206.358 62.7104 207.314 62.7104C207.918 62.7104 208.433 62.5851 208.863 62.3345C209.293 62.084 209.62 61.722 209.846 61.2493L212.92 62.0881C212.461 63.1488 211.735 63.9729 210.745 64.5602C209.754 65.1476 208.672 65.4421 207.497 65.4421ZM195.129 65.1199V53.5553C195.129 53.2617 195.137 52.9281 195.152 52.5556C195.167 52.1838 195.229 51.8072 195.339 51.4281C195.448 51.0482 195.649 50.704 195.944 50.3957C196.32 49.9947 196.729 49.7205 197.171 49.5733C197.611 49.4269 198.038 49.3472 198.453 49.3374C198.868 49.3268 199.223 49.3211 199.516 49.3211H201.031V51.6859H199.63C199.147 51.6859 198.789 51.8023 198.556 52.0357C198.322 52.2684 198.205 52.5458 198.205 52.8679V65.1207L195.129 65.1199ZM193.208 53.5122H201.03V55.7688H193.208V53.5122ZM182.559 57.962H190.652V60.1332H182.559V57.962ZM186.606 65.4421C185.355 65.4421 184.253 65.1858 183.3 64.6733C182.347 64.1608 181.601 63.4547 181.062 62.5558C180.522 61.6569 180.254 60.627 180.254 59.4662C180.254 58.1979 180.517 57.094 181.044 56.1553C181.572 55.2165 182.3 54.4876 183.226 53.9678C184.153 53.4488 185.219 53.1885 186.425 53.1885C187.706 53.1885 188.795 53.4756 189.692 54.0483C190.589 54.621 191.252 55.4272 191.682 56.4668C192.111 57.5057 192.262 58.7275 192.133 60.1316H189.093V59.057C189.093 57.875 188.895 57.0241 188.5 56.5042C188.103 55.9852 187.457 55.7249 186.561 55.7249C185.513 55.7249 184.742 56.0275 184.249 56.6336C183.755 57.2388 183.509 58.1329 183.509 59.3149C183.509 60.3968 183.755 61.2331 184.249 61.8245C184.742 62.4151 185.467 62.7104 186.425 62.7104C187.028 62.7104 187.544 62.5851 187.974 62.3345C188.404 62.084 188.731 61.722 188.957 61.2493L192.032 62.0881C191.572 63.1488 190.847 63.9729 189.856 64.5602C188.865 65.1476 187.782 65.4421 186.606 65.4421ZM168.565 62.3679H170.713C170.916 62.3679 171.191 62.3622 171.537 62.3516C171.884 62.341 172.197 62.3109 172.476 62.2605C173.184 62.1246 173.763 61.809 174.211 61.3144C174.66 60.8198 174.991 60.2251 175.206 59.5304C175.42 58.8357 175.528 58.119 175.528 57.3812C175.528 56.6076 175.417 55.873 175.194 55.1782C174.972 54.4835 174.635 53.8954 174.183 53.4154C173.73 52.9355 173.162 52.6312 172.476 52.5019C172.197 52.4449 171.885 52.4124 171.537 52.4051C171.191 52.3978 170.915 52.3945 170.713 52.3945H168.565V62.3679ZM165.444 65.1191V49.6425H170.713C170.84 49.6425 171.104 49.6465 171.504 49.653C171.903 49.6603 172.287 49.6856 172.657 49.7279C173.967 49.8784 175.08 50.3119 175.992 51.0286C176.903 51.7453 177.597 52.6548 178.072 53.7587C178.547 54.8618 178.784 56.0698 178.784 57.3804C178.784 58.6917 178.546 59.8989 178.072 61.0028C177.597 62.1059 176.904 63.0162 175.992 63.7321C175.08 64.4488 173.968 64.8824 172.657 65.0329C172.287 65.076 171.903 65.1012 171.504 65.1085C171.104 65.1159 170.84 65.1191 170.713 65.1191H165.444ZM155.587 49.3195H158.662V65.1191H155.587V49.3195ZM146.793 63.1415C147.358 63.1415 147.835 63.0463 148.223 62.8568C148.611 62.6673 148.919 62.4509 149.15 62.2068C149.38 61.9628 149.535 61.7586 149.618 61.5943C149.777 61.2794 149.869 60.9117 149.896 60.4928C149.922 60.0738 149.935 59.724 149.935 59.445L150.839 59.6598C149.927 59.803 149.189 59.9233 148.623 60.0201C148.058 60.117 147.602 60.2048 147.255 60.2837C146.909 60.3626 146.603 60.4489 146.34 60.5416C146.038 60.6563 145.795 60.7791 145.611 60.9117C145.426 61.0443 145.291 61.1899 145.203 61.347C145.117 61.5048 145.074 61.6805 145.074 61.8741C145.074 62.1393 145.143 62.3671 145.283 62.5566C145.422 62.747 145.62 62.8918 145.877 62.9918C146.133 63.0919 146.439 63.1415 146.793 63.1415ZM146.138 65.4421C145.263 65.4421 144.523 65.2826 143.916 64.9637C143.31 64.6448 142.849 64.2186 142.537 63.6849C142.225 63.1513 142.068 62.5615 142.068 61.9172C142.068 61.3795 142.155 60.8889 142.328 60.444C142.502 60.0006 142.783 59.6077 143.17 59.2677C143.559 58.9276 144.08 58.6421 144.736 58.4127C145.188 58.2557 145.727 58.1158 146.352 57.9937C146.978 57.8725 147.686 57.7562 148.478 57.6448C149.269 57.5341 150.139 57.4105 151.089 57.2738L149.981 57.8538C149.981 57.1656 149.807 56.6604 149.461 56.3383C149.114 56.0161 148.534 55.8543 147.721 55.8543C147.268 55.8543 146.797 55.9584 146.308 56.1658C145.818 56.3741 145.475 56.7426 145.279 57.273L142.498 56.4351C142.807 55.4744 143.387 54.6934 144.238 54.0914C145.09 53.4903 146.251 53.1885 147.721 53.1885C148.798 53.1885 149.755 53.3463 150.592 53.6619C151.429 53.9767 152.062 54.5218 152.492 55.2954C152.733 55.7249 152.876 56.1553 152.921 56.5848C152.967 57.0151 152.989 57.4951 152.989 58.0247V65.1183H150.298V62.7323L150.682 63.2269C150.086 64.0079 149.444 64.5724 148.755 64.9198C148.065 65.2672 147.193 65.4421 146.138 65.4421ZM134.698 62.8413C135.361 62.8413 135.903 62.6835 136.325 62.3687C136.747 62.0531 137.06 61.6292 137.264 61.0948C137.467 60.5611 137.569 59.9681 137.569 59.3157C137.569 58.6706 137.463 58.0816 137.253 57.548C137.042 57.0143 136.716 56.588 136.275 56.2691C135.835 55.9503 135.271 55.7908 134.586 55.7908C133.945 55.7908 133.427 55.9372 133.032 56.2309C132.636 56.5246 132.347 56.9362 132.167 57.4666C131.986 57.997 131.896 58.6128 131.896 59.3157C131.896 60.0177 131.986 60.6335 132.167 61.1639C132.348 61.6943 132.643 62.1059 133.054 62.4004C133.465 62.6941 134.012 62.8413 134.698 62.8413ZM135.195 65.4421C133.982 65.4421 132.968 65.1736 132.154 64.6359C131.339 64.099 130.728 63.3685 130.317 62.4435C129.906 61.5194 129.701 60.4765 129.701 59.3165C129.701 58.1556 129.904 57.1127 130.312 56.1886C130.718 55.2645 131.318 54.534 132.109 53.9962C132.9 53.4593 133.876 53.1901 135.037 53.1901C136.204 53.1901 137.222 53.4553 138.089 53.9857C138.955 54.5161 139.628 55.2417 140.106 56.1618C140.585 57.0826 140.824 58.1337 140.824 59.3165C140.824 60.4773 140.588 61.5194 140.117 62.4435C139.646 63.3685 138.988 64.0982 138.144 64.6359C137.301 65.1736 136.317 65.4421 135.195 65.4421ZM129.181 65.1199V49.6433H132.278V57.1664H131.894V65.1199H129.181ZM121.087 62.712C122.074 62.712 122.811 62.3947 123.297 61.761C123.783 61.1265 124.026 60.3122 124.026 59.3157C124.026 58.2834 123.779 57.4601 123.285 56.8435C122.791 56.2276 122.059 55.9185 121.086 55.9185C120.415 55.9185 119.865 56.0625 119.436 56.3489C119.006 56.6352 118.688 57.033 118.48 57.5423C118.273 58.0507 118.169 58.6421 118.169 59.3157C118.169 60.3545 118.416 61.1802 118.909 61.7927C119.403 62.4053 120.13 62.712 121.087 62.712ZM121.087 65.4421C119.859 65.4421 118.781 65.1801 117.854 64.657C116.927 64.1348 116.206 63.4124 115.69 62.4915C115.173 61.5707 114.915 60.5123 114.915 59.3157C114.915 58.1044 115.179 57.0387 115.707 56.1178C116.234 55.197 116.961 54.4787 117.888 53.9629C118.814 53.4471 119.881 53.1893 121.087 53.1893C122.315 53.1893 123.395 53.4504 124.326 53.9735C125.256 54.4974 125.981 55.2181 126.502 56.139C127.022 57.0599 127.282 58.1182 127.282 59.3149C127.282 60.5188 127.02 61.5812 126.496 62.5013C125.972 63.4222 125.245 64.1421 124.314 64.6611C123.384 65.1809 122.307 65.4421 121.087 65.4421ZM109.692 49.3203H112.767V65.1199H109.692V49.3203ZM100.06 65.4421C99.0354 65.4421 98.06 65.2688 97.1333 64.9206C96.2067 64.5732 95.3861 64.0591 94.6751 63.3782C93.9623 62.6973 93.401 61.8562 92.9903 60.8523C92.5796 59.8501 92.3742 58.6925 92.3742 57.3812C92.3742 55.6688 92.7199 54.2126 93.4087 53.0119C94.0975 51.812 95.025 50.8969 96.1895 50.2664C97.3541 49.6359 98.6444 49.3203 100.061 49.3203C102.156 49.3203 103.803 49.7824 105.001 50.7065C106.2 51.6314 107.002 52.9387 107.409 54.6291L104.266 55.0587C103.972 54.1557 103.492 53.4341 102.825 52.8932C102.158 52.3522 101.305 52.078 100.264 52.0707C99.2314 52.0569 98.3723 52.2676 97.6869 52.7052C97.0007 53.1421 96.4865 53.762 96.1442 54.5649C95.8002 55.367 95.6291 56.3058 95.6291 57.3804C95.6291 58.455 95.8002 59.3864 96.1442 60.1747C96.4865 60.963 97.0007 61.5755 97.6869 62.0132C98.3731 62.45 99.2314 62.6762 100.264 62.69C100.965 62.7047 101.6 62.59 102.169 62.3459C102.738 62.1019 103.218 61.7187 103.61 61.1956C104.002 60.6726 104.28 60.0022 104.446 59.1863H101.868V56.9297H107.724C107.739 57.0224 107.751 57.1876 107.758 57.4243C107.766 57.6602 107.77 57.7969 107.77 57.8327C107.77 59.3157 107.453 60.6303 106.82 61.7765C106.187 62.9227 105.294 63.8208 104.14 64.4691C102.988 65.1175 101.628 65.4421 100.06 65.4421ZM215.252 43.6251V28.1484H225.878V30.8785H218.327V34.1886H224.522V36.9186H218.327V40.895H225.878V43.6251H215.252ZM209.622 43.6251L206.412 37.327L209.577 36.747L213.104 43.6259L209.622 43.6251ZM203.518 35.6504H207.181C207.339 35.6504 207.512 35.6431 207.701 35.6293C207.889 35.6146 208.063 35.5862 208.221 35.543C208.635 35.4357 208.956 35.2542 209.182 35.0004C209.408 34.7458 209.565 34.4635 209.651 34.152C209.738 33.8404 209.781 33.5443 209.781 33.2645C209.781 32.9854 209.738 32.6901 209.651 32.3786C209.564 32.067 209.408 31.7839 209.182 31.5293C208.956 31.2755 208.635 31.0941 208.221 30.9867C208.063 30.9436 207.889 30.9151 207.701 30.9004C207.513 30.8858 207.339 30.8793 207.181 30.8793H203.518V35.6504ZM200.444 43.6251V28.1484H207.317C207.475 28.1484 207.688 28.1541 207.955 28.1639C208.223 28.1753 208.462 28.198 208.673 28.2338C209.646 28.3778 210.443 28.6821 211.064 29.1474C211.686 29.6135 212.144 30.1992 212.437 30.9045C212.731 31.6106 212.878 32.3973 212.878 33.2636C212.878 34.5612 212.539 35.6699 211.86 36.59C211.182 37.5109 210.12 38.0787 208.672 38.2935L207.316 38.3797H203.518V43.6251H200.444ZM187.195 37.6711H195.786V40.4012H187.195V37.6711ZM184.21 43.6251L189.184 28.1484H193.774L198.748 43.6251H195.583L191.151 29.9755H191.739L187.375 43.6251H184.21ZM168.316 43.6251L163.546 28.1484H166.779L169.831 38.788L172.883 28.1695L176.117 28.1484L179.169 38.788L182.22 28.1484H185.454L180.683 43.6251H177.653L174.5 33.1782L171.346 43.6251H168.316ZM159.272 43.6251L156.061 37.327L159.226 36.747L162.753 43.6259L159.272 43.6251ZM153.168 35.6504H156.831C156.989 35.6504 157.162 35.6431 157.351 35.6293C157.539 35.6146 157.713 35.5862 157.871 35.543C158.285 35.4357 158.606 35.2542 158.832 35.0004C159.058 34.7458 159.214 34.4635 159.301 34.152C159.387 33.8404 159.431 33.5443 159.431 33.2645C159.431 32.9854 159.387 32.6901 159.301 32.3786C159.214 32.067 159.058 31.7839 158.832 31.5293C158.606 31.2755 158.285 31.0941 157.871 30.9867C157.713 30.9436 157.539 30.9151 157.351 30.9004C157.163 30.8858 156.989 30.8793 156.831 30.8793H153.168V35.6504ZM150.093 43.6251V28.1484H156.967C157.125 28.1484 157.338 28.1541 157.606 28.1639C157.873 28.1753 158.112 28.198 158.323 28.2338C159.296 28.3778 160.092 28.6821 160.713 29.1474C161.336 29.6135 161.793 30.1992 162.087 30.9045C162.38 31.6106 162.527 32.3973 162.527 33.2636C162.527 34.5612 162.189 35.6699 161.51 36.59C160.832 37.5109 159.77 38.0787 158.322 38.2935L156.966 38.3797H153.168V43.6251H150.093ZM137.093 43.6251V28.1484H147.72V30.8785H140.169V34.1886H146.364V36.9186H140.169V40.895H147.72V43.6251H137.093ZM126.151 40.8738H129.926C130.341 40.8738 130.71 40.7892 131.034 40.6208C131.358 40.4524 131.612 40.2165 131.797 39.9115C131.981 39.6072 132.074 39.2469 132.074 38.8312C132.074 38.4651 131.996 38.1397 131.836 37.8533C131.678 37.5662 131.439 37.3392 131.119 37.1708C130.799 37.0024 130.402 36.9178 129.927 36.9178H126.152L126.151 40.8738ZM126.151 34.1886H129.496C129.843 34.1886 130.152 34.1316 130.423 34.0161C130.694 33.9014 130.909 33.7241 131.067 33.4841C131.226 33.2441 131.305 32.9342 131.305 32.5543C131.305 32.0816 131.15 31.6838 130.841 31.3617C130.532 31.0395 130.084 30.8777 129.496 30.8777H126.151V34.1886ZM123.031 43.6251V28.1484H129.542C130.703 28.1484 131.641 28.368 132.357 28.809C133.073 29.2499 133.596 29.8039 133.928 30.4693C134.26 31.1364 134.426 31.8099 134.426 32.49C134.426 33.3572 134.22 34.0771 133.81 34.6506C133.398 35.2242 132.835 35.6073 132.119 35.8009V35.2632C133.137 35.4633 133.899 35.9116 134.409 36.6063C134.918 37.3018 135.171 38.0787 135.171 38.9385C135.171 39.8627 134.992 40.6762 134.634 41.3782C134.276 42.0802 133.732 42.6302 133 43.028C132.269 43.4249 131.35 43.6242 130.242 43.6242L123.031 43.6251ZM113.106 43.6251V37.327L107.544 28.1492H111.138L114.666 33.9746L118.193 28.1492H121.788L116.226 37.327V43.6251H113.106ZM100.264 43.9472C98.6358 43.9472 97.2326 43.6104 96.0526 42.9368C94.8736 42.2633 93.9649 41.3213 93.3283 40.1108C92.6917 38.8995 92.3725 37.4922 92.3725 35.8863C92.3725 34.2813 92.6917 32.874 93.3283 31.6627C93.9649 30.4522 94.8736 29.5102 96.0526 28.8358C97.2326 28.1622 98.6358 27.8254 100.264 27.8254C102.134 27.8254 103.703 28.2655 104.973 29.1474C106.242 30.0284 107.137 31.2218 107.657 32.7259L104.559 33.5427C104.257 32.6039 103.749 31.875 103.033 31.3552C102.317 30.8362 101.394 30.5759 100.263 30.5759C99.2305 30.5759 98.3697 30.7947 97.6801 31.2315C96.9904 31.6684 96.4727 32.285 96.1254 33.0798C95.7788 33.8746 95.606 34.8101 95.606 35.8847C95.606 36.9593 95.7797 37.8948 96.1254 38.6904C96.4727 39.486 96.9904 40.1018 97.6801 40.5387C98.3697 40.9755 99.2305 41.1944 100.263 41.1944C101.394 41.1944 102.317 40.9332 103.033 40.4101C103.749 39.8871 104.257 39.1598 104.559 38.2284L107.657 39.0451C107.137 40.5501 106.242 41.7427 104.973 42.6245C103.703 43.5055 102.134 43.9472 100.264 43.9472ZM42.6349 74.6402C52.2652 71.1715 60.3322 65.2249 65.9897 57.4162C66.0401 57.347 66.0906 57.2771 66.1411 57.2063H19.1296C19.1835 57.2811 19.2365 57.356 19.2905 57.43C24.9488 65.2322 33.0115 71.1747 42.6349 74.6402ZM80.6802 31.5724C80.6776 31.7937 80.6768 32.0141 80.6716 32.2354C80.6716 32.2451 80.6716 32.2549 80.6716 32.2655C80.6537 33.0554 79.9743 33.6858 79.1443 33.6858H10.7734C10.995 37.4922 11.7052 41.2554 12.892 44.8925C13.6098 47.0954 14.5202 49.2796 15.6018 51.3971H69.6689C70.6829 49.4122 71.5462 47.3679 72.2418 45.3049H42.6358C41.7921 45.3049 41.1085 44.6549 41.1085 43.8528V40.9479C41.1085 40.1458 41.7921 39.495 42.6358 39.495H78.1483C79.1109 39.495 79.8331 40.3304 79.6474 41.2277C79.5969 41.4717 79.5379 41.7182 79.4831 41.9631C79.4172 42.2584 79.3522 42.5545 79.2812 42.849C79.211 43.1394 79.1349 43.4282 79.0596 43.7178C78.9749 44.0416 78.8919 44.3662 78.8003 44.6875C78.7687 44.7997 78.737 44.912 78.7045 45.0226C78.5522 45.549 78.3939 46.0728 78.2236 46.5935L78.2219 46.5967C78.1671 46.7651 78.1098 46.9327 78.0534 47.1003C78.0097 47.2305 77.9669 47.3598 77.9216 47.4908C77.8574 47.6762 77.7898 47.8609 77.7239 48.0456C77.6854 48.1538 77.6469 48.262 77.6076 48.3701C77.546 48.5377 77.4818 48.7045 77.4185 48.8713C77.2636 49.2747 77.1053 49.6782 76.9402 50.0809V50.0883C76.4713 51.232 75.9605 52.3619 75.4086 53.4691C74.902 54.4884 74.3596 55.4939 73.7974 56.4571C72.946 57.9148 72.0134 59.3466 71.0243 60.7116C64.4281 69.8162 54.9656 76.6487 43.66 80.4721C43.3306 80.5836 42.9857 80.6405 42.6358 80.6405C42.2858 80.6405 41.941 80.5836 41.6107 80.4721C30.3137 76.652 20.8554 69.8251 14.2593 60.7287C13.2659 59.3588 12.3281 57.9213 11.4742 56.4579C10.9129 55.4971 10.3712 54.4917 9.86213 53.4699C9.04756 51.8332 8.31941 50.1476 7.6965 48.4605C7.4689 47.8447 7.25242 47.2231 7.05392 46.6122C5.53857 41.9656 4.71373 37.1383 4.59993 32.2647C4.59137 31.8758 4.58539 31.487 4.58539 31.0981L4.58795 20.7782C4.78389 17.5259 5.93815 14.398 7.92495 11.7322C11.3672 7.11318 16.9605 4.35543 22.8876 4.35543H42.6383C43.482 4.35543 44.1657 5.00542 44.1657 5.80833V8.71249C44.1657 9.51459 43.482 10.1646 42.6383 10.1646H22.8876C16.466 10.1646 11.1105 14.9349 10.6955 21.0255C10.6758 21.3183 10.6664 21.5591 10.6664 21.7837V27.8759H79.1614C80.0051 27.8759 80.6896 28.5259 80.6896 29.328V31.1095C80.6896 31.2641 80.6853 31.4178 80.6836 31.5716L80.6802 31.5724ZM85.269 29.3288C85.269 26.1261 82.5275 23.5188 79.1589 23.5188H15.2467V21.7845C15.2467 21.6551 15.2527 21.503 15.2664 21.3045C15.5256 17.5031 18.8712 14.5224 22.8841 14.5224H42.6349C46.0044 14.5224 48.7459 11.916 48.7459 8.71331V5.80915C48.7459 2.60562 46.0044 0 42.6349 0H22.8841C15.4734 0 8.48198 3.44432 4.18152 9.21522C1.69674 12.5489 0.254124 16.4618 0.00941081 20.5309L0.00171295 20.6553V20.779L0 31.0989C0 31.4805 0.00513845 31.8937 0.0154061 32.3623C0.138619 37.6418 1.03276 42.8701 2.67388 47.904C2.89207 48.5735 3.12652 49.2463 3.37037 49.906C4.04719 51.738 4.83695 53.5651 5.71826 55.3361C6.26929 56.4432 6.85711 57.5333 7.46548 58.5754C8.39042 60.1609 9.40693 61.7187 10.485 63.205C17.6322 73.0604 27.864 80.4518 40.074 84.5803C40.898 84.8585 41.7596 85 42.6341 85C43.5085 85 44.3693 84.8585 45.1941 84.5803C57.4136 80.4485 67.6505 73.0506 74.7976 63.1863C75.8689 61.7073 76.8811 60.156 77.8044 58.5746C78.2048 57.8888 78.5941 57.1827 78.9697 56.4668C79.0236 56.3643 79.0793 56.2626 79.1323 56.1593C79.1358 56.1528 79.1392 56.1463 79.1426 56.1398C79.2803 55.873 79.4164 55.6053 79.5507 55.3361C79.5593 55.319 79.567 55.3011 79.5755 55.284C79.7587 54.9155 79.9358 54.5454 80.1103 54.172C80.1685 54.0491 80.2258 53.9247 80.2823 53.801C80.4269 53.4862 80.5689 53.1706 80.7067 52.8533C80.7461 52.763 80.7871 52.6735 80.8256 52.5832C80.9839 52.2155 81.1371 51.8454 81.2877 51.4744C81.3484 51.3247 81.4075 51.1751 81.4674 51.0246C81.5812 50.7374 81.6915 50.4486 81.8002 50.1598C81.8319 50.0752 81.867 49.9906 81.8978 49.906C81.9097 49.8743 81.9209 49.8409 81.9328 49.8092C81.9722 49.701 82.0107 49.5928 82.0492 49.4838C82.1245 49.2756 82.1998 49.0681 82.2725 48.8582C82.3239 48.7102 82.3726 48.5613 82.4223 48.4133C82.4796 48.2432 82.5386 48.074 82.5943 47.904C82.6045 47.8723 82.6139 47.8406 82.6242 47.8088C82.6952 47.5908 82.7645 47.3696 82.8338 47.145C82.88 46.9978 82.9245 46.8506 82.9682 46.7041C82.9887 46.6358 83.0084 46.5675 83.0289 46.4983C83.3036 45.5701 83.5543 44.6346 83.7793 43.695L83.7802 43.6885C84.6675 39.9766 85.1629 36.1833 85.2519 32.3631C85.257 32.1703 85.2596 31.9905 85.2621 31.8148C85.263 31.757 85.2639 31.6993 85.2647 31.6424C85.2647 31.6204 85.2656 31.596 85.2656 31.574C85.2664 31.4186 85.2681 31.2641 85.2681 31.1152L85.269 29.3288ZM247.843 77.7339H251.233V78.3115H247.843V77.7339ZM249.538 80.4119C249.088 80.4119 248.695 80.3167 248.359 80.1272C248.023 79.9369 247.762 79.6725 247.575 79.3316C247.388 78.9916 247.294 78.5929 247.294 78.1374C247.294 77.6607 247.387 77.2482 247.571 76.8993C247.755 76.5503 248.011 76.281 248.341 76.0907C248.672 75.9011 249.059 75.8067 249.503 75.8067C249.965 75.8067 250.358 75.9076 250.683 76.1094C251.007 76.3119 251.251 76.5999 251.413 76.9741C251.577 77.3483 251.647 77.7941 251.624 78.3115H250.859V78.0528C250.85 77.5167 250.736 77.1165 250.514 76.8513C250.293 76.5861 249.965 76.4535 249.528 76.4535C249.061 76.4535 248.705 76.5966 248.461 76.8822C248.217 77.1677 248.096 77.5769 248.096 78.1097C248.096 78.6247 248.217 79.0233 248.461 79.3056C248.705 79.5887 249.052 79.7294 249.503 79.7294C249.805 79.7294 250.069 79.6635 250.293 79.5317C250.517 79.3991 250.692 79.2104 250.819 78.9615L251.547 79.1998C251.368 79.5854 251.1 79.884 250.742 80.0947C250.383 80.3062 249.983 80.4119 249.538 80.4119ZM245.519 74.3522H246.275V80.2907H245.519V74.3522ZM242.072 79.8099C242.344 79.8099 242.58 79.7636 242.78 79.6708C242.979 79.5781 243.14 79.4553 243.262 79.3031C243.383 79.151 243.463 78.9851 243.5 78.8045C243.54 78.6702 243.562 78.5206 243.568 78.3562C243.574 78.1919 243.576 78.0642 243.576 77.9723L243.84 78.0813C243.593 78.1162 243.351 78.1488 243.111 78.1781C242.871 78.2074 242.646 78.2383 242.436 78.2708C242.225 78.3025 242.035 78.3424 241.864 78.388C241.739 78.4254 241.623 78.475 241.513 78.5352C241.405 78.5954 241.317 78.6719 241.25 78.7654C241.183 78.8582 241.15 78.9729 241.15 79.1071C241.15 79.225 241.181 79.3389 241.246 79.4463C241.309 79.5545 241.408 79.6415 241.543 79.7091C241.678 79.7766 241.854 79.8099 242.072 79.8099ZM241.958 80.4119C241.614 80.4119 241.329 80.3517 241.098 80.2321C240.867 80.1125 240.692 79.9539 240.575 79.7579C240.458 79.561 240.399 79.3454 240.399 79.1112C240.399 78.8818 240.444 78.6841 240.535 78.5173C240.625 78.3505 240.755 78.2098 240.924 78.0975C241.092 77.9845 241.293 77.8958 241.525 77.8307C241.743 77.7746 241.987 77.725 242.255 77.6835C242.524 77.6412 242.798 77.6029 243.075 77.5679C243.353 77.533 243.613 77.4996 243.856 77.4671L243.585 77.6168C243.591 77.2312 243.509 76.9456 243.339 76.7585C243.169 76.5706 242.875 76.4779 242.456 76.4779C242.177 76.4779 241.934 76.5381 241.727 76.6593C241.519 76.7805 241.371 76.9741 241.287 77.2409L240.569 77.0343C240.679 76.652 240.893 76.3518 241.211 76.1338C241.528 75.9158 241.946 75.8067 242.464 75.8067C242.88 75.8067 243.238 75.8775 243.537 76.0183C243.837 76.1598 244.05 76.3729 244.18 76.6585C244.246 76.7927 244.287 76.9391 244.305 77.097C244.322 77.254 244.33 77.4191 244.33 77.5915V80.2899H243.659V79.2438L243.817 79.3405C243.644 79.696 243.402 79.9637 243.09 80.1427C242.778 80.3216 242.402 80.4111 241.96 80.4111L241.958 80.4119ZM237.82 80.4119C237.355 80.4119 236.961 80.3135 236.636 80.115C236.312 79.9173 236.064 79.644 235.893 79.2966C235.722 78.9493 235.634 78.5539 235.632 78.1089C235.635 77.6566 235.724 77.2572 235.9 76.9115C236.075 76.5649 236.325 76.2949 236.652 76.0996C236.978 75.9044 237.37 75.8067 237.828 75.8067C238.313 75.8067 238.73 75.9198 239.079 76.146C239.429 76.3721 239.664 76.6821 239.783 77.075L239.035 77.2889C238.935 77.0359 238.777 76.8391 238.561 76.6991C238.343 76.5592 238.097 76.4893 237.82 76.4893C237.506 76.4893 237.246 76.5584 237.042 76.6975C236.838 76.8358 236.686 77.0278 236.588 77.271C236.488 77.5151 236.438 77.7941 236.435 78.1089C236.441 78.5938 236.558 78.9851 236.789 79.2828C237.02 79.5805 237.364 79.7294 237.82 79.7294C238.119 79.7294 238.368 79.6643 238.566 79.5342C238.763 79.4032 238.913 79.2145 239.018 78.9672L239.783 79.1567C239.624 79.5634 239.377 79.875 239.039 80.0906C238.702 80.3053 238.295 80.4119 237.82 80.4119ZM233.112 80.4079C232.565 80.4079 232.117 80.294 231.767 80.067C231.417 79.8392 231.202 79.5211 231.123 79.1119L231.897 78.9948C231.959 79.2315 232.102 79.4195 232.326 79.5586C232.55 79.6977 232.828 79.766 233.159 79.766C233.47 79.766 233.716 79.7042 233.897 79.5805C234.076 79.4569 234.166 79.2885 234.166 79.0762C234.166 78.955 234.136 78.8557 234.077 78.7792C234.017 78.7028 233.895 78.6304 233.709 78.5637C233.523 78.4961 233.245 78.414 232.871 78.3172C232.466 78.2147 232.147 78.1089 231.915 77.9999C231.682 77.8909 231.517 77.764 231.418 77.6184C231.318 77.4728 231.27 77.2946 231.27 77.0847C231.27 76.8293 231.343 76.6056 231.49 76.4144C231.638 76.2233 231.844 76.0744 232.109 75.9678C232.373 75.8612 232.682 75.8084 233.033 75.8084C233.381 75.8084 233.694 75.8613 233.968 75.9662C234.243 76.0711 234.465 76.22 234.633 76.4128C234.802 76.6048 234.902 76.8293 234.933 77.0856L234.159 77.219C234.122 76.9871 234.003 76.8033 233.802 76.6674C233.601 76.5316 233.345 76.4592 233.033 76.451C232.736 76.4429 232.494 76.4942 232.309 76.6048C232.124 76.7154 232.031 76.8635 232.031 77.049C232.031 77.1563 232.065 77.2475 232.136 77.3215C232.205 77.3955 232.334 77.4663 232.522 77.5338C232.711 77.6005 232.984 77.6778 233.345 77.764C233.749 77.8608 234.068 77.9666 234.303 78.0813C234.537 78.196 234.703 78.3302 234.802 78.4856C234.901 78.6401 234.951 78.8313 234.951 79.0574C234.951 79.4772 234.788 79.8083 234.462 80.0491C234.136 80.2899 233.687 80.4103 233.115 80.4103L233.112 80.4079ZM227.648 74.3522H228.404V80.2907H227.648V74.3522ZM224.202 79.8099C224.474 79.8099 224.71 79.7636 224.91 79.6708C225.109 79.5781 225.27 79.4553 225.391 79.3031C225.513 79.151 225.593 78.9851 225.63 78.8045C225.67 78.6702 225.692 78.5206 225.698 78.3562C225.704 78.1919 225.706 78.0642 225.706 77.9723L225.97 78.0813C225.723 78.1162 225.48 78.1488 225.241 78.1781C225.001 78.2074 224.776 78.2383 224.566 78.2708C224.355 78.3025 224.164 78.3424 223.994 78.388C223.869 78.4254 223.753 78.475 223.643 78.5352C223.535 78.5954 223.447 78.6719 223.38 78.7654C223.313 78.8582 223.28 78.9729 223.28 79.1071C223.28 79.225 223.311 79.3389 223.376 79.4463C223.439 79.5545 223.538 79.6415 223.673 79.7091C223.808 79.7766 223.984 79.8099 224.202 79.8099ZM224.087 80.4119C223.744 80.4119 223.458 80.3517 223.228 80.2321C222.997 80.1125 222.822 79.9539 222.705 79.7579C222.588 79.561 222.528 79.3454 222.528 79.1112C222.528 78.8818 222.574 78.6841 222.665 78.5173C222.755 78.3505 222.884 78.2098 223.054 78.0975C223.222 77.9845 223.423 77.8958 223.654 77.8307C223.873 77.7746 224.117 77.725 224.385 77.6835C224.654 77.6412 224.928 77.6029 225.205 77.5679C225.483 77.533 225.743 77.4996 225.986 77.4671L225.715 77.6168C225.721 77.2312 225.639 76.9456 225.468 76.7585C225.299 76.5706 225.005 76.4779 224.585 76.4779C224.307 76.4779 224.064 76.5381 223.856 76.6593C223.649 76.7805 223.501 76.9741 223.417 77.2409L222.699 77.0343C222.809 76.652 223.023 76.3518 223.34 76.1338C223.658 75.9158 224.075 75.8067 224.594 75.8067C225.01 75.8067 225.368 75.8775 225.667 76.0183C225.966 76.1598 226.18 76.3729 226.31 76.6585C226.376 76.7927 226.417 76.9391 226.434 77.097C226.452 77.254 226.46 77.4191 226.46 77.5915V80.2899H225.789V79.2438L225.947 79.3405C225.774 79.696 225.532 79.9637 225.219 80.1427C224.908 80.3216 224.532 80.4111 224.09 80.4111L224.087 80.4119ZM219.699 79.7538C219.999 79.7538 220.249 79.6814 220.448 79.5358C220.649 79.3902 220.798 79.1933 220.897 78.9444C220.996 78.6954 221.046 78.4156 221.046 78.1065C221.046 77.799 220.996 77.5224 220.897 77.2743C220.798 77.0262 220.648 76.8301 220.446 76.6845C220.245 76.5389 219.989 76.4665 219.677 76.4665C219.38 76.4665 219.133 76.5356 218.937 76.6747C218.742 76.813 218.596 77.0066 218.5 77.2539C218.403 77.5021 218.355 77.786 218.355 78.1065C218.355 78.4238 218.403 78.7076 218.498 78.9566C218.593 79.2055 218.739 79.4007 218.937 79.5423C219.136 79.6838 219.39 79.7538 219.699 79.7538ZM219.792 80.4119C219.362 80.4119 218.999 80.3102 218.705 80.1069C218.41 79.9035 218.187 79.6285 218.035 79.2812C217.884 78.9338 217.809 78.5425 217.809 78.1057C217.809 77.6664 217.884 77.2743 218.035 76.9277C218.187 76.582 218.411 76.3087 218.707 76.1077C219.003 75.9068 219.367 75.8067 219.797 75.8067C220.222 75.8067 220.589 75.9068 220.896 76.1077C221.203 76.3079 221.438 76.582 221.603 76.9294C221.767 77.2767 221.849 77.6688 221.849 78.1049C221.849 78.5409 221.767 78.9338 221.603 79.2828C221.438 79.631 221.203 79.9067 220.896 80.1085C220.589 80.3102 220.22 80.4119 219.792 80.4119ZM217.68 80.2907V74.4734H218.441V77.079H218.355V80.2907H217.68ZM214.537 79.7294C215.01 79.7294 215.362 79.5789 215.597 79.2771C215.831 78.9761 215.948 78.5848 215.948 78.1057C215.948 77.6151 215.83 77.2239 215.595 76.9302C215.36 76.6365 215.007 76.4901 214.538 76.4901C214.218 76.4901 213.954 76.5584 213.747 76.6959C213.54 76.8334 213.386 77.0229 213.284 77.2653C213.182 77.5077 213.132 77.7876 213.132 78.1057C213.132 78.5954 213.251 78.9891 213.489 79.2852C213.727 79.5814 214.075 79.7294 214.537 79.7294ZM214.537 80.4119C214.081 80.4119 213.687 80.3135 213.358 80.1166C213.027 79.9206 212.773 79.6489 212.595 79.3023C212.417 78.9566 212.328 78.5572 212.328 78.1049C212.328 77.6501 212.418 77.2491 212.6 76.9033C212.781 76.5576 213.038 76.2883 213.369 76.0955C213.7 75.9027 214.09 75.8067 214.538 75.8067C214.996 75.8067 215.392 75.9052 215.723 76.102C216.054 76.2981 216.308 76.569 216.485 76.9139C216.662 77.2588 216.75 77.6558 216.75 78.1057C216.75 78.5612 216.661 78.9615 216.483 79.3072C216.304 79.6537 216.049 79.9238 215.718 80.1191C215.386 80.3143 214.993 80.4119 214.537 80.4119ZM210.551 74.3522H211.308V80.2907H210.551V74.3522ZM207.262 79.753C207.571 79.753 207.824 79.6822 208.023 79.5407C208.221 79.3991 208.368 79.2039 208.463 78.955C208.558 78.706 208.605 78.4221 208.605 78.1049C208.605 77.7843 208.557 77.5004 208.46 77.2523C208.363 77.005 208.219 76.8114 208.024 76.6731C207.83 76.534 207.584 76.4649 207.284 76.4649C206.972 76.4649 206.715 76.5373 206.513 76.6829C206.31 76.8285 206.16 77.0245 206.062 77.2727C205.964 77.5208 205.915 77.7982 205.915 78.1049C205.915 78.4148 205.965 78.6938 206.063 78.9428C206.163 79.1917 206.311 79.3894 206.512 79.5342C206.711 79.6798 206.963 79.753 207.262 79.753ZM207.224 82.3496C206.983 82.3496 206.749 82.3147 206.519 82.2447C206.289 82.1747 206.079 82.069 205.888 81.9275C205.696 81.7859 205.537 81.6077 205.41 81.393L206.102 81.0456C206.215 81.2588 206.377 81.4133 206.584 81.5093C206.792 81.6061 207.006 81.6549 207.227 81.6549C207.519 81.6549 207.761 81.6045 207.952 81.5036C208.143 81.4027 208.285 81.2531 208.379 81.0529C208.472 80.8536 208.517 80.6055 208.515 80.3102V79.1185H208.604V75.9271H209.275V80.3175C209.275 80.4388 209.272 80.5543 209.265 80.6633C209.257 80.7723 209.243 80.8805 209.22 80.9887C209.161 81.2978 209.043 81.5533 208.867 81.7542C208.691 81.9543 208.464 82.104 208.187 82.2024C207.909 82.3008 207.589 82.3496 207.224 82.3496ZM207.169 80.4111C206.742 80.4111 206.375 80.3102 206.068 80.1085C205.762 79.9059 205.527 79.631 205.361 79.2828C205.195 78.9338 205.112 78.5417 205.112 78.1049C205.112 77.6688 205.195 77.2767 205.361 76.9294C205.526 76.582 205.762 76.3079 206.068 76.1077C206.375 75.9068 206.739 75.8067 207.165 75.8067C207.598 75.8067 207.962 75.9068 208.256 76.1077C208.551 76.3079 208.774 76.582 208.925 76.9277C209.077 77.2743 209.152 77.6664 209.152 78.1057C209.152 78.5417 209.077 78.9338 208.925 79.2812C208.774 79.6285 208.551 79.9043 208.256 80.1069C207.962 80.3102 207.599 80.4111 207.169 80.4111ZM200.307 79.8091C200.579 79.8091 200.815 79.7627 201.015 79.67C201.214 79.5773 201.375 79.4544 201.497 79.3023C201.618 79.1502 201.698 78.9842 201.736 78.8036C201.775 78.6694 201.797 78.5197 201.803 78.3554C201.809 78.1911 201.812 78.0634 201.812 77.9715L202.075 78.0804C201.829 78.1154 201.586 78.148 201.346 78.1772C201.107 78.2065 200.882 78.2375 200.671 78.27C200.461 78.3017 200.269 78.3416 200.1 78.3871C199.975 78.4246 199.858 78.4742 199.749 78.5344C199.64 78.5946 199.552 78.6711 199.485 78.7646C199.418 78.8573 199.385 78.972 199.385 79.1063C199.385 79.2242 199.417 79.3381 199.481 79.4455C199.544 79.5537 199.643 79.6407 199.778 79.7082C199.912 79.7758 200.088 79.8091 200.307 79.8091ZM200.193 80.4111C199.85 80.4111 199.563 80.3509 199.333 80.2313C199.102 80.1117 198.928 79.9531 198.81 79.7571C198.693 79.5602 198.634 79.3446 198.634 79.1103C198.634 78.8809 198.679 78.6833 198.77 78.5165C198.861 78.3497 198.99 78.209 199.159 78.0967C199.327 77.9836 199.528 77.895 199.76 77.8299C199.978 77.7738 200.222 77.7242 200.491 77.6827C200.759 77.6404 201.033 77.6021 201.31 77.5671C201.588 77.5322 201.848 77.4988 202.091 77.4663L201.82 77.616C201.826 77.2304 201.744 76.9448 201.574 76.7577C201.404 76.5698 201.11 76.4771 200.691 76.4771C200.414 76.4771 200.17 76.5373 199.962 76.6585C199.754 76.7797 199.607 76.9733 199.522 77.2401L198.804 77.0335C198.914 76.6512 199.128 76.351 199.446 76.133C199.763 75.9149 200.181 75.8059 200.699 75.8059C201.115 75.8059 201.473 75.8767 201.772 76.0175C202.071 76.159 202.286 76.3721 202.416 76.6577C202.482 76.7919 202.522 76.9383 202.539 77.0961C202.556 77.2532 202.565 77.4183 202.565 77.5907V80.2891H201.894V79.2429L202.051 79.3397C201.878 79.6952 201.636 79.9629 201.324 80.1418C201.013 80.3208 200.635 80.4111 200.193 80.4111ZM195.319 80.2899V78.104C195.319 77.8999 195.299 77.7014 195.26 77.5102C195.221 77.319 195.154 77.1466 195.061 76.9928C194.967 76.8399 194.84 76.7187 194.68 76.63C194.52 76.5413 194.318 76.4966 194.075 76.4966C193.885 76.4966 193.713 76.5275 193.558 76.5893C193.404 76.652 193.272 76.7439 193.161 76.8659C193.05 76.9888 192.964 77.1433 192.904 77.3304C192.843 77.5175 192.812 77.738 192.812 77.991L192.315 77.8454C192.315 77.4248 192.395 77.0628 192.555 76.7585C192.715 76.4543 192.94 76.2208 193.23 76.0581C193.521 75.8946 193.863 75.8133 194.256 75.8133C194.553 75.8133 194.807 75.858 195.017 75.9467C195.227 76.0353 195.401 76.1541 195.54 76.3022C195.678 76.4502 195.787 76.6145 195.867 76.7951C195.946 76.9757 196.002 77.1604 196.035 77.3491C196.068 77.5378 196.084 77.7144 196.084 77.8787V80.2899H195.319ZM192.047 80.2899V75.9271H192.727V77.0945H192.813V80.2899H192.047ZM188.903 79.7286C189.377 79.7286 189.73 79.5781 189.964 79.2763C190.197 78.9753 190.314 78.584 190.314 78.1049C190.314 77.6143 190.196 77.223 189.962 76.9294C189.727 76.6357 189.374 76.4893 188.904 76.4893C188.584 76.4893 188.321 76.5576 188.114 76.6951C187.907 76.8326 187.753 77.0221 187.651 77.2645C187.549 77.5069 187.498 77.7868 187.498 78.1049C187.498 78.5946 187.617 78.9883 187.854 79.2844C188.092 79.5805 188.441 79.7286 188.903 79.7286ZM188.903 80.4111C188.447 80.4111 188.055 80.3127 187.724 80.1158C187.394 79.9197 187.14 79.648 186.962 79.3015C186.783 78.9558 186.694 78.5563 186.694 78.104C186.694 77.6493 186.785 77.2483 186.966 76.9025C187.148 76.5568 187.404 76.2875 187.736 76.0947C188.067 75.9019 188.456 75.8059 188.903 75.8059C189.362 75.8059 189.757 75.9044 190.089 76.1012C190.42 76.2973 190.674 76.5682 190.851 76.9131C191.028 77.258 191.116 77.655 191.116 78.1049C191.116 78.5604 191.027 78.9607 190.848 79.3064C190.67 79.6529 190.415 79.923 190.083 80.1182C189.752 80.3135 189.359 80.4111 188.903 80.4111ZM181.316 82.2284L182.204 79.9344L182.217 80.6129L180.211 75.9271H181.006L182.578 79.696H182.306L183.779 75.9271H184.548L182.051 82.2284H181.316ZM179.871 80.2899C179.599 80.3436 179.331 80.3655 179.066 80.3566C178.801 80.3468 178.565 80.2956 178.357 80.2029C178.149 80.1101 177.992 79.9645 177.887 79.7652C177.796 79.5927 177.748 79.4186 177.741 79.2421C177.734 79.0656 177.73 78.8663 177.73 78.6426V74.7159H178.487V78.61C178.487 78.7874 178.489 78.9403 178.493 79.0664C178.498 79.1933 178.526 79.3015 178.58 79.3934C178.682 79.5659 178.845 79.6668 179.066 79.6969C179.289 79.7262 179.557 79.718 179.871 79.6725V80.2899ZM176.8 75.928L179.871 75.9271V76.521L176.8 76.5218V75.928ZM175.279 75.9271H176.035V80.2899H175.279V75.9271ZM175.279 74.4124H176.035V75.156H175.279V74.4124ZM172.02 80.2899V75.9271H172.696V76.9814L172.585 76.8439C172.639 76.7097 172.709 76.5861 172.795 76.4722C172.882 76.3591 172.978 76.2664 173.086 76.194C173.205 76.102 173.339 76.0329 173.49 75.9857C173.641 75.9385 173.793 75.9109 173.949 75.9011C174.104 75.8913 174.251 75.9003 174.387 75.9271V76.6015C174.227 76.5641 174.054 76.5543 173.864 76.573C173.675 76.5926 173.498 76.6569 173.338 76.7667C173.19 76.87 173.077 76.9912 172.995 77.1327C172.915 77.2743 172.858 77.4272 172.828 77.5932C172.796 77.7591 172.781 77.9283 172.781 78.1008V80.2899H172.02ZM170.155 80.2899V79.1225H170.07V75.9271H170.831V80.2899H170.155ZM168.625 80.403C168.328 80.403 168.074 80.3582 167.864 80.2696C167.654 80.1809 167.48 80.0621 167.341 79.9141C167.203 79.766 167.093 79.6017 167.014 79.4211C166.935 79.2405 166.879 79.0558 166.847 78.8679C166.814 78.6792 166.798 78.5027 166.798 78.3383V75.9271H167.562V78.1122C167.562 78.3172 167.582 78.5148 167.621 78.706C167.66 78.8972 167.728 79.0696 167.823 79.2226C167.918 79.3755 168.046 79.4967 168.206 79.5862C168.366 79.6749 168.567 79.7196 168.807 79.7196C168.997 79.7196 169.169 79.6887 169.324 79.6269C169.478 79.5651 169.61 79.4732 169.721 79.3503C169.831 79.2275 169.918 79.0729 169.978 78.8834C170.039 78.6955 170.07 78.475 170.07 78.2253L170.567 78.3709C170.567 78.7906 170.487 79.1526 170.327 79.4577C170.167 79.7611 169.942 79.9954 169.652 80.1581C169.361 80.3208 169.018 80.403 168.625 80.403ZM164.049 80.4111C163.584 80.4111 163.19 80.3127 162.865 80.1142C162.541 79.9165 162.293 79.6432 162.121 79.2958C161.95 78.9484 161.863 78.5531 161.86 78.1081C161.863 77.6558 161.952 77.2564 162.128 76.9107C162.303 76.5641 162.553 76.294 162.88 76.0988C163.206 75.9036 163.598 75.8059 164.056 75.8059C164.541 75.8059 164.958 75.919 165.307 76.1451C165.657 76.3713 165.892 76.6813 166.011 77.0742L165.263 77.2881C165.164 77.0351 165.005 76.8383 164.789 76.6983C164.572 76.5584 164.325 76.4884 164.048 76.4884C163.734 76.4884 163.474 76.5576 163.27 76.6967C163.066 76.835 162.914 77.027 162.816 77.2702C162.717 77.5143 162.666 77.7933 162.664 78.1081C162.67 78.593 162.787 78.9842 163.018 79.282C163.248 79.5797 163.592 79.7286 164.048 79.7286C164.347 79.7286 164.596 79.6635 164.794 79.5334C164.991 79.4024 165.141 79.2137 165.247 78.9664L166.012 79.1559C165.852 79.5626 165.605 79.8742 165.267 80.0898C164.93 80.3045 164.525 80.4111 164.049 80.4111ZM157.391 77.7331H160.781V78.3107H157.391V77.7331ZM159.086 80.4111C158.635 80.4111 158.243 80.3159 157.907 80.1264C157.572 79.936 157.311 79.6716 157.123 79.3308C156.937 78.9908 156.843 78.5921 156.843 78.1366C156.843 77.6599 156.935 77.2474 157.119 76.8984C157.303 76.5495 157.56 76.2802 157.89 76.0898C158.22 75.9003 158.607 75.8059 159.052 75.8059C159.513 75.8059 159.907 75.9068 160.231 76.1086C160.555 76.3111 160.799 76.5991 160.962 76.9733C161.125 77.3475 161.195 77.7933 161.172 78.3107H160.407V78.052C160.399 77.5159 160.284 77.1157 160.062 76.8505C159.842 76.5853 159.513 76.4527 159.077 76.4527C158.609 76.4527 158.254 76.5958 158.01 76.8814C157.766 77.1669 157.644 77.5761 157.644 78.1089C157.644 78.6239 157.766 79.0225 158.01 79.3048C158.254 79.5879 158.6 79.7286 159.051 79.7286C159.354 79.7286 159.617 79.6627 159.842 79.5309C160.065 79.3983 160.24 79.2096 160.368 78.9606L161.094 79.199C160.916 79.5846 160.648 79.8831 160.289 80.0938C159.931 80.3054 159.531 80.4111 159.086 80.4111ZM154.324 80.407C153.777 80.407 153.328 80.2932 152.979 80.0662C152.629 79.8384 152.414 79.5203 152.335 79.1112L153.109 78.994C153.171 79.2307 153.314 79.4187 153.538 79.5578C153.761 79.6969 154.04 79.7652 154.371 79.7652C154.682 79.7652 154.928 79.7034 155.108 79.5797C155.288 79.4561 155.378 79.2877 155.378 79.0753C155.378 78.9541 155.348 78.8549 155.289 78.7784C155.229 78.702 155.106 78.6295 154.921 78.5628C154.735 78.4953 154.455 78.4132 154.082 78.3164C153.677 78.2139 153.358 78.1081 153.126 77.9991C152.893 77.8901 152.728 77.7632 152.629 77.6176C152.529 77.472 152.48 77.2938 152.48 77.0839C152.48 76.8285 152.553 76.6048 152.7 76.4136C152.848 76.2224 153.054 76.0736 153.319 75.967C153.583 75.8604 153.891 75.8076 154.243 75.8076C154.591 75.8076 154.904 75.8604 155.178 75.9654C155.453 76.0703 155.675 76.2192 155.843 76.412C156.012 76.604 156.112 76.8285 156.143 77.0847L155.369 77.2182C155.332 76.9863 155.213 76.8025 155.012 76.6666C154.811 76.5308 154.555 76.4583 154.243 76.4502C153.946 76.4421 153.704 76.4933 153.519 76.604C153.334 76.7146 153.241 76.8627 153.241 77.0481C153.241 77.1555 153.275 77.2466 153.345 77.3207C153.414 77.3947 153.543 77.4655 153.731 77.533C153.92 77.5997 154.193 77.677 154.554 77.7632C154.958 77.86 155.278 77.9657 155.511 78.0804C155.746 78.1951 155.912 78.3294 156.011 78.4848C156.11 78.6393 156.16 78.8305 156.16 79.0566C156.16 79.4764 155.997 79.8075 155.671 80.0483C155.345 80.2891 154.896 80.4095 154.324 80.4095L154.324 80.407ZM147.687 79.753C147.995 79.753 148.249 79.6822 148.447 79.5407C148.645 79.3991 148.792 79.2039 148.887 78.955C148.982 78.706 149.03 78.4221 149.03 78.1049C149.03 77.7843 148.981 77.5004 148.884 77.2523C148.788 77.005 148.643 76.8114 148.449 76.6731C148.254 76.534 148.008 76.4649 147.708 76.4649C147.396 76.4649 147.139 76.5373 146.937 76.6829C146.734 76.8285 146.584 77.0245 146.486 77.2727C146.388 77.5208 146.34 77.7982 146.34 78.1049C146.34 78.4148 146.389 78.6938 146.488 78.9428C146.587 79.1917 146.736 79.3894 146.936 79.5342C147.135 79.6798 147.388 79.753 147.687 79.753ZM147.65 82.3496C147.408 82.3496 147.174 82.3147 146.944 82.2447C146.714 82.1747 146.504 82.069 146.313 81.9275C146.121 81.7859 145.962 81.6077 145.835 81.393L146.527 81.0456C146.64 81.2588 146.801 81.4133 147.009 81.5093C147.217 81.6061 147.431 81.6549 147.652 81.6549C147.943 81.6549 148.185 81.6045 148.376 81.5036C148.567 81.4027 148.709 81.2531 148.803 81.0529C148.896 80.8536 148.942 80.6055 148.939 80.3102V79.1185H149.029V75.9271H149.7V80.3175C149.7 80.4388 149.696 80.5543 149.689 80.6633C149.682 80.7723 149.668 80.8805 149.645 80.9887C149.586 81.2978 149.468 81.5533 149.292 81.7542C149.116 81.9543 148.889 82.104 148.612 82.2024C148.334 82.3008 148.015 82.3496 147.65 82.3496ZM147.594 80.4111C147.166 80.4111 146.8 80.3102 146.494 80.1085C146.187 79.9059 145.952 79.631 145.786 79.2828C145.62 78.9338 145.537 78.5417 145.537 78.1049C145.537 77.6688 145.62 77.2767 145.786 76.9294C145.951 76.582 146.187 76.3079 146.494 76.1077C146.8 75.9068 147.164 75.8067 147.59 75.8067C148.023 75.8067 148.387 75.9068 148.681 76.1077C148.976 76.3079 149.199 76.582 149.351 76.9277C149.502 77.2743 149.578 77.6664 149.578 78.1057C149.578 78.5417 149.502 78.9338 149.351 79.2812C149.199 79.6285 148.976 79.9043 148.681 80.1069C148.387 80.3102 148.024 80.4111 147.594 80.4111ZM143.923 80.2899V78.104C143.923 77.8999 143.904 77.7014 143.864 77.5102C143.825 77.319 143.757 77.1466 143.664 76.9928C143.571 76.8399 143.444 76.7187 143.283 76.63C143.123 76.5413 142.921 76.4966 142.677 76.4966C142.488 76.4966 142.315 76.5275 142.161 76.5893C142.007 76.652 141.875 76.7439 141.764 76.8659C141.653 76.9888 141.568 77.1433 141.507 77.3304C141.446 77.5175 141.415 77.738 141.415 77.991L140.918 77.8454C140.918 77.4248 140.999 77.0628 141.159 76.7585C141.319 76.4543 141.544 76.2208 141.834 76.0581C142.124 75.8946 142.466 75.8133 142.86 75.8133C143.157 75.8133 143.411 75.858 143.62 75.9467C143.83 76.0353 144.005 76.1541 144.143 76.3022C144.282 76.4502 144.39 76.6145 144.47 76.7951C144.55 76.9757 144.605 77.1604 144.638 77.3491C144.67 77.5378 144.686 77.7144 144.686 77.8787V80.2899H143.923ZM140.652 80.2899V75.9271H141.332V77.0945H141.417V80.2899H140.652ZM138.626 75.9271H139.382V80.2899H138.626V75.9271ZM138.626 74.4124H139.382V75.156H138.626V74.4124ZM136.671 80.2899V78.104C136.671 77.8999 136.651 77.7014 136.612 77.5102C136.572 77.319 136.506 77.1466 136.412 76.9928C136.318 76.8399 136.192 76.7187 136.031 76.63C135.871 76.5413 135.669 76.4966 135.425 76.4966C135.236 76.4966 135.063 76.5275 134.909 76.5893C134.755 76.652 134.622 76.7439 134.512 76.8659C134.401 76.9888 134.315 77.1433 134.254 77.3304C134.194 77.5175 134.163 77.738 134.163 77.991L133.666 77.8454C133.666 77.4248 133.746 77.0628 133.906 76.7585C134.066 76.4543 134.291 76.2208 134.581 76.0581C134.871 75.8946 135.214 75.8133 135.607 75.8133C135.904 75.8133 136.158 75.858 136.368 75.9467C136.578 76.0353 136.752 76.1541 136.891 76.3022C137.029 76.4502 137.138 76.6145 137.218 76.7951C137.297 76.9757 137.353 77.1604 137.386 77.3491C137.419 77.5378 137.435 77.7144 137.435 77.8787V80.2899H136.671ZM133.399 80.2899V75.9271H134.079V77.0945H134.165V80.2899H133.399ZM128.807 77.7331H132.198V78.3107H128.807V77.7331ZM130.502 80.4111C130.051 80.4111 129.658 80.3159 129.323 80.1264C128.987 79.936 128.726 79.6716 128.539 79.3308C128.351 78.9908 128.258 78.5921 128.258 78.1366C128.258 77.6599 128.35 77.2474 128.535 76.8984C128.718 76.5495 128.975 76.2802 129.305 76.0898C129.635 75.9003 130.022 75.8059 130.467 75.8059C130.929 75.8059 131.322 75.9068 131.646 76.1086C131.971 76.3111 132.215 76.5991 132.377 76.9733C132.541 77.3475 132.611 77.7933 132.588 78.3107H131.823V78.052C131.813 77.5159 131.7 77.1157 131.478 76.8505C131.257 76.5853 130.929 76.4527 130.492 76.4527C130.025 76.4527 129.67 76.5958 129.425 76.8814C129.182 77.1669 129.06 77.5761 129.06 78.1089C129.06 78.6239 129.181 79.0225 129.425 79.3048C129.669 79.5879 130.016 79.7286 130.467 79.7286C130.769 79.7286 131.033 79.6627 131.257 79.5309C131.48 79.3983 131.656 79.2096 131.783 78.9606L132.51 79.199C132.332 79.5846 132.063 79.8831 131.705 80.0938C131.346 80.3054 130.946 80.4111 130.502 80.4111ZM127.705 80.2899C127.433 80.3436 127.166 80.3655 126.9 80.3566C126.635 80.3468 126.399 80.2956 126.191 80.2029C125.983 80.1101 125.826 79.9645 125.721 79.7652C125.63 79.5927 125.582 79.4186 125.574 79.2421C125.567 79.0656 125.563 78.8663 125.563 78.6426V74.7159H126.319V78.61C126.319 78.7874 126.322 78.9403 126.326 79.0664C126.33 79.1933 126.359 79.3015 126.413 79.3934C126.515 79.5659 126.678 79.6668 126.9 79.6969C127.123 79.7262 127.391 79.718 127.705 79.6725V80.2899ZM124.634 75.928L127.705 75.9271V76.521L124.634 76.5218V75.928ZM123.274 80.2899V78.104C123.274 77.8999 123.254 77.7014 123.215 77.5102C123.176 77.319 123.109 77.1466 123.015 76.9928C122.921 76.8399 122.795 76.7187 122.635 76.63C122.475 76.5413 122.273 76.4966 122.03 76.4966C121.84 76.4966 121.668 76.5275 121.514 76.5893C121.36 76.652 121.227 76.7439 121.117 76.8659C121.007 76.9888 120.92 77.1433 120.859 77.3304C120.799 77.5175 120.768 77.738 120.768 77.991L120.271 77.8454C120.271 77.4248 120.351 77.0628 120.511 76.7585C120.671 76.4543 120.897 76.2208 121.187 76.0581C121.477 75.8946 121.819 75.8133 122.213 75.8133C122.51 75.8133 122.764 75.858 122.974 75.9467C123.183 76.0353 123.358 76.1541 123.496 76.3022C123.635 76.4502 123.744 76.6145 123.823 76.7951C123.902 76.9757 123.959 77.1604 123.991 77.3491C124.024 77.5378 124.04 77.7144 124.04 77.8787V80.2899H123.274ZM120.002 80.2899V74.4726H120.682V77.6843H120.768V80.2899H120.002ZM116.803 79.753C117.112 79.753 117.365 79.6822 117.563 79.5407C117.762 79.3991 117.908 79.2039 118.002 78.955C118.097 78.706 118.145 78.4221 118.145 78.1049C118.145 77.7843 118.097 77.5004 118.001 77.2523C117.905 77.005 117.759 76.8114 117.566 76.6731C117.372 76.534 117.125 76.4649 116.824 76.4649C116.513 76.4649 116.255 76.5373 116.053 76.6829C115.85 76.8285 115.701 77.0245 115.603 77.2727C115.506 77.5208 115.457 77.7982 115.457 78.1049C115.457 78.4148 115.507 78.6938 115.606 78.9428C115.705 79.1917 115.854 79.3894 116.054 79.5342C116.253 79.6798 116.502 79.753 116.803 79.753ZM116.764 82.3496C116.524 82.3496 116.289 82.3147 116.059 82.2447C115.83 82.1747 115.619 82.069 115.429 81.9275C115.237 81.7859 115.078 81.6077 114.951 81.393L115.643 81.0456C115.757 81.2588 115.917 81.4133 116.126 81.5093C116.334 81.6061 116.549 81.6549 116.769 81.6549C117.061 81.6549 117.303 81.6045 117.494 81.5036C117.685 81.4027 117.828 81.2531 117.921 81.0529C118.014 80.8536 118.06 80.6055 118.057 80.3102V79.1185H118.146V75.9271H118.817V80.3175C118.817 80.4388 118.814 80.5543 118.807 80.6633C118.8 80.7723 118.784 80.8805 118.762 80.9887C118.703 81.2978 118.585 81.5533 118.41 81.7542C118.234 81.9543 118.008 82.104 117.73 82.2024C117.452 82.3008 117.13 82.3496 116.764 82.3496ZM116.71 80.4111C116.283 80.4111 115.915 80.3102 115.609 80.1085C115.304 79.9059 115.068 79.631 114.902 79.2828C114.736 78.9338 114.653 78.5417 114.653 78.1049C114.653 77.6688 114.736 77.2767 114.902 76.9294C115.068 76.582 115.304 76.3079 115.609 76.1077C115.916 75.9068 116.281 75.8067 116.705 75.8067C117.139 75.8067 117.503 75.9068 117.797 76.1077C118.091 76.3079 118.316 76.582 118.467 76.9277C118.618 77.2743 118.694 77.6664 118.694 78.1057C118.694 78.5417 118.618 78.9338 118.467 79.2812C118.316 79.6285 118.092 79.9043 117.797 80.1069C117.503 80.3102 117.14 80.4111 116.71 80.4111ZM113.039 80.2899V78.104C113.039 77.8999 113.019 77.7014 112.979 77.5102C112.94 77.319 112.873 77.1466 112.78 76.9928C112.685 76.8399 112.559 76.7187 112.399 76.63C112.239 76.5413 112.037 76.4966 111.794 76.4966C111.604 76.4966 111.432 76.5275 111.277 76.5893C111.123 76.652 110.99 76.7439 110.88 76.8659C110.77 76.9888 110.684 77.1433 110.623 77.3304C110.562 77.5175 110.532 77.738 110.532 77.991L110.035 77.8454C110.035 77.4248 110.114 77.0628 110.275 76.7585C110.435 76.4543 110.66 76.2208 110.951 76.0581C111.241 75.8946 111.583 75.8133 111.977 75.8133C112.274 75.8133 112.528 75.858 112.737 75.9467C112.946 76.0353 113.121 76.1541 113.26 76.3022C113.398 76.4502 113.507 76.6145 113.586 76.7951C113.666 76.9757 113.722 77.1604 113.754 77.3491C113.787 77.5378 113.803 77.7144 113.803 77.8787V80.2899H113.039ZM109.767 80.2899V75.9271H110.447V77.0945H110.533V80.2899H109.767ZM105.174 77.7331H108.565V78.3107H105.174V77.7331ZM106.869 80.4111C106.418 80.4111 106.025 80.3159 105.69 80.1264C105.354 79.936 105.092 79.6716 104.906 79.3308C104.719 78.9908 104.625 78.5921 104.625 78.1366C104.625 77.6599 104.718 77.2474 104.901 76.8984C105.085 76.5495 105.342 76.2802 105.672 76.0898C106.002 75.9003 106.389 75.8059 106.834 75.8059C107.295 75.8059 107.689 75.9068 108.013 76.1086C108.337 76.3111 108.581 76.5991 108.744 76.9733C108.906 77.3475 108.977 77.7933 108.954 78.3107H108.189V78.052C108.18 77.5159 108.066 77.1157 107.845 76.8505C107.624 76.5853 107.295 76.4527 106.859 76.4527C106.392 76.4527 106.037 76.5958 105.793 76.8814C105.549 77.1669 105.428 77.5761 105.428 78.1089C105.428 78.6239 105.549 79.0225 105.793 79.3048C106.037 79.5879 106.384 79.7286 106.834 79.7286C107.137 79.7286 107.4 79.6627 107.624 79.5309C107.849 79.3983 108.023 79.2096 108.151 78.9606L108.878 79.199C108.699 79.5846 108.43 79.8831 108.072 80.0938C107.714 80.3054 107.313 80.4111 106.869 80.4111ZM101.791 80.2899V75.9271H102.467V76.9814L102.356 76.8439C102.41 76.7097 102.48 76.5861 102.567 76.4722C102.653 76.3591 102.75 76.2664 102.858 76.194C102.977 76.102 103.111 76.0329 103.261 75.9857C103.411 75.9385 103.563 75.9109 103.719 75.9011C103.875 75.8913 104.021 75.9003 104.156 75.9271V76.6015C103.998 76.5641 103.824 76.5543 103.634 76.573C103.444 76.5926 103.268 76.6569 103.107 76.7667C102.96 76.87 102.846 76.9912 102.764 77.1327C102.684 77.2743 102.627 77.4272 102.597 77.5932C102.565 77.7591 102.55 77.9283 102.55 78.1008V80.2899H101.789H101.791ZM100.857 80.2899C100.585 80.3436 100.316 80.3655 100.052 80.3566C99.7867 80.3468 99.5505 80.2956 99.3417 80.2029C99.1338 80.1101 98.9772 79.9645 98.872 79.7652C98.7813 79.5927 98.7325 79.4186 98.7248 79.2421C98.718 79.0656 98.7145 78.8663 98.7145 78.6426V74.7159H99.4709V78.61C99.4709 78.7874 99.4735 78.9403 99.4778 79.0664C99.4821 79.1933 99.5103 79.3015 99.5651 79.3934C99.6669 79.5659 99.8294 79.6668 100.052 79.6969C100.274 79.7262 100.542 79.718 100.857 79.6725V80.2899ZM97.7862 75.928L100.857 75.9271V76.521L97.7862 76.5218V75.928Z" fill="#FF7955"/>
</svg>
