<svg width="194" height="69" viewBox="0 0 194 69" fill="none" xmlns="http://www.w3.org/2000/svg">
<path d="M73.421 65.1942C73.0898 65.1942 72.7926 65.138 72.5274 65.0257C72.2622 64.9133 72.044 64.7526 71.8722 64.5443C71.7004 64.3359 71.5887 64.0883 71.5364 63.8035L72.1335 63.7094C72.2093 64.0034 72.3667 64.2333 72.6058 64.3986C72.8449 64.5645 73.1264 64.6468 73.4504 64.6468C73.6601 64.6468 73.8495 64.6142 74.018 64.5482C74.1866 64.4822 74.3211 64.3875 74.4217 64.264C74.5223 64.1406 74.5726 63.9949 74.5726 63.8264C74.5726 63.7245 74.5544 63.6356 74.5171 63.5599C74.4805 63.4841 74.4315 63.4207 74.3714 63.3685C74.3107 63.3168 74.2414 63.2724 74.1637 63.2358C74.086 63.1986 74.005 63.1673 73.9207 63.1418L72.7305 62.7884C72.6005 62.7512 72.4751 62.7035 72.3536 62.644C72.2328 62.5846 72.1243 62.5101 72.0296 62.42C71.9343 62.3305 71.8585 62.2214 71.8023 62.094C71.7461 61.9666 71.718 61.8157 71.718 61.6433C71.718 61.3689 71.7899 61.1331 71.9336 60.9365C72.0773 60.7399 72.2726 60.5896 72.5195 60.4871C72.7665 60.3845 73.0441 60.3329 73.3531 60.3329C73.6666 60.3349 73.9468 60.391 74.1944 60.5001C74.4426 60.6092 74.6478 60.7653 74.8111 60.9685C74.9744 61.1716 75.0841 61.4147 75.1403 61.6982L74.5276 61.8053C74.4949 61.6172 74.423 61.4538 74.3113 61.3154C74.1996 61.1769 74.0612 61.0711 73.8946 60.9959C73.728 60.9215 73.5458 60.8829 73.3465 60.881C73.1564 60.8784 72.984 60.9097 72.8305 60.9731C72.677 61.0364 72.5548 61.1246 72.464 61.2357C72.3732 61.3467 72.3282 61.4741 72.3282 61.6172C72.3282 61.7615 72.3693 61.8778 72.4516 61.964C72.5333 62.0502 72.6345 62.1195 72.7547 62.1698C72.8749 62.2207 72.9918 62.2619 73.1068 62.2945L73.9952 62.5506C74.0971 62.5787 74.2147 62.6179 74.3473 62.6675C74.4805 62.7172 74.6099 62.7871 74.7346 62.8766C74.8601 62.9661 74.9639 63.085 75.0462 63.2332C75.1285 63.3815 75.1697 63.5677 75.1697 63.7924C75.1697 64.0178 75.1246 64.2177 75.0351 64.3927C74.945 64.5678 74.8202 64.7154 74.6602 64.8343C74.5001 64.9532 74.3146 65.0433 74.1023 65.1034C73.89 65.1642 73.6634 65.1942 73.421 65.1942ZM185.851 47.1671H192.029V48.9106H185.851V47.1671ZM188.94 53.1735C187.985 53.1735 187.143 52.9678 186.416 52.5562C185.688 52.1447 185.118 51.5777 184.707 50.8559C184.295 50.1341 184.089 49.3071 184.089 48.3749C184.089 47.3565 184.291 46.4701 184.694 45.7163C185.096 44.9625 185.652 44.3772 186.359 43.9598C187.067 43.543 187.881 43.334 188.802 43.334C189.78 43.334 190.611 43.5646 191.296 44.0244C191.98 44.4843 192.487 45.1317 192.815 45.9665C193.143 46.8007 193.257 47.7818 193.159 48.9093H190.838V48.0464C190.838 47.0972 190.687 46.4139 190.385 45.9965C190.083 45.5798 189.59 45.3707 188.905 45.3707C188.105 45.3707 187.517 45.6137 187.14 46.1004C186.763 46.5864 186.575 47.3043 186.575 48.2534C186.575 49.1222 186.763 49.7938 187.14 50.2686C187.517 50.7429 188.071 50.98 188.801 50.98C189.261 50.98 189.656 50.8794 189.984 50.6782C190.311 50.477 190.562 50.1863 190.735 49.8068L193.082 50.4803C192.731 51.3321 192.177 51.9938 191.421 52.4654C190.664 52.9371 189.837 53.1729 188.939 53.1729L188.94 53.1735ZM179.343 53.1735C178.377 53.1735 177.548 52.958 176.858 52.5262C176.167 52.0951 175.637 51.5078 175.27 50.7657C174.901 50.0237 174.717 49.1869 174.717 48.2547C174.717 47.3108 174.908 46.4682 175.291 45.7261C175.673 44.984 176.213 44.4 176.909 43.9741C177.605 43.5482 178.428 43.3353 179.378 43.3353C180.476 43.3353 181.398 43.6136 182.143 44.1681C182.889 44.7234 183.364 45.4818 183.572 46.442L181.225 47.0639C181.087 46.5805 180.847 46.2036 180.505 45.9332C180.162 45.6627 179.776 45.5282 179.344 45.5282C178.849 45.5282 178.444 45.6477 178.127 45.8861C177.811 46.1252 177.577 46.4499 177.428 46.8614C177.278 47.2729 177.204 47.7374 177.204 48.2554C177.204 49.0667 177.383 49.7238 177.743 50.2268C178.103 50.7305 178.636 50.982 179.344 50.982C179.874 50.982 180.276 50.8611 180.552 50.6194C180.829 50.3777 181.036 50.0322 181.173 49.584L183.573 50.0844C183.308 51.0741 182.807 51.8364 182.071 52.3714C181.335 52.9064 180.425 53.1742 179.344 53.1742L179.343 53.1735ZM171.041 52.9149V48.5134C171.041 48.3005 171.029 48.0287 171.006 47.6975C170.982 47.367 170.911 47.0345 170.79 46.7007C170.67 46.3669 170.472 46.088 170.199 45.8633C169.926 45.6386 169.539 45.5269 169.038 45.5269C168.837 45.5269 168.621 45.5582 168.391 45.6216C168.161 45.6849 167.945 45.8071 167.744 45.9887C167.543 46.1703 167.377 46.4362 167.247 46.7869C167.118 47.1377 167.053 47.6035 167.053 48.1848L165.707 47.546C165.707 46.8091 165.857 46.1193 166.156 45.4746C166.455 44.8305 166.905 44.3093 167.507 43.9127C168.108 43.5156 168.866 43.3176 169.78 43.3176C170.511 43.3176 171.107 43.4411 171.567 43.6887C172.027 43.9362 172.385 44.2492 172.642 44.6293C172.898 45.0089 173.08 45.4047 173.19 45.8162C173.299 46.2278 173.365 46.6034 173.388 46.9424C173.411 47.2814 173.423 47.5297 173.423 47.6845V52.9142H171.041L171.041 52.9149ZM164.672 52.9149V43.594H166.76V46.6837H167.054V52.9149H164.672H164.672ZM156.128 47.1671H162.307V48.9106H156.128V47.1671ZM159.218 53.1735C158.263 53.1735 157.421 52.9678 156.694 52.5562C155.965 52.1447 155.396 51.5777 154.985 50.8559C154.573 50.1341 154.368 49.3071 154.368 48.3749C154.368 47.3565 154.569 46.4701 154.972 45.7163C155.375 44.9625 155.93 44.3772 156.638 43.9598C157.345 43.543 158.159 43.334 159.079 43.334C160.057 43.334 160.889 43.5646 161.573 44.0244C162.258 44.4843 162.764 45.1317 163.092 45.9665C163.42 46.8007 163.535 47.7818 163.437 48.9093H161.115V48.0464C161.115 47.0972 160.965 46.4139 160.663 45.9965C160.36 45.5798 159.867 45.3707 159.183 45.3707C158.382 45.3707 157.794 45.6137 157.418 46.1004C157.041 46.5864 156.852 47.3043 156.852 48.2534C156.852 49.1222 157.041 49.7938 157.418 50.2686C157.794 50.7429 158.348 50.98 159.079 50.98C159.539 50.98 159.933 50.8794 160.261 50.6782C160.589 50.477 160.839 50.1863 161.012 49.8068L163.359 50.4803C163.008 51.3321 162.454 51.9938 161.697 52.4654C160.941 52.9371 160.114 53.1729 159.217 53.1729L159.218 53.1735ZM149.776 52.9149V43.6286C149.776 43.3928 149.782 43.1249 149.794 42.8258C149.805 42.5272 149.852 42.2248 149.936 41.9204C150.02 41.6153 150.173 41.339 150.398 41.0914C150.685 40.7694 150.998 40.5493 151.335 40.431C151.671 40.3135 151.997 40.2495 152.314 40.2416C152.631 40.2331 152.901 40.2285 153.125 40.2285H154.282V42.1275H153.212C152.844 42.1275 152.57 42.2209 152.392 42.4084C152.214 42.5952 152.124 42.8179 152.124 43.0766V52.9155H149.777L149.776 52.9149ZM148.309 43.594H154.281V45.406H148.309V43.594ZM140.18 47.1671H146.358V48.9106H140.18V47.1671ZM143.269 53.1735C142.314 53.1735 141.473 52.9678 140.745 52.5562C140.018 52.1447 139.448 51.5777 139.036 50.8559C138.625 50.1341 138.42 49.3071 138.42 48.3749C138.42 47.3565 138.621 46.4701 139.023 45.7163C139.426 44.9625 139.982 44.3772 140.689 43.9598C141.396 43.543 142.21 43.334 143.131 43.334C144.109 43.334 144.94 43.5646 145.625 44.0244C146.31 44.4843 146.816 45.1317 147.144 45.9665C147.472 46.8007 147.587 47.7818 147.489 48.9093H145.168V48.0464C145.168 47.0972 145.017 46.4139 144.715 45.9965C144.412 45.5798 143.919 45.3707 143.235 45.3707C142.434 45.3707 141.847 45.6137 141.47 46.1004C141.093 46.5864 140.905 47.3043 140.905 48.2534C140.905 49.1222 141.093 49.7938 141.47 50.2686C141.847 50.7429 142.4 50.98 143.131 50.98C143.591 50.98 143.985 50.8794 144.314 50.6782C144.642 50.477 144.892 50.1863 145.064 49.8068L147.411 50.4803C147.061 51.3321 146.507 51.9938 145.75 52.4654C144.994 52.9371 144.167 53.1729 143.269 53.1729V53.1735ZM129.496 50.705H131.136C131.291 50.705 131.501 50.7004 131.765 50.6919C132.03 50.6834 132.269 50.6593 132.482 50.6188C133.023 50.5097 133.464 50.2562 133.807 49.8591C134.149 49.4619 134.402 48.9844 134.566 48.4265C134.73 47.8687 134.812 47.2932 134.812 46.7007C134.812 46.0795 134.727 45.4896 134.557 44.9318C134.387 44.3739 134.13 43.9016 133.785 43.5162C133.439 43.1308 133.006 42.8865 132.482 42.7827C132.269 42.7369 132.031 42.7108 131.765 42.7049C131.501 42.699 131.29 42.6964 131.136 42.6964H129.496V50.7057V50.705ZM127.114 52.9142V40.4866H131.136C131.233 40.4866 131.435 40.4898 131.74 40.4951C132.044 40.5009 132.338 40.5212 132.62 40.5551C133.62 40.676 134.47 41.0242 135.166 41.5997C135.862 42.1751 136.391 42.9055 136.754 43.7919C137.117 44.6777 137.297 45.6477 137.297 46.7001C137.297 47.7531 137.116 48.7225 136.754 49.6089C136.391 50.4947 135.862 51.2256 135.166 51.8005C134.47 52.376 133.621 52.7241 132.62 52.845C132.338 52.8796 132.044 52.8998 131.74 52.9057C131.434 52.9116 131.233 52.9142 131.136 52.9142H127.114ZM119.588 40.2272H121.936V52.9142H119.588V40.2272ZM112.875 51.3262C113.306 51.3262 113.67 51.2498 113.966 51.0976C114.263 50.9454 114.498 50.7716 114.674 50.5757C114.849 50.3797 114.968 50.2157 115.032 50.0838C115.152 49.831 115.223 49.5357 115.243 49.1993C115.263 48.8629 115.273 48.582 115.273 48.358L115.964 48.5304C115.267 48.6454 114.704 48.742 114.272 48.8198C113.84 48.8975 113.492 48.9681 113.227 49.0314C112.963 49.0948 112.73 49.164 112.528 49.2385C112.298 49.3306 112.113 49.4292 111.972 49.5357C111.831 49.6422 111.728 49.7591 111.661 49.8852C111.595 50.0119 111.562 50.153 111.562 50.3085C111.562 50.5214 111.615 50.7043 111.722 50.8566C111.828 51.0094 111.979 51.1257 112.175 51.206C112.37 51.2864 112.604 51.3269 112.874 51.3269L112.875 51.3262ZM112.374 53.1735C111.707 53.1735 111.142 53.0455 110.678 52.7894C110.215 52.5334 109.864 52.1911 109.625 51.7626C109.387 51.3341 109.267 50.8605 109.267 50.3431C109.267 49.9113 109.333 49.5174 109.466 49.1601C109.599 48.8041 109.813 48.4886 110.109 48.2155C110.405 47.9425 110.803 47.7132 111.304 47.529C111.649 47.4029 112.061 47.2906 112.538 47.1926C113.016 47.0953 113.557 47.0019 114.161 46.9124C114.765 46.8235 115.429 46.7242 116.154 46.6145L115.309 47.0802C115.309 46.5276 115.176 46.1219 114.911 45.8633C114.647 45.6046 114.204 45.4746 113.583 45.4746C113.237 45.4746 112.878 45.5582 112.504 45.7248C112.13 45.892 111.868 46.1879 111.718 46.6138L109.595 45.941C109.831 45.1696 110.274 44.5425 110.924 44.0591C111.575 43.5763 112.46 43.334 113.583 43.334C114.405 43.334 115.136 43.4607 115.775 43.7142C116.414 43.967 116.897 44.4046 117.225 45.0258C117.409 45.3708 117.518 45.7163 117.553 46.0612C117.588 46.4068 117.605 46.7922 117.605 47.2174V52.9136H115.55V50.9976L115.844 51.3948C115.389 52.0219 114.898 52.4752 114.372 52.7542C113.846 53.0331 113.18 53.1729 112.374 53.1729V53.1735ZM103.641 51.0852C104.147 51.0852 104.561 50.9585 104.883 50.7057C105.205 50.4522 105.444 50.1119 105.6 49.6827C105.755 49.2542 105.833 48.778 105.833 48.2541C105.833 47.7361 105.752 47.2631 105.591 46.8346C105.43 46.4061 105.182 46.0638 104.845 45.8078C104.509 45.5517 104.078 45.4236 103.555 45.4236C103.066 45.4236 102.671 45.5412 102.369 45.7771C102.066 46.0129 101.846 46.3434 101.708 46.7693C101.571 47.1952 101.502 47.6897 101.502 48.2541C101.502 48.8178 101.571 49.3123 101.708 49.7382C101.847 50.1641 102.072 50.4947 102.386 50.7311C102.699 50.9669 103.118 51.0845 103.641 51.0845L103.641 51.0852ZM104.02 53.1735C103.094 53.1735 102.32 52.958 101.699 52.5262C101.077 52.0951 100.61 51.5085 100.296 50.7657C99.9825 50.0237 99.8258 49.1862 99.8258 48.2547C99.8258 47.3226 99.9812 46.4852 100.292 45.7431C100.602 45.001 101.06 44.4144 101.664 43.9826C102.268 43.5515 103.013 43.3353 103.899 43.3353C104.791 43.3353 105.568 43.5482 106.229 43.9741C106.891 44.4 107.404 44.9827 107.77 45.7215C108.135 46.461 108.318 47.305 108.318 48.2547C108.318 49.1869 108.137 50.0237 107.778 50.7657C107.418 51.5085 106.916 52.0944 106.272 52.5262C105.628 52.958 104.876 53.1735 104.019 53.1735H104.02ZM99.4286 52.9149V40.4872H101.793V46.5283H101.5V52.9149H99.4286ZM93.2497 50.9813C94.0035 50.9813 94.566 50.7266 94.937 50.2177C95.308 49.7082 95.4935 49.0543 95.4935 48.2541C95.4935 47.4251 95.3048 46.7641 94.9279 46.2689C94.5509 45.7744 93.9918 45.5262 93.2491 45.5262C92.7369 45.5262 92.3169 45.6418 91.989 45.8718C91.6611 46.1017 91.4181 46.4211 91.2593 46.8301C91.1012 47.2383 91.0222 47.7132 91.0222 48.2541C91.0222 49.0883 91.2103 49.7513 91.5872 50.2432C91.9641 50.735 92.5181 50.9807 93.2484 50.9807L93.2497 50.9813ZM93.2497 53.1735C92.3123 53.1735 91.4893 52.9632 90.7818 52.5432C90.0737 52.1238 89.523 51.5437 89.1292 50.8043C88.7346 50.0648 88.538 49.215 88.538 48.2541C88.538 47.2814 88.7392 46.4257 89.1422 45.6862C89.5446 44.9468 90.0998 44.37 90.8073 43.9559C91.5147 43.5417 92.3293 43.3346 93.2497 43.3346C94.1871 43.3346 95.0115 43.5443 95.7222 43.9644C96.4322 44.385 96.9862 44.9638 97.3833 45.7032C97.7805 46.4427 97.9791 47.2925 97.9791 48.2534C97.9791 49.2202 97.7792 50.0733 97.3788 50.8121C96.979 51.5516 96.4237 52.1297 95.713 52.5464C95.003 52.9639 94.1812 53.1722 93.2497 53.1722V53.1735ZM84.5507 40.2279H86.8977V52.9149H84.5507V40.2279ZM77.1973 53.1735C76.4147 53.1735 75.6701 53.0344 74.9626 52.7548C74.2552 52.4759 73.6287 52.0631 73.0859 51.5163C72.5418 50.9696 72.1132 50.2941 71.7997 49.488C71.4861 48.6833 71.3294 47.7537 71.3294 46.7007C71.3294 45.3257 71.5933 44.1564 72.1191 43.1922C72.645 42.2287 73.3531 41.4938 74.2421 40.9876C75.1311 40.4813 76.1162 40.2279 77.198 40.2279C78.7971 40.2279 80.0545 40.5989 80.969 41.341C81.8842 42.0837 82.4969 43.1334 82.8072 44.4908L80.4079 44.8357C80.1832 44.1107 79.8167 43.5313 79.3079 43.0969C78.7984 42.6625 78.1471 42.4423 77.3528 42.4364C76.5643 42.4253 75.9085 42.5945 75.3852 42.946C74.8614 43.2967 74.4688 43.7945 74.2075 44.4392C73.9449 45.0833 73.8142 45.8371 73.8142 46.7001C73.8142 47.563 73.9449 48.3109 74.2075 48.9439C74.4688 49.5769 74.8614 50.0687 75.3852 50.4202C75.9091 50.771 76.5643 50.9526 77.3528 50.9637C77.8878 50.9754 78.3725 50.8833 78.8069 50.6874C79.2413 50.4914 79.6077 50.1837 79.9069 49.7637C80.2061 49.3437 80.419 48.8054 80.5451 48.1502H78.5776V46.3382H83.0483C83.0594 46.4126 83.0685 46.5452 83.0737 46.7353C83.0796 46.9248 83.0829 47.0345 83.0829 47.0633C83.0829 48.2541 82.8412 49.3097 82.3578 50.2301C81.8744 51.1505 81.1924 51.8717 80.3119 52.3923C79.432 52.9129 78.3934 53.1735 77.1966 53.1735H77.1973ZM165.139 35.6546V23.227H173.251V25.4192H167.486V28.0772H172.216V30.2694H167.486V33.4624H173.251V35.6546H165.139ZM160.84 35.6546L158.39 30.5974L160.806 30.1316L163.498 35.6553H160.84L160.84 35.6546ZM156.18 29.2511H158.977C159.098 29.2511 159.23 29.2452 159.374 29.2341C159.518 29.2223 159.65 29.1995 159.771 29.1648C160.087 29.0786 160.332 28.9329 160.505 28.7291C160.677 28.5247 160.797 28.298 160.863 28.0478C160.929 27.7976 160.962 27.5599 160.962 27.3351C160.962 27.1111 160.929 26.874 160.863 26.6238C160.796 26.3736 160.677 26.1463 160.505 25.9418C160.332 25.738 160.087 25.5923 159.771 25.5061C159.65 25.4715 159.518 25.4486 159.374 25.4369C159.23 25.4251 159.098 25.4199 158.977 25.4199H156.18V29.2517V29.2511ZM153.833 35.6546V23.227H159.081C159.201 23.227 159.364 23.2316 159.568 23.2394C159.772 23.2486 159.955 23.2668 160.116 23.2956C160.859 23.4112 161.467 23.6555 161.941 24.0292C162.416 24.4035 162.765 24.8738 162.99 25.4401C163.214 26.0071 163.326 26.6388 163.326 27.3345C163.326 28.3764 163.067 29.2667 162.549 30.0055C162.031 30.745 161.221 31.2009 160.115 31.3734L159.08 31.4426H156.18V35.6546H153.833ZM143.719 30.8737H150.278V33.0659H143.719V30.8737ZM141.44 35.6546L145.237 23.227H148.741L152.539 35.6546H150.122L146.739 24.6942H147.188L143.857 35.6546H141.44ZM129.306 35.6546L125.664 23.227H128.133L130.463 31.7705L132.793 23.244L135.261 23.227L137.591 31.7705L139.921 23.227H142.389L138.748 35.6546H136.435L134.027 27.2659L131.619 35.6546H129.306ZM122.401 35.6546L119.95 30.5974L122.367 30.1316L125.059 35.6553H122.401L122.401 35.6546ZM117.741 29.2511H120.538C120.658 29.2511 120.79 29.2452 120.935 29.2341C121.078 29.2223 121.211 29.1995 121.332 29.1648C121.648 29.0786 121.893 28.9329 122.066 28.7291C122.238 28.5247 122.358 28.298 122.423 28.0478C122.489 27.7976 122.523 27.5599 122.523 27.3351C122.523 27.1111 122.489 26.874 122.423 26.6238C122.357 26.3736 122.238 26.1463 122.066 25.9418C121.893 25.738 121.648 25.5923 121.332 25.5061C121.211 25.4715 121.078 25.4486 120.935 25.4369C120.791 25.4251 120.658 25.4199 120.538 25.4199H117.741V29.2517V29.2511ZM115.394 35.6546V23.227H120.641C120.762 23.227 120.925 23.2316 121.129 23.2394C121.333 23.2486 121.516 23.2668 121.677 23.2956C122.42 23.4112 123.028 23.6555 123.502 24.0292C123.977 24.4035 124.326 24.8738 124.55 25.4401C124.774 26.0071 124.887 26.6388 124.887 27.3345C124.887 28.3764 124.628 29.2667 124.11 30.0055C123.592 30.745 122.781 31.2009 121.676 31.3734L120.641 31.4426H117.741V35.6546H115.394ZM105.47 35.6546V23.227H113.582V25.4192H107.817V28.0772H112.547V30.2694H107.817V33.4624H113.582V35.6546H105.47ZM97.1155 33.4454H99.9975C100.314 33.4454 100.596 33.3775 100.843 33.2423C101.091 33.1071 101.285 32.9176 101.426 32.6727C101.567 32.4284 101.638 32.139 101.638 31.8052C101.638 31.5112 101.578 31.2499 101.456 31.02C101.335 30.7894 101.153 30.6072 100.909 30.4719C100.664 30.3367 100.361 30.2688 99.9982 30.2688H97.1162V33.4448L97.1155 33.4454ZM97.1155 28.0772H99.6696C99.9342 28.0772 100.17 28.0315 100.377 27.9387C100.584 27.8466 100.748 27.7042 100.869 27.5115C100.99 27.3188 101.051 27.0699 101.051 26.7649C101.051 26.3854 100.932 26.0659 100.696 25.8072C100.461 25.5486 100.118 25.4186 99.6696 25.4186H97.1155V28.0772ZM94.7338 35.6546V23.227H99.7049C100.591 23.227 101.307 23.4034 101.853 23.7574C102.4 24.1115 102.8 24.5563 103.053 25.0906C103.306 25.6263 103.433 26.1672 103.433 26.7133C103.433 27.4096 103.276 27.9877 102.963 28.4482C102.648 28.9088 102.219 29.2164 101.672 29.3719V28.9401C102.449 29.1008 103.031 29.4608 103.42 30.0186C103.808 30.5771 104.002 31.2009 104.002 31.8914C104.002 32.6335 103.865 33.2867 103.592 33.8504C103.319 34.4142 102.903 34.8557 102.345 35.1752C101.787 35.494 101.085 35.654 100.239 35.654H94.7332L94.7338 35.6546ZM87.1564 35.6546V30.5974L82.9104 23.2276H85.6546L88.3479 27.9054L91.0405 23.2276H93.7847L89.5387 30.5974V35.6546H87.1571H87.1564ZM77.3528 35.9133C76.1097 35.9133 75.0384 35.6429 74.1376 35.102C73.2374 34.5611 72.5437 33.8047 72.0577 32.8327C71.5717 31.86 71.3281 30.73 71.3281 29.4405C71.3281 28.1517 71.5717 27.0216 72.0577 26.0489C72.5437 25.0769 73.2374 24.3205 74.1376 23.779C75.0384 23.2381 76.1097 22.9677 77.3528 22.9677C78.7801 22.9677 79.9781 23.3211 80.9475 24.0292C81.9169 24.7366 82.5995 25.6949 82.9967 26.9027L80.632 27.5585C80.4014 26.8047 80.0134 26.2194 79.4666 25.802C78.9199 25.3853 78.215 25.1762 77.3521 25.1762C76.5637 25.1762 75.9065 25.3519 75.38 25.7027C74.8535 26.0535 74.4583 26.5487 74.1931 27.1869C73.9286 27.8251 73.7966 28.5763 73.7966 29.4392C73.7966 30.3021 73.9292 31.0533 74.1931 31.6922C74.4583 32.331 74.8535 32.8255 75.38 33.1763C75.9065 33.5271 76.5637 33.7028 77.3521 33.7028C78.215 33.7028 78.9199 33.4931 79.4666 33.0731C80.0134 32.6531 80.4014 32.0691 80.632 31.3211L82.9967 31.977C82.5995 33.1855 81.9169 34.1431 80.9475 34.8512C79.9781 35.5586 78.7801 35.9127 77.3528 35.9127V35.9133ZM33.3566 60.5596C40.7087 57.7742 46.8673 52.9991 51.1865 46.7288C51.225 46.6733 51.2635 46.6171 51.3021 46.5603H15.4118C15.453 46.6204 15.4935 46.6805 15.5346 46.7399C19.8544 53.005 26.0098 57.7762 33.3566 60.5589V60.5596ZM62.4017 25.9764C62.3997 26.1541 62.3991 26.3311 62.3952 26.5088C62.3952 26.5166 62.3952 26.5245 62.3952 26.533C62.3815 27.1673 61.8628 27.6735 61.2292 27.6735H9.0324C9.20159 30.73 9.74377 33.7518 10.6498 36.6724C11.1979 38.4413 11.8929 40.1952 12.7186 41.8956H53.9953C54.7694 40.3017 55.4285 38.6601 55.9596 37.0036H33.3573C32.7132 37.0036 32.1913 36.4816 32.1913 35.8375V33.5049C32.1913 32.8608 32.7132 32.3382 33.3573 32.3382H60.4688C61.2037 32.3382 61.755 33.0091 61.6133 33.7296C61.6133 33.7302 61.6133 33.7302 61.6133 33.7302C61.5747 33.9262 61.5296 34.1235 61.4878 34.3201C61.4375 34.5572 61.3879 34.795 61.3337 35.0315C61.2801 35.2647 61.222 35.4966 61.1645 35.7291C61.0998 35.9891 61.0365 36.2497 60.9666 36.5078C60.9424 36.5979 60.9182 36.6881 60.8934 36.7769C60.7771 37.1995 60.6563 37.6202 60.5263 38.0383C60.5263 38.0389 60.5256 38.0396 60.525 38.0409C60.4832 38.1761 60.4394 38.3107 60.3963 38.4452C60.363 38.5498 60.3303 38.6536 60.2957 38.7588C60.2467 38.9077 60.1951 39.056 60.1448 39.2043C60.1154 39.2912 60.086 39.378 60.056 39.4649C60.0089 39.5995 59.9599 39.7334 59.9116 39.8673C59.7934 40.1913 59.6725 40.5153 59.5465 40.8387V40.8445C59.1885 41.763 58.7985 42.6703 58.3772 43.5593C57.9905 44.3778 57.5763 45.1852 57.1471 45.9586C56.4972 47.1292 55.7852 48.2789 55.03 49.375C49.9943 56.6859 42.7703 62.1724 34.1392 65.2426C33.8877 65.3321 33.6244 65.3778 33.3573 65.3778C33.0901 65.3778 32.8269 65.3321 32.5747 65.2426C23.9502 62.175 16.7294 56.6931 11.6936 49.3887C10.9353 48.2887 10.2193 47.1344 9.56739 45.9593C9.13887 45.1878 8.72538 44.3804 8.33671 43.56C7.71484 42.2457 7.15895 40.8922 6.6834 39.5374C6.50964 39.0429 6.34437 38.5439 6.19283 38.0533C5.03596 34.3221 4.40625 30.4458 4.31937 26.5323C4.31283 26.2201 4.30827 25.9078 4.30827 25.5956L4.31022 17.3088C4.45981 14.6972 5.34101 12.1855 6.85781 10.0449C9.48574 6.33586 13.7559 4.1214 18.2808 4.1214H33.3592C34.0033 4.1214 34.5252 4.64334 34.5252 5.28807V7.62009C34.5252 8.26417 34.0033 8.78611 33.3592 8.78611H18.2808C13.3783 8.78611 9.28977 12.6166 8.97296 17.5073C8.95793 17.7425 8.95075 17.9359 8.95075 18.1161V23.0082H61.2422C61.8863 23.0082 62.4089 23.5301 62.4089 24.1742V25.6047C62.4089 25.7289 62.4056 25.8523 62.4043 25.9758L62.4017 25.9764ZM65.905 24.1748C65.905 21.6031 63.812 19.5095 61.2403 19.5095H12.4475V18.1168C12.4475 18.0129 12.452 17.8908 12.4625 17.7314C12.6604 14.6789 15.2145 12.2854 18.2782 12.2854H33.3566C35.929 12.2854 38.022 10.1925 38.022 7.62075V5.28873C38.022 2.71632 35.929 0.624023 33.3566 0.624023H18.2782C12.6206 0.624023 7.28306 3.38979 3.99994 8.02378C2.10297 10.7007 1.00162 13.8427 0.814802 17.1102L0.808925 17.2101V17.3094L0.807617 25.5962C0.807617 25.9026 0.81154 26.2345 0.819379 26.6107C0.913443 30.8502 1.59606 35.0484 2.84895 39.0906C3.01552 39.6282 3.19451 40.1684 3.38068 40.6982C3.89738 42.1693 4.50032 43.6364 5.17314 45.0585C5.59382 45.9475 6.04258 46.8229 6.50702 47.6596C7.21316 48.9328 7.9892 50.1837 8.81226 51.3772C14.2687 59.291 22.08 65.2262 31.4015 68.5414C32.0306 68.7648 32.6884 68.8784 33.356 68.8784C34.0236 68.8784 34.6807 68.7648 35.3104 68.5414C44.6392 65.2236 52.4544 59.2832 57.9108 51.3621C58.7286 50.1746 59.5014 48.9289 60.2062 47.659C60.5119 47.1083 60.8091 46.5413 61.0959 45.9665C61.1371 45.8842 61.1795 45.8025 61.22 45.7196C61.2226 45.7143 61.2252 45.7091 61.2279 45.7039C61.333 45.4896 61.4369 45.2747 61.5394 45.0585C61.546 45.0448 61.5519 45.0304 61.5584 45.0167C61.6982 44.7208 61.8334 44.4236 61.9667 44.1237C62.0111 44.0251 62.0548 43.9251 62.098 43.8259C62.2084 43.5731 62.3168 43.3196 62.422 43.0649C62.452 42.9923 62.4834 42.9205 62.5128 42.848C62.6336 42.5527 62.7505 42.2555 62.8655 41.9576C62.9119 41.8374 62.957 41.7173 63.0027 41.5964C63.0896 41.3658 63.1738 41.1339 63.2568 40.902C63.281 40.8341 63.3077 40.7662 63.3313 40.6982C63.3404 40.6727 63.3489 40.6459 63.358 40.6205C63.3881 40.5336 63.4175 40.4467 63.4469 40.3592C63.5044 40.192 63.5618 40.0254 63.6174 39.8568C63.6566 39.738 63.6938 39.6184 63.7317 39.4995C63.7754 39.363 63.8205 39.2271 63.863 39.0906C63.8708 39.0651 63.878 39.0397 63.8858 39.0142C63.9401 38.8391 63.993 38.6614 64.0459 38.4812C64.0812 38.3629 64.1151 38.2447 64.1484 38.1271C64.1641 38.0722 64.1791 38.0174 64.1948 37.9618C64.4045 37.2165 64.5959 36.4653 64.7677 35.7108C64.7677 35.7095 64.7684 35.7076 64.7684 35.7056C65.4458 32.7249 65.824 29.6789 65.8919 26.6114C65.8958 26.4565 65.8978 26.3122 65.8997 26.1711C65.9004 26.1247 65.901 26.0783 65.9017 26.0326C65.9017 26.015 65.9024 25.9954 65.9024 25.9777C65.903 25.853 65.9043 25.7289 65.9043 25.6093V24.1761L65.905 24.1748ZM190.019 63.0438H192.608V63.5076H190.019V63.0438ZM191.313 65.1942C190.97 65.1942 190.67 65.1178 190.413 64.9656C190.157 64.8127 189.958 64.6004 189.815 64.3267C189.673 64.0537 189.601 63.7336 189.601 63.3678C189.601 62.985 189.671 62.6538 189.812 62.3736C189.952 62.0934 190.148 61.8771 190.4 61.7243C190.652 61.5721 190.948 61.4963 191.287 61.4963C191.639 61.4963 191.94 61.5773 192.187 61.7393C192.435 61.902 192.621 62.1332 192.745 62.4337C192.87 62.7342 192.924 63.0921 192.906 63.5076H192.322V63.2999C192.316 62.8694 192.228 62.548 192.059 62.3351C191.89 62.1221 191.639 62.0156 191.306 62.0156C190.95 62.0156 190.678 62.1306 190.492 62.3599C190.306 62.5892 190.213 62.9177 190.213 63.3456C190.213 63.7591 190.306 64.0792 190.492 64.3058C190.678 64.5332 190.942 64.6462 191.287 64.6462C191.518 64.6462 191.719 64.5933 191.89 64.4874C192.061 64.381 192.195 64.2294 192.292 64.0295L192.847 64.2209C192.711 64.5305 192.506 64.7703 192.233 64.9395C191.959 65.1093 191.652 65.1942 191.313 65.1942H191.313ZM188.245 60.3283H188.823V65.0969H188.245V60.3283ZM185.614 64.7108C185.822 64.7108 186.001 64.6736 186.154 64.5991C186.306 64.5247 186.429 64.426 186.522 64.3039C186.615 64.1817 186.676 64.0485 186.704 63.9035C186.734 63.7957 186.751 63.6755 186.756 63.5435C186.76 63.4116 186.762 63.309 186.762 63.2352L186.964 63.3227C186.775 63.3508 186.59 63.3769 186.407 63.4005C186.224 63.424 186.052 63.4488 185.892 63.4749C185.731 63.5004 185.585 63.5324 185.455 63.569C185.36 63.599 185.271 63.6389 185.188 63.6872C185.105 63.7356 185.037 63.797 184.986 63.8721C184.935 63.9466 184.91 64.0387 184.91 64.1465C184.91 64.2412 184.934 64.3326 184.983 64.4188C185.031 64.5057 185.107 64.5756 185.21 64.6298C185.313 64.6841 185.447 64.7108 185.614 64.7108ZM185.527 65.1942C185.265 65.1942 185.046 65.1459 184.87 65.0499C184.694 64.9538 184.56 64.8265 184.471 64.669C184.381 64.511 184.336 64.3379 184.336 64.1497C184.336 63.9655 184.371 63.8068 184.44 63.6729C184.509 63.539 184.608 63.4259 184.737 63.3358C184.865 63.245 185.019 63.1738 185.196 63.1215C185.363 63.0765 185.549 63.0366 185.754 63.0033C185.959 62.9693 186.168 62.9386 186.38 62.9105C186.592 62.8825 186.791 62.8557 186.976 62.8295L186.769 62.9497C186.774 62.6401 186.711 62.4108 186.581 62.2606C186.451 62.1097 186.227 62.0352 185.907 62.0352C185.694 62.0352 185.509 62.0836 185.35 62.1809C185.191 62.2782 185.079 62.4337 185.014 62.6479L184.466 62.482C184.551 62.175 184.714 61.934 184.956 61.7589C185.199 61.5838 185.517 61.4963 185.913 61.4963C186.231 61.4963 186.504 61.5531 186.732 61.6662C186.961 61.7798 187.124 61.951 187.224 62.1802C187.274 62.288 187.305 62.4056 187.318 62.5323C187.331 62.6584 187.338 62.791 187.338 62.9295V65.0962H186.826V64.2562L186.946 64.3339C186.814 64.6194 186.629 64.8343 186.391 64.978C186.153 65.1217 185.866 65.1936 185.528 65.1936L185.527 65.1942ZM182.368 65.1942C182.013 65.1942 181.712 65.1152 181.464 64.9558C181.217 64.7971 181.027 64.5776 180.896 64.2986C180.766 64.0197 180.699 63.7023 180.697 63.3449C180.7 62.9817 180.768 62.661 180.902 62.3834C181.036 62.1051 181.226 61.8882 181.476 61.7315C181.725 61.5747 182.024 61.4963 182.374 61.4963C182.744 61.4963 183.063 61.5871 183.329 61.7687C183.596 61.9503 183.775 62.1992 183.866 62.5147L183.295 62.6865C183.219 62.4833 183.098 62.3252 182.933 62.2129C182.767 62.1005 182.579 62.0444 182.368 62.0444C182.128 62.0444 181.929 62.0999 181.774 62.2116C181.618 62.3226 181.502 62.4768 181.427 62.6721C181.351 62.8681 181.313 63.0921 181.311 63.3449C181.315 63.7343 181.405 64.0485 181.581 64.2875C181.757 64.5266 182.019 64.6462 182.368 64.6462C182.596 64.6462 182.786 64.5939 182.937 64.4894C183.087 64.3842 183.202 64.2327 183.283 64.0341L183.867 64.1863C183.745 64.5129 183.556 64.7631 183.298 64.9362C183.041 65.1087 182.731 65.1955 182.368 65.1955V65.1942ZM178.773 65.191C178.356 65.191 178.014 65.0995 177.747 64.9173C177.479 64.7344 177.315 64.4789 177.255 64.1504L177.846 64.0563C177.894 64.2464 178.003 64.3973 178.174 64.509C178.344 64.6207 178.557 64.6756 178.809 64.6756C179.047 64.6756 179.235 64.6259 179.372 64.5266C179.51 64.4273 179.578 64.2921 179.578 64.1216C179.578 64.0243 179.555 63.9446 179.51 63.8832C179.465 63.8218 179.371 63.7637 179.229 63.7101C179.088 63.6559 178.875 63.5899 178.589 63.5122C178.28 63.4299 178.037 63.3449 177.86 63.2574C177.682 63.1699 177.556 63.068 177.48 62.951C177.404 62.8341 177.367 62.6911 177.367 62.5225C177.367 62.3174 177.423 62.1378 177.536 61.9843C177.648 61.8308 177.805 61.7112 178.008 61.6256C178.21 61.5401 178.446 61.4976 178.713 61.4976C178.979 61.4976 179.218 61.5401 179.427 61.6243C179.637 61.7086 179.806 61.8281 179.935 61.983C180.064 62.1371 180.14 62.3174 180.164 62.5232L179.573 62.6303C179.545 62.4441 179.454 62.2965 179.301 62.1874C179.147 62.0783 178.951 62.0202 178.713 62.0137C178.487 62.0071 178.302 62.0483 178.161 62.1371C178.019 62.226 177.948 62.3448 177.948 62.4938C177.948 62.58 177.975 62.6532 178.028 62.7126C178.081 62.7721 178.18 62.8289 178.323 62.8831C178.467 62.9367 178.676 62.9987 178.951 63.068C179.26 63.1457 179.504 63.2306 179.683 63.3227C179.861 63.4148 179.988 63.5226 180.064 63.6474C180.139 63.7715 180.177 63.925 180.177 64.1066C180.177 64.4437 180.053 64.7095 179.804 64.9029C179.555 65.0962 179.212 65.1929 178.776 65.1929L178.773 65.191ZM174.602 60.3283H175.179V65.0969H174.602V60.3283ZM171.971 64.7108C172.179 64.7108 172.359 64.6736 172.512 64.5991C172.664 64.5247 172.787 64.426 172.879 64.3039C172.972 64.1817 173.033 64.0485 173.062 63.9035C173.092 63.7957 173.109 63.6755 173.113 63.5435C173.118 63.4116 173.12 63.309 173.12 63.2352L173.321 63.3227C173.133 63.3508 172.947 63.3769 172.764 63.4005C172.582 63.424 172.41 63.4488 172.249 63.4749C172.088 63.5004 171.943 63.5324 171.813 63.569C171.717 63.599 171.628 63.6389 171.545 63.6872C171.462 63.7356 171.395 63.797 171.344 63.8721C171.293 63.9466 171.267 64.0387 171.267 64.1465C171.267 64.2412 171.291 64.3326 171.34 64.4188C171.389 64.5057 171.465 64.5756 171.568 64.6298C171.67 64.6841 171.805 64.7108 171.971 64.7108ZM171.884 65.1942C171.622 65.1942 171.403 65.1459 171.227 65.0499C171.051 64.9538 170.918 64.8265 170.828 64.669C170.739 64.511 170.694 64.3379 170.694 64.1497C170.694 63.9655 170.728 63.8068 170.798 63.6729C170.867 63.539 170.965 63.4259 171.095 63.3358C171.223 63.245 171.376 63.1738 171.553 63.1215C171.72 63.0765 171.906 63.0366 172.111 63.0033C172.316 62.9693 172.525 62.9386 172.737 62.9105C172.949 62.8825 173.148 62.8557 173.333 62.8295L173.126 62.9497C173.131 62.6401 173.068 62.4108 172.938 62.2606C172.809 62.1097 172.584 62.0352 172.264 62.0352C172.052 62.0352 171.866 62.0836 171.708 62.1809C171.549 62.2782 171.436 62.4337 171.372 62.6479L170.824 62.482C170.908 62.175 171.071 61.934 171.314 61.7589C171.556 61.5838 171.875 61.4963 172.271 61.4963C172.588 61.4963 172.861 61.5531 173.09 61.6662C173.318 61.7798 173.482 61.951 173.581 62.1802C173.631 62.288 173.662 62.4056 173.676 62.5323C173.689 62.6584 173.695 62.791 173.695 62.9295V65.0962H173.183V64.2562L173.303 64.3339C173.171 64.6194 172.987 64.8343 172.748 64.978C172.51 65.1217 172.223 65.1936 171.886 65.1936L171.884 65.1942ZM168.533 64.6658C168.763 64.6658 168.953 64.6076 169.106 64.4907C169.259 64.3738 169.372 64.2157 169.448 64.0158C169.524 63.8159 169.562 63.5912 169.562 63.343C169.562 63.0961 169.524 62.874 169.448 62.6747C169.372 62.4755 169.258 62.3181 169.104 62.2011C168.95 62.0842 168.755 62.0261 168.517 62.0261C168.29 62.0261 168.102 62.0816 167.952 62.1933C167.803 62.3043 167.691 62.4598 167.618 62.6584C167.544 62.8576 167.508 63.0856 167.508 63.343C167.508 63.5977 167.544 63.8257 167.616 64.0256C167.689 64.2255 167.801 64.3823 167.952 64.4959C168.104 64.6096 168.297 64.6664 168.533 64.6664L168.533 64.6658ZM168.605 65.1942C168.276 65.1942 167.999 65.1126 167.774 64.9493C167.55 64.786 167.379 64.5652 167.264 64.2862C167.148 64.0073 167.09 63.6931 167.09 63.3423C167.09 62.9896 167.148 62.6747 167.264 62.3965C167.379 62.1188 167.55 61.8993 167.776 61.738C168.002 61.5766 168.28 61.4963 168.609 61.4963C168.933 61.4963 169.213 61.5766 169.447 61.738C169.682 61.8987 169.861 62.1188 169.987 62.3978C170.112 62.6767 170.175 62.9915 170.175 63.3417C170.175 63.6918 170.112 64.0073 169.987 64.2875C169.861 64.5671 169.682 64.7886 169.447 64.9506C169.213 65.1126 168.932 65.1936 168.605 65.1936L168.605 65.1942ZM166.993 65.0969V60.4257H167.573V62.5179H167.508V65.0969H166.993ZM164.593 64.6462C164.954 64.6462 165.223 64.5253 165.402 64.283C165.58 64.0413 165.67 63.7271 165.67 63.3423C165.67 62.9484 165.58 62.6342 165.401 62.3984C165.221 62.1626 164.952 62.045 164.593 62.045C164.349 62.045 164.148 62.0999 163.99 62.2103C163.832 62.3207 163.714 62.4729 163.636 62.6675C163.559 62.8622 163.52 63.0869 163.52 63.3423C163.52 63.7356 163.611 64.0517 163.792 64.2895C163.974 64.5273 164.241 64.6462 164.594 64.6462H164.593ZM164.593 65.1942C164.244 65.1942 163.944 65.1152 163.692 64.9571C163.44 64.7997 163.246 64.5815 163.11 64.3032C162.974 64.0256 162.906 63.7049 162.906 63.3417C162.906 62.9765 162.975 62.6545 163.114 62.3769C163.252 62.0992 163.448 61.883 163.701 61.7282C163.954 61.5734 164.252 61.4963 164.593 61.4963C164.943 61.4963 165.245 61.5753 165.498 61.7334C165.751 61.8909 165.945 62.1084 166.08 62.3854C166.215 62.6623 166.282 62.9811 166.282 63.3423C166.282 63.7081 166.215 64.0295 166.078 64.3071C165.941 64.5854 165.747 64.8023 165.494 64.9591C165.241 65.1158 164.941 65.1942 164.593 65.1942ZM161.55 60.3283H162.127V65.0969H161.55V60.3283ZM159.039 64.6651C159.275 64.6651 159.468 64.6083 159.62 64.4946C159.771 64.381 159.883 64.2242 159.955 64.0243C160.028 63.8244 160.064 63.5964 160.064 63.3417C160.064 63.0843 160.027 62.8563 159.953 62.6571C159.88 62.4585 159.769 62.303 159.621 62.192C159.473 62.0803 159.284 62.0248 159.055 62.0248C158.817 62.0248 158.621 62.0829 158.467 62.1998C158.312 62.3168 158.197 62.4742 158.122 62.6734C158.048 62.8727 158.011 63.0954 158.011 63.3417C158.011 63.5906 158.049 63.8146 158.124 64.0145C158.199 64.2144 158.313 64.3731 158.466 64.4894C158.618 64.6063 158.81 64.6645 159.038 64.6645L159.039 64.6651ZM159.01 66.7502C158.826 66.7502 158.647 66.7221 158.471 66.6659C158.296 66.6098 158.135 66.5248 157.99 66.4112C157.843 66.2975 157.722 66.1545 157.625 65.982L158.153 65.7031C158.239 65.8742 158.363 65.9984 158.521 66.0754C158.68 66.1532 158.844 66.1924 159.012 66.1924C159.235 66.1924 159.42 66.1519 159.565 66.0709C159.712 65.9899 159.82 65.8697 159.891 65.709C159.962 65.5489 159.997 65.3497 159.995 65.1126V64.1556H160.063V61.593H160.576V65.1184C160.576 65.2158 160.573 65.3085 160.568 65.3961C160.562 65.4836 160.551 65.5705 160.533 65.6574C160.488 65.9056 160.398 66.1107 160.264 66.2721C160.13 66.4328 159.957 66.5529 159.745 66.632C159.533 66.711 159.287 66.7502 159.009 66.7502H159.01ZM158.968 65.1936C158.642 65.1936 158.361 65.1126 158.128 64.9506C157.894 64.7879 157.714 64.5671 157.587 64.2875C157.461 64.0073 157.397 63.6925 157.397 63.3417C157.397 62.9915 157.461 62.6767 157.587 62.3978C157.713 62.1188 157.894 61.8987 158.128 61.738C158.361 61.5766 158.64 61.4963 158.964 61.4963C159.296 61.4963 159.573 61.5766 159.798 61.738C160.023 61.8987 160.193 62.1188 160.309 62.3965C160.424 62.6747 160.482 62.9896 160.482 63.3423C160.482 63.6925 160.424 64.0073 160.309 64.2862C160.193 64.5652 160.023 64.7866 159.798 64.9493C159.573 65.1126 159.296 65.1942 158.968 65.1942V65.1936ZM153.729 64.7102C153.936 64.7102 154.117 64.673 154.27 64.5985C154.422 64.524 154.545 64.4254 154.637 64.3032C154.73 64.1811 154.791 64.0478 154.82 63.9028C154.85 63.795 154.867 63.6748 154.871 63.5429C154.876 63.4109 154.878 63.3084 154.878 63.2346L155.079 63.3221C154.891 63.3502 154.705 63.3763 154.522 63.3998C154.34 63.4233 154.168 63.4482 154.007 63.4743C153.846 63.4998 153.7 63.5318 153.571 63.5683C153.476 63.5984 153.386 63.6382 153.303 63.6866C153.22 63.7349 153.153 63.7963 153.102 63.8714C153.051 63.9459 153.025 64.038 153.025 64.1458C153.025 64.2405 153.049 64.332 153.098 64.4182C153.147 64.5051 153.222 64.575 153.325 64.6292C153.428 64.6834 153.562 64.7102 153.729 64.7102ZM153.642 65.1936C153.38 65.1936 153.161 65.1452 152.985 65.0492C152.809 64.9532 152.676 64.8258 152.586 64.6684C152.497 64.5103 152.452 64.3372 152.452 64.1491C152.452 63.9649 152.486 63.8061 152.556 63.6722C152.625 63.5383 152.723 63.4253 152.853 63.3351C152.981 63.2443 153.134 63.1731 153.311 63.1209C153.478 63.0758 153.664 63.036 153.869 63.0027C154.074 62.9687 154.283 62.938 154.495 62.9099C154.707 62.8818 154.906 62.855 155.091 62.8289L154.884 62.9491C154.889 62.6395 154.826 62.4102 154.696 62.2599C154.567 62.109 154.342 62.0346 154.022 62.0346C153.81 62.0346 153.624 62.0829 153.465 62.1802C153.307 62.2776 153.194 62.433 153.13 62.6473L152.582 62.4814C152.666 62.1744 152.829 61.9333 153.072 61.7583C153.314 61.5832 153.633 61.4957 154.029 61.4957C154.346 61.4957 154.619 61.5525 154.848 61.6655C155.076 61.7792 155.24 61.9503 155.339 62.1796C155.389 62.2874 155.42 62.405 155.433 62.5317C155.446 62.6577 155.453 62.7903 155.453 62.9288V65.0956H154.94V64.2555L155.061 64.3333C154.929 64.6187 154.744 64.8336 154.505 64.9774C154.268 65.1211 153.98 65.1929 153.643 65.1929L153.642 65.1936ZM149.921 65.0962V63.341C149.921 63.1771 149.906 63.0177 149.876 62.8642C149.846 62.7107 149.795 62.5722 149.724 62.4487C149.652 62.3259 149.555 62.2286 149.433 62.1574C149.311 62.0862 149.157 62.0502 148.971 62.0502C148.826 62.0502 148.695 62.0751 148.577 62.1247C148.459 62.175 148.358 62.2488 148.274 62.3468C148.189 62.4454 148.123 62.5696 148.077 62.7198C148.031 62.87 148.007 63.0471 148.007 63.2502L147.628 63.1333C147.628 62.7956 147.689 62.5049 147.811 62.2606C147.933 62.0163 148.105 61.8288 148.327 61.6982C148.548 61.5669 148.809 61.5015 149.11 61.5015C149.336 61.5015 149.53 61.5375 149.69 61.6087C149.851 61.6799 149.984 61.7752 150.09 61.8941C150.195 62.013 150.278 62.145 150.339 62.29C150.4 62.435 150.442 62.5833 150.468 62.7348C150.493 62.8864 150.505 63.0281 150.505 63.1601V65.0962H149.921ZM147.423 65.0962V61.593H147.942V62.5304H148.008V65.0962H147.424H147.423ZM145.023 64.6455C145.384 64.6455 145.654 64.5247 145.833 64.2823C146.011 64.0406 146.1 63.7264 146.1 63.3417C146.1 62.9478 146.01 62.6336 145.831 62.3978C145.652 62.1619 145.382 62.0444 145.024 62.0444C144.78 62.0444 144.578 62.0992 144.42 62.2096C144.262 62.32 144.145 62.4722 144.067 62.6669C143.989 62.8615 143.95 63.0863 143.95 63.3417C143.95 63.7349 144.041 64.0511 144.222 64.2889C144.404 64.5266 144.671 64.6455 145.024 64.6455H145.023ZM145.023 65.1936C144.675 65.1936 144.375 65.1145 144.123 64.9565C143.871 64.799 143.677 64.5808 143.541 64.3026C143.404 64.0249 143.337 63.7042 143.337 63.341C143.337 62.9759 143.406 62.6538 143.544 62.3762C143.683 62.0986 143.879 61.8824 144.132 61.7276C144.384 61.5727 144.682 61.4957 145.023 61.4957C145.373 61.4957 145.675 61.5747 145.928 61.7328C146.181 61.8902 146.375 62.1077 146.51 62.3847C146.645 62.6617 146.712 62.9804 146.712 63.3417C146.712 63.7075 146.644 64.0289 146.508 64.3065C146.371 64.5848 146.177 64.8016 145.924 64.9584C145.671 65.1152 145.37 65.1936 145.023 65.1936H145.023ZM139.23 66.6529L139.908 64.8108L139.918 65.3556L138.387 61.593H138.994L140.194 64.6194H139.986L141.111 61.593H141.698L139.791 66.6529H139.23ZM138.128 65.0962C137.92 65.1394 137.716 65.157 137.513 65.1498C137.311 65.142 137.13 65.1008 136.971 65.0264C136.813 64.9519 136.693 64.8349 136.613 64.6749C136.544 64.5364 136.506 64.3966 136.501 64.2549C136.496 64.1131 136.493 63.9531 136.493 63.7735V60.6203H137.071V63.7473C137.071 63.8897 137.072 64.0125 137.075 64.1138C137.079 64.2157 137.101 64.3026 137.142 64.3764C137.22 64.5149 137.344 64.5959 137.513 64.62C137.683 64.6436 137.888 64.637 138.128 64.6004V65.0969V65.0962ZM135.783 61.593H138.128V62.0698H135.783V61.593ZM134.622 61.593H135.199V65.0962H134.622V61.593ZM134.622 60.3767H135.199V60.9737H134.622V60.3767ZM132.134 65.0962V61.593H132.65V62.4396L132.565 62.3292C132.606 62.2214 132.66 62.1221 132.726 62.0306C132.792 61.9398 132.865 61.8654 132.948 61.8072C133.038 61.7334 133.141 61.6779 133.256 61.64C133.371 61.6021 133.487 61.5799 133.606 61.5721C133.725 61.5642 133.837 61.5714 133.941 61.593V62.1345C133.819 62.1045 133.686 62.0966 133.541 62.1116C133.397 62.1273 133.262 62.1789 133.14 62.2671C133.027 62.3501 132.94 62.4474 132.878 62.5611C132.817 62.6747 132.774 62.7975 132.75 62.9308C132.726 63.064 132.714 63.1999 132.714 63.3384V65.0962H132.134ZM130.71 65.0962V64.1589H130.645V61.593H131.226V65.0962H130.71ZM129.542 65.187C129.315 65.187 129.121 65.1511 128.961 65.0799C128.801 65.0087 128.668 64.9133 128.562 64.7944C128.456 64.6756 128.372 64.5436 128.312 64.3986C128.252 64.2536 128.209 64.1053 128.184 63.9544C128.159 63.8028 128.147 63.6611 128.147 63.5292V61.593H128.73V63.3476C128.73 63.5122 128.745 63.6709 128.775 63.8244C128.806 63.9779 128.857 64.1164 128.93 64.2392C129.002 64.362 129.099 64.4593 129.222 64.5312C129.344 64.6024 129.497 64.6383 129.681 64.6383C129.826 64.6383 129.957 64.6135 130.075 64.5639C130.193 64.5142 130.294 64.4404 130.378 64.3418C130.463 64.2431 130.529 64.119 130.575 63.9668C130.621 63.8159 130.645 63.6389 130.645 63.4384L131.025 63.5553C131.025 63.8923 130.964 64.183 130.841 64.428C130.719 64.6716 130.547 64.8598 130.326 64.9904C130.104 65.1211 129.843 65.187 129.542 65.187H129.542ZM126.048 65.1936C125.694 65.1936 125.392 65.1145 125.145 64.9551C124.897 64.7964 124.708 64.5769 124.577 64.298C124.446 64.0191 124.379 63.7016 124.377 63.3443C124.379 62.9811 124.448 62.6604 124.582 62.3827C124.716 62.1045 124.906 61.8876 125.156 61.7308C125.405 61.574 125.704 61.4957 126.054 61.4957C126.424 61.4957 126.743 61.5864 127.009 61.768C127.276 61.9496 127.455 62.1985 127.546 62.514L126.975 62.6858C126.899 62.4827 126.779 62.3246 126.613 62.2122C126.447 62.0999 126.259 62.0437 126.048 62.0437C125.808 62.0437 125.609 62.0992 125.454 62.2109C125.298 62.322 125.182 62.4761 125.107 62.6715C125.031 62.8674 124.993 63.0915 124.991 63.3443C124.995 63.7336 125.085 64.0478 125.261 64.2869C125.437 64.526 125.699 64.6455 126.048 64.6455C126.276 64.6455 126.466 64.5933 126.617 64.4887C126.767 64.3836 126.882 64.232 126.963 64.0334L127.547 64.1856C127.425 64.5123 127.236 64.7624 126.978 64.9355C126.721 65.108 126.411 65.1949 126.048 65.1949L126.048 65.1936ZM120.965 63.0431H123.554V63.5069H120.965V63.0431ZM122.26 65.1936C121.915 65.1936 121.616 65.1171 121.359 64.965C121.103 64.8121 120.904 64.5998 120.761 64.3261C120.619 64.053 120.547 63.7329 120.547 63.3671C120.547 62.9844 120.617 62.6532 120.758 62.3729C120.898 62.0927 121.094 61.8765 121.346 61.7236C121.598 61.5714 121.894 61.4957 122.233 61.4957C122.585 61.4957 122.886 61.5767 123.134 61.7387C123.381 61.9013 123.567 62.1326 123.691 62.433C123.816 62.7335 123.87 63.0915 123.852 63.5069H123.268V63.2992C123.262 62.8687 123.174 62.5474 123.005 62.3344C122.836 62.1214 122.585 62.015 122.252 62.015C121.896 62.015 121.624 62.1299 121.438 62.3592C121.252 62.5885 121.159 62.9171 121.159 63.3449C121.159 63.7584 121.252 64.0785 121.438 64.3052C121.624 64.5325 121.888 64.6455 122.233 64.6455C122.464 64.6455 122.665 64.5926 122.836 64.4868C123.007 64.3803 123.141 64.2288 123.238 64.0289L123.793 64.2203C123.657 64.5299 123.452 64.7696 123.178 64.9388C122.904 65.1087 122.598 65.1936 122.258 65.1936H122.26ZM118.624 65.1903C118.206 65.1903 117.864 65.0989 117.597 64.9166C117.33 64.7337 117.166 64.4783 117.106 64.1497L117.696 64.0556C117.744 64.2457 117.853 64.3966 118.024 64.5083C118.194 64.62 118.407 64.6749 118.66 64.6749C118.897 64.6749 119.085 64.6253 119.223 64.526C119.36 64.4267 119.428 64.2915 119.428 64.121C119.428 64.0236 119.406 63.944 119.361 63.8825C119.315 63.8211 119.221 63.763 119.08 63.7094C118.938 63.6552 118.724 63.5893 118.439 63.5115C118.13 63.4292 117.887 63.3443 117.709 63.2568C117.531 63.1692 117.405 63.0673 117.33 62.9504C117.254 62.8335 117.216 62.6904 117.216 62.5219C117.216 62.3168 117.272 62.1371 117.384 61.9836C117.497 61.8301 117.654 61.7106 117.857 61.625C118.059 61.5394 118.294 61.497 118.562 61.497C118.828 61.497 119.067 61.5394 119.276 61.6237C119.486 61.708 119.655 61.8275 119.784 61.9823C119.912 62.1365 119.989 62.3168 120.012 62.5225L119.422 62.6297C119.394 62.4435 119.303 62.2959 119.15 62.1868C118.996 62.0777 118.801 62.0195 118.562 62.013C118.336 62.0065 118.151 62.0476 118.01 62.1365C117.868 62.2253 117.797 62.3442 117.797 62.4931C117.797 62.5794 117.823 62.6525 117.876 62.712C117.929 62.7714 118.028 62.8282 118.172 62.8825C118.315 62.936 118.524 62.9981 118.799 63.0673C119.108 63.1451 119.352 63.23 119.53 63.3221C119.709 63.4142 119.836 63.522 119.912 63.6467C119.988 63.7708 120.025 63.9243 120.025 64.1059C120.025 64.443 119.901 64.7089 119.652 64.9022C119.404 65.0956 119.061 65.1923 118.624 65.1923L118.624 65.1903ZM113.557 64.6651C113.792 64.6651 113.986 64.6083 114.137 64.4946C114.289 64.381 114.401 64.2242 114.473 64.0243C114.546 63.8244 114.582 63.5964 114.582 63.3417C114.582 63.0843 114.545 62.8563 114.471 62.6571C114.398 62.4585 114.287 62.303 114.139 62.192C113.99 62.0803 113.802 62.0248 113.573 62.0248C113.335 62.0248 113.139 62.0829 112.984 62.1998C112.83 62.3168 112.715 62.4742 112.64 62.6734C112.566 62.8727 112.528 63.0954 112.528 63.3417C112.528 63.5906 112.566 63.8146 112.641 64.0145C112.717 64.2144 112.831 64.3731 112.984 64.4894C113.136 64.6063 113.327 64.6645 113.556 64.6645L113.557 64.6651ZM113.528 66.7502C113.344 66.7502 113.165 66.7221 112.99 66.6659C112.815 66.6098 112.654 66.5248 112.508 66.4112C112.362 66.2975 112.24 66.1545 112.143 65.982L112.671 65.7031C112.758 65.8742 112.88 65.9984 113.039 66.0754C113.198 66.1532 113.362 66.1924 113.53 66.1924C113.753 66.1924 113.937 66.1519 114.083 66.0709C114.229 65.9899 114.337 65.8697 114.409 65.709C114.48 65.5489 114.515 65.3497 114.513 65.1126V64.1556H114.581V61.593H115.094V65.1184C115.094 65.2158 115.091 65.3085 115.086 65.3961C115.08 65.4836 115.069 65.5705 115.052 65.6574C115.007 65.9056 114.917 66.1107 114.783 66.2721C114.648 66.4328 114.475 66.5529 114.263 66.632C114.051 66.711 113.806 66.7502 113.527 66.7502H113.528ZM113.486 65.1936C113.159 65.1936 112.88 65.1126 112.646 64.9506C112.412 64.7879 112.232 64.5671 112.106 64.2875C111.979 64.0073 111.916 63.6925 111.916 63.3417C111.916 62.9915 111.979 62.6767 112.106 62.3978C112.232 62.1188 112.412 61.8987 112.646 61.738C112.88 61.5766 113.158 61.4963 113.483 61.4963C113.813 61.4963 114.092 61.5766 114.316 61.738C114.541 61.8987 114.711 62.1188 114.827 62.3965C114.943 62.6747 115.001 62.9896 115.001 63.3423C115.001 63.6925 114.943 64.0073 114.827 64.2862C114.711 64.5652 114.541 64.7866 114.316 64.9493C114.092 65.1126 113.815 65.1942 113.486 65.1942V65.1936ZM110.684 65.0962V63.341C110.684 63.1771 110.669 63.0177 110.639 62.8642C110.609 62.7107 110.557 62.5722 110.486 62.4487C110.415 62.3259 110.318 62.2286 110.195 62.1574C110.073 62.0862 109.919 62.0502 109.733 62.0502C109.588 62.0502 109.456 62.0751 109.339 62.1247C109.221 62.175 109.12 62.2488 109.036 62.3468C108.951 62.4454 108.885 62.5696 108.839 62.7198C108.793 62.87 108.769 63.0471 108.769 63.2502L108.39 63.1333C108.39 62.7956 108.451 62.5049 108.573 62.2606C108.695 62.0163 108.867 61.8288 109.089 61.6982C109.31 61.5669 109.571 61.5015 109.872 61.5015C110.099 61.5015 110.292 61.5375 110.452 61.6087C110.612 61.6799 110.746 61.7752 110.852 61.8941C110.957 62.013 111.04 62.145 111.101 62.29C111.162 62.435 111.204 62.5833 111.229 62.7348C111.254 62.8864 111.266 63.0281 111.266 63.1601V65.0962H110.682H110.684ZM108.186 65.0962V61.593H108.706V62.5304H108.77V65.0962H108.186ZM106.64 61.593H107.217V65.0962H106.64V61.593ZM106.64 60.3767H107.217V60.9737H106.64V60.3767ZM105.147 65.0962V63.341C105.147 63.1771 105.132 63.0177 105.102 62.8642C105.072 62.7107 105.021 62.5722 104.949 62.4487C104.878 62.3259 104.781 62.2286 104.658 62.1574C104.536 62.0862 104.382 62.0502 104.196 62.0502C104.051 62.0502 103.92 62.0751 103.802 62.1247C103.684 62.175 103.583 62.2488 103.499 62.3468C103.414 62.4454 103.349 62.5696 103.302 62.7198C103.256 62.87 103.232 63.0471 103.232 63.2502L102.853 63.1333C102.853 62.7956 102.914 62.5049 103.036 62.2606C103.159 62.0163 103.33 61.8288 103.552 61.6982C103.773 61.5669 104.034 61.5015 104.335 61.5015C104.562 61.5015 104.756 61.5375 104.916 61.6087C105.076 61.6799 105.209 61.7752 105.315 61.8941C105.421 62.013 105.504 62.145 105.564 62.29C105.625 62.435 105.668 62.5833 105.693 62.7348C105.718 62.8864 105.73 63.0281 105.73 63.1601V65.0962H105.146H105.147ZM102.649 65.0962V61.593H103.168V62.5304H103.234V65.0962H102.65H102.649ZM99.1431 63.0431H101.732V63.5069H99.1431V63.0431ZM100.437 65.1936C100.093 65.1936 99.7931 65.1171 99.537 64.965C99.2809 64.8121 99.0817 64.5998 98.9387 64.3261C98.7956 64.053 98.7244 63.7329 98.7244 63.3671C98.7244 62.9844 98.7943 62.6532 98.9354 62.3729C99.0752 62.0927 99.2718 61.8765 99.5239 61.7236C99.7754 61.5714 100.071 61.4957 100.411 61.4957C100.763 61.4957 101.064 61.5767 101.311 61.7387C101.559 61.9013 101.745 62.1326 101.869 62.433C101.994 62.7335 102.047 63.0915 102.03 63.5069H101.446V63.2992C101.439 62.8687 101.352 62.5474 101.183 62.3344C101.014 62.1214 100.763 62.015 100.43 62.015C100.073 62.015 99.8022 62.1299 99.6154 62.3592C99.4299 62.5885 99.3365 62.9171 99.3365 63.3449C99.3365 63.7584 99.4292 64.0785 99.6154 64.3052C99.8016 64.5325 100.067 64.6455 100.41 64.6455C100.642 64.6455 100.843 64.5926 101.014 64.4868C101.184 64.3803 101.318 64.2288 101.416 64.0289L101.97 64.2203C101.834 64.5299 101.629 64.7696 101.356 64.9388C101.082 65.1087 100.776 65.1936 100.437 65.1936H100.437ZM98.3024 65.0962C98.0947 65.1394 97.8902 65.157 97.6877 65.1498C97.4852 65.142 97.3049 65.1008 97.1462 65.0264C96.9875 64.9519 96.8679 64.8349 96.7876 64.6749C96.7183 64.5364 96.6811 64.3966 96.6752 64.2549C96.67 64.1131 96.6667 63.9531 96.6667 63.7735V60.6203H97.2442V63.7473C97.2442 63.8897 97.2462 64.0125 97.2494 64.1138C97.2527 64.2157 97.2749 64.3026 97.316 64.3764C97.3938 64.5149 97.5179 64.5959 97.6877 64.62C97.8576 64.6436 98.062 64.637 98.3024 64.6004V65.0969V65.0962ZM95.9573 61.593H98.3024V62.0698H95.9573V61.593ZM94.9193 65.0962V63.341C94.9193 63.1771 94.9043 63.0177 94.8743 62.8642C94.8442 62.7107 94.7933 62.5722 94.7214 62.4487C94.6502 62.3259 94.5536 62.2286 94.4314 62.1574C94.3092 62.0862 94.1551 62.0502 93.9696 62.0502C93.8245 62.0502 93.6933 62.0751 93.5757 62.1247C93.4581 62.175 93.3568 62.2488 93.2726 62.3468C93.1883 62.4454 93.1223 62.5696 93.076 62.7198C93.0296 62.87 93.0061 63.0471 93.0061 63.2502L92.6265 63.1333C92.6265 62.7956 92.6879 62.5049 92.8101 62.2606C92.9322 62.0163 93.1047 61.8288 93.3261 61.6982C93.5476 61.5669 93.8082 61.5015 94.1094 61.5015C94.336 61.5015 94.53 61.5375 94.6901 61.6087C94.8501 61.6799 94.9834 61.7752 95.0885 61.8941C95.195 62.013 95.278 62.145 95.3387 62.29C95.3988 62.435 95.4419 62.5833 95.4668 62.7348C95.4916 62.8864 95.504 63.0281 95.504 63.1601V65.0962H94.92H94.9193ZM92.4214 65.0962V60.425H92.9407V63.004H93.0061V65.0962H92.4221H92.4214ZM89.979 64.6651C90.2148 64.6651 90.4082 64.6083 90.5597 64.4946C90.7113 64.381 90.823 64.2242 90.8948 64.0243C90.9673 63.8244 91.0039 63.5964 91.0039 63.3417C91.0039 63.0843 90.9667 62.8563 90.8935 62.6571C90.8204 62.4585 90.7093 62.303 90.5617 62.192C90.4134 62.0803 90.2246 62.0248 89.9953 62.0248C89.7576 62.0248 89.5609 62.0829 89.4068 62.1998C89.252 62.3168 89.1376 62.4742 89.0632 62.6734C88.9887 62.8727 88.9515 63.0954 88.9515 63.3417C88.9515 63.5906 88.9894 63.8146 89.0651 64.0145C89.1409 64.2144 89.2546 64.3731 89.4074 64.4894C89.5596 64.6063 89.751 64.6645 89.9803 64.6645L89.979 64.6651ZM89.9496 66.7502C89.7661 66.7502 89.5864 66.7221 89.4114 66.6659C89.2363 66.6098 89.0756 66.5248 88.9299 66.4112C88.7836 66.2975 88.6621 66.1545 88.5654 65.982L89.0939 65.7031C89.1808 65.8742 89.3029 65.9984 89.4623 66.0754C89.621 66.1532 89.785 66.1924 89.9535 66.1924C90.1763 66.1924 90.3611 66.1519 90.5068 66.0709C90.6525 65.9899 90.7616 65.8697 90.8328 65.709C90.904 65.5489 90.9386 65.3497 90.9366 65.1126V64.1556H91.0046V61.593H91.5167V65.1184C91.5167 65.2158 91.5141 65.3085 91.5089 65.3961C91.5036 65.4836 91.4919 65.5705 91.4749 65.6574C91.4298 65.9056 91.3397 66.1107 91.2058 66.2721C91.0719 66.4328 90.8987 66.5529 90.6871 66.632C90.4748 66.711 90.2298 66.7502 89.9509 66.7502H89.9496ZM89.9078 65.1936C89.5818 65.1936 89.301 65.1126 89.0678 64.9506C88.8346 64.7879 88.6543 64.5671 88.5282 64.2875C88.4015 64.0073 88.3381 63.6925 88.3381 63.3417C88.3381 62.9915 88.4015 62.6767 88.5282 62.3978C88.6543 62.1188 88.8346 61.8987 89.0678 61.738C89.3016 61.5766 89.5805 61.4963 89.9045 61.4963C90.2357 61.4963 90.5133 61.5766 90.738 61.738C90.9628 61.8987 91.1339 62.1188 91.2495 62.3965C91.3652 62.6747 91.4226 62.9896 91.4226 63.3423C91.4226 63.6925 91.3645 64.0073 91.2495 64.2862C91.1339 64.5652 90.9634 64.7866 90.738 64.9493C90.5133 65.1126 90.2364 65.1942 89.9078 65.1942V65.1936ZM87.1055 65.0962V63.341C87.1055 63.1771 87.0904 63.0177 87.0597 62.8642C87.0297 62.7107 86.9787 62.5722 86.9075 62.4487C86.8357 62.3259 86.739 62.2286 86.6168 62.1574C86.4947 62.0862 86.3405 62.0502 86.155 62.0502C86.01 62.0502 85.8787 62.0751 85.7605 62.1247C85.6429 62.175 85.5416 62.2488 85.4574 62.3468C85.3731 62.4454 85.3078 62.5696 85.2607 62.7198C85.2144 62.87 85.1915 63.0471 85.1915 63.2502L84.812 63.1333C84.812 62.7956 84.8727 62.5049 84.9955 62.2606C85.1177 62.0163 85.2895 61.8288 85.5116 61.6982C85.733 61.5669 85.9937 61.5015 86.2948 61.5015C86.5215 61.5015 86.7155 61.5375 86.8749 61.6087C87.0349 61.6799 87.1682 61.7752 87.274 61.8941C87.3798 62.013 87.4628 62.145 87.5235 62.29C87.5843 62.435 87.6267 62.5833 87.6516 62.7348C87.6764 62.8864 87.6888 63.0281 87.6888 63.1601V65.0962H87.1048H87.1055ZM84.6075 65.0962V61.593H85.1268V62.5304H85.1922V65.0962H84.6082H84.6075ZM81.101 63.0431H83.6897V63.5069H81.101V63.0431ZM82.395 65.1936C82.0508 65.1936 81.7509 65.1171 81.4949 64.965C81.2388 64.8121 81.0389 64.5998 80.8965 64.3261C80.7541 64.053 80.6823 63.7329 80.6823 63.3671C80.6823 62.9844 80.7528 62.6532 80.8926 62.3729C81.0331 62.0927 81.2297 61.8765 81.4812 61.7236C81.7333 61.5714 82.0286 61.4957 82.3683 61.4957C82.7203 61.4957 83.0208 61.5767 83.2684 61.7387C83.516 61.9013 83.7021 62.1326 83.8263 62.433C83.9504 62.7335 84.0046 63.0915 83.987 63.5069H83.403V63.2992C83.3964 62.8687 83.3089 62.5474 83.1404 62.3344C82.9718 62.1214 82.7203 62.015 82.3879 62.015C82.0312 62.015 81.7601 62.1299 81.5739 62.3592C81.3877 62.5885 81.295 62.9171 81.295 63.3449C81.295 63.7584 81.3877 64.0785 81.5739 64.3052C81.7601 64.5325 82.0247 64.6455 82.3683 64.6455C82.5995 64.6455 82.8007 64.5926 82.9718 64.4868C83.143 64.3803 83.2762 64.2288 83.3742 64.0289L83.9288 64.2203C83.7923 64.5299 83.5872 64.7696 83.3135 64.9388C83.0404 65.1087 82.7334 65.1936 82.3944 65.1936H82.395ZM78.5188 65.0962V61.593H79.0342V62.4396L78.9499 62.3292C78.9911 62.2214 79.0446 62.1221 79.1106 62.0306C79.1766 61.9398 79.2504 61.8654 79.3327 61.8072C79.4235 61.7334 79.5261 61.6779 79.6404 61.64C79.7553 61.6021 79.8716 61.5799 79.9905 61.5721C80.1094 61.5642 80.2211 61.5714 80.3243 61.593V62.1345C80.2035 62.1045 80.0702 62.0966 79.9252 62.1116C79.7802 62.1273 79.6463 62.1789 79.5228 62.2671C79.4111 62.3501 79.3236 62.4474 79.2615 62.5611C79.2001 62.6747 79.157 62.7975 79.1335 62.9308C79.1093 63.064 79.0975 63.1999 79.0975 63.3384V65.0962H78.5168H78.5188ZM77.8055 65.0962C77.5977 65.1394 77.3926 65.157 77.1908 65.1498C76.9883 65.142 76.808 65.1008 76.6486 65.0264C76.4899 64.9519 76.3703 64.8349 76.29 64.6749C76.2207 64.5364 76.1835 64.3966 76.1776 64.2549C76.1724 64.1131 76.1698 63.9531 76.1698 63.7735V60.6203H76.7472V63.7473C76.7472 63.8897 76.7492 64.0125 76.7525 64.1138C76.7557 64.2157 76.7773 64.3026 76.8191 64.3764C76.8968 64.5149 77.0209 64.5959 77.1908 64.62C77.36 64.6436 77.5651 64.637 77.8055 64.6004V65.0969V65.0962ZM75.4604 61.593H77.8055V62.0698H75.4604V61.593Z" fill="#FF7955"/>
</svg>
