<svg width="43" height="49" viewBox="0 0 43 49" fill="none" xmlns="http://www.w3.org/2000/svg">
<path d="M1.95003 34.2012H4.66776V27.7533C1.78065 24.8089 0 20.7744 0 16.3249C0 11.8169 1.82741 7.73562 4.78152 4.78152C7.73562 1.82741 11.8173 0 16.3249 0C20.8325 0 24.9142 1.82741 27.8683 4.78152C30.8224 7.73562 32.6498 11.8173 32.6498 16.3249C32.6498 20.7744 30.8692 24.8084 27.9821 27.7533V34.2012H31.5V34.532C33.6236 32.2289 35.3242 29.5967 36.549 26.7576C37.5953 24.3315 38.2934 21.7549 38.6099 19.1037C38.1637 18.9504 37.7638 18.6971 37.4372 18.3706L37.4343 18.3676C36.8794 17.8127 36.536 17.0467 36.536 16.2027C36.536 15.3583 36.8794 14.5927 37.4343 14.0378L37.4372 14.0349C37.9922 13.4799 38.7582 13.1365 39.6022 13.1365C40.4466 13.1365 41.2122 13.4799 41.7671 14.0349L41.77 14.0378C42.3249 14.5927 42.6684 15.3583 42.6684 16.2027C42.6684 17.0471 42.3249 17.8127 41.77 18.3676L41.7671 18.3706C41.3487 18.789 40.8102 19.0873 40.2081 19.2087C39.8781 22.0414 39.1357 24.7962 38.0174 27.3888C36.5048 30.8953 34.3024 34.1069 31.5 36.8153V48.7223H1.14987V34.2017H1.95003V34.2012ZM40.6404 15.1641C40.3753 14.8999 40.0084 14.7364 39.6022 14.7364C39.196 14.7364 38.8285 14.8999 38.5635 15.1641C38.2993 15.4291 38.1358 15.7961 38.1358 16.2023C38.1358 16.6085 38.2993 16.9759 38.5635 17.2409C38.8285 17.5051 39.1956 17.6686 39.6022 17.6686C40.0084 17.6686 40.3753 17.5051 40.6404 17.2409C40.9046 16.9759 41.0681 16.6089 41.0681 16.2023C41.0681 15.7961 40.9046 15.4291 40.6404 15.1641ZM18.6146 37.4532L17.3273 41.4616H19.3317L14.0357 45.4699L15.3234 41.4616H13.319L18.615 37.4532H18.6146ZM16.3249 13.2587C17.1693 13.2587 17.9349 13.6021 18.4898 14.157L18.4928 14.16C19.0477 14.7149 19.3911 15.4805 19.3911 16.3249C19.3911 17.1693 19.0477 17.9349 18.4928 18.4898L18.4898 18.4928C17.9349 19.0477 17.1693 19.3911 16.3249 19.3911C15.4805 19.3911 14.7149 19.0477 14.16 18.4928L14.1571 18.4898C13.6021 17.9349 13.2587 17.1693 13.2587 16.3249C13.2587 15.4805 13.6021 14.7149 14.1571 14.16L14.16 14.157C14.7149 13.6021 15.4809 13.2587 16.3249 13.2587ZM17.3631 15.2867C17.0981 15.0225 16.7311 14.859 16.3249 14.859C15.9187 14.859 15.5513 15.0225 15.2863 15.2867C15.0221 15.5517 14.8586 15.9187 14.8586 16.3253C14.8586 16.7315 15.0221 17.0985 15.2863 17.3635C15.5513 17.6277 15.9183 17.7912 16.3249 17.7912C16.7311 17.7912 17.0981 17.6277 17.3631 17.3635C17.6273 17.0985 17.7908 16.7315 17.7908 16.3253C17.7908 15.9191 17.6273 15.5517 17.3631 15.2867ZM6.26763 29.185V34.2012H26.3822V29.1846C23.6101 31.3554 20.1188 32.6498 16.3249 32.6498C12.531 32.6498 9.03971 31.3554 6.26763 29.1846V29.185ZM26.737 5.91285C24.0723 3.24821 20.391 1.6003 16.3249 1.6003C12.2584 1.6003 8.57708 3.24863 5.91244 5.91285C3.2478 8.57749 1.59989 12.2589 1.59989 16.3253C1.59989 20.3918 3.24823 24.0732 5.91244 26.7374C8.57708 29.402 12.2584 31.0499 16.3249 31.0499C20.3914 31.0499 24.0728 29.4016 26.737 26.7374C29.4016 24.0728 31.0495 20.3914 31.0495 16.3253C31.0495 12.2589 29.4012 8.57749 26.737 5.91285ZM29.8997 35.8015H27.9821H27.1819H4.66733H2.74976V47.122H29.8997V35.8015Z" fill="#D9D9D9"/>
</svg>
