<svg width="100" height="128" viewBox="0 0 100 128" fill="none" xmlns="http://www.w3.org/2000/svg">
<path fill-rule="evenodd" clip-rule="evenodd" d="M50.5411 0.00598145L100 13.2599V70.2637C100 79.1888 97.7809 87.4999 93.6162 94.7105V94.7166C89.4637 101.909 83.3718 107.989 75.6323 112.457V112.463L65.9168 118.075V125.529L60.4815 121.212L50 127.262L39.5185 121.212L34.0832 125.529V118.075L24.3677 112.463V112.457C16.6282 107.989 10.5362 101.909 6.38375 94.7166C2.21911 87.506 0 79.1949 0 70.2637V13.2599L49.4589 0.00598145H50.535L50.5411 0.00598145Z" fill="#FF7955"/>
<path d="M95.8351 16.4518L50.0059 4.17072L4.17658 16.4518V70.2638C4.17658 78.4594 6.20115 86.0652 9.98884 92.6313C13.7887 99.2096 19.3578 104.767 26.4468 108.864H26.4528L34.089 113.272V87.7006L24.8174 85.8037C23.7474 85.5848 22.8111 85.0741 22.0815 84.3507L22.0754 84.3446C21.3458 83.615 20.8412 82.6787 20.6223 81.6087L18.2148 69.8443C18.1965 69.7592 18.1722 69.6802 18.1479 69.6133C18.1236 69.5586 18.0871 69.4917 18.0384 69.4127L11.4237 59.3871C10.8157 58.4691 10.5117 57.4416 10.5117 56.4141C10.5117 55.3867 10.8157 54.3592 11.4237 53.4411L18.0384 43.4156H18.0445C18.0871 43.3487 18.1236 43.2818 18.154 43.215C18.1844 43.1481 18.2026 43.0691 18.2208 42.9839L20.6284 31.2196C20.8473 30.1496 21.358 29.2133 22.0815 28.4837L22.0876 28.4776C22.8171 27.748 23.7534 27.2434 24.8235 27.0246L36.5878 24.617C36.6729 24.5987 36.752 24.5744 36.8188 24.5501C36.8736 24.5258 36.9404 24.4893 37.0195 24.4407L47.045 17.8259C47.9631 17.2179 48.9905 16.9139 50.018 16.9139C51.0455 16.9139 52.073 17.2179 52.991 17.8259L63.0166 24.4407C63.0956 24.4954 63.1625 24.5319 63.2172 24.5501C63.2841 24.5805 63.3631 24.5987 63.4482 24.617L75.2126 27.0246C76.2887 27.2434 77.2311 27.7541 77.9545 28.4776C78.678 29.2011 79.1887 30.1435 79.4076 31.2196L81.8152 42.9839C81.8334 43.0691 81.8577 43.1481 81.8821 43.215C81.9125 43.2818 81.9429 43.3487 81.9915 43.4156H81.9976L88.6124 53.4411C89.2204 54.3592 89.5243 55.3867 89.5243 56.4141C89.5243 57.4416 89.2204 58.4691 88.6124 59.3871L81.9976 69.4127C81.9429 69.4917 81.9064 69.5586 81.8882 69.6133C81.8578 69.6802 81.8395 69.7592 81.8213 69.8443L79.4137 81.6087C79.1948 82.6787 78.6841 83.615 77.9606 84.3446L77.9545 84.3507C77.2311 85.0741 76.2948 85.5848 75.2187 85.8037L65.947 87.7006V113.272L73.5832 108.864H73.5893C80.6783 104.773 86.2474 99.2157 90.0472 92.6313H90.0533C93.841 86.0652 95.8655 78.4594 95.8655 70.2578V16.4458L95.8351 16.4518ZM50.0059 43.0326L54.2252 52.0124L64.0744 53.2527L56.8334 60.0438L58.6999 69.7896L50.0059 65.0049L41.3118 69.7896L43.1783 60.0438L35.9373 53.2527L45.7865 52.0124L50.0059 43.0326ZM50.0059 30.9217C57.0462 30.9217 63.4178 33.7731 68.0324 38.3876C72.6469 43.0022 75.4983 49.3738 75.4983 56.4141C75.4983 63.4545 72.6469 69.8261 68.0324 74.4406C63.4178 79.0552 57.0462 81.9066 50.0059 81.9066C42.9655 81.9066 36.5939 79.0552 31.9794 74.4406C27.3648 69.8261 24.5134 63.4545 24.5134 56.4141C24.5134 49.3738 27.3648 43.0022 31.9794 38.3876C36.5939 33.7731 42.9655 30.9217 50.0059 30.9217ZM65.0837 41.3363C61.223 37.4757 55.8972 35.0924 50.0059 35.0924C44.1206 35.0924 38.7887 37.4818 34.928 41.3363C31.0674 45.197 28.6841 50.5228 28.6841 56.4141C28.6841 62.2994 31.0735 67.6313 34.928 71.492C38.7887 75.3526 44.1146 77.7359 50.0059 77.7359C55.8972 77.7359 61.223 75.3465 65.0837 71.492C68.9443 67.6313 71.3276 62.3054 71.3276 56.4141C71.3276 50.5228 68.9382 45.197 65.0837 41.3363ZM38.2598 89.2084V116.908L50.0059 107.581L61.752 116.908V89.2084L52.9728 95.0024C52.0547 95.6104 51.0273 95.9144 49.9998 95.9144C48.9723 95.9144 47.9448 95.6104 47.0268 95.0024L38.2476 89.2084H38.2598ZM60.7063 27.9061L50.6807 21.2913C50.4679 21.1515 50.2369 21.0846 50.0059 21.0846C49.7748 21.0846 49.5377 21.1515 49.331 21.2913L39.3055 27.9061C39.0136 28.0946 38.7157 28.2587 38.3935 28.3925C38.0834 28.5202 37.7612 28.6175 37.4147 28.6904L25.6503 31.098C25.395 31.1527 25.1822 31.2621 25.0241 31.4202L25.018 31.4263C24.8599 31.5844 24.7444 31.7972 24.6958 32.0525L22.2882 43.8169C22.2153 44.1634 22.118 44.4856 21.9903 44.7957C21.8626 45.1058 21.7045 45.4037 21.5039 45.7016V45.7077L14.8891 55.7332C14.7493 55.946 14.6824 56.177 14.6824 56.4081C14.6824 56.6391 14.7554 56.8701 14.8891 57.0829L21.5039 67.1085C21.6985 67.4003 21.8565 67.6982 21.9903 68.0204C22.118 68.3305 22.2153 68.6527 22.2882 68.9993L24.6958 80.7636C24.7505 81.0189 24.8599 81.2317 25.018 81.3898L25.0241 81.3959C25.1822 81.554 25.395 81.6695 25.6503 81.7181L37.4147 84.1257C37.7734 84.1987 38.0956 84.2959 38.3996 84.4236C38.7218 84.5574 39.0197 84.7154 39.3055 84.9039L49.331 91.5187C49.5438 91.6585 49.7748 91.7254 50.0059 91.7254C50.2369 91.7254 50.4679 91.6525 50.6807 91.5187L60.7063 84.9039C60.9981 84.7094 61.296 84.5513 61.6182 84.4175C61.9283 84.2899 62.2505 84.1926 62.597 84.1196L74.3614 81.712C74.6107 81.6634 74.8296 81.5479 74.9937 81.3837C75.1579 81.2196 75.2734 81.0068 75.322 80.7514L77.7296 68.9871C77.8026 68.6405 77.8937 68.3183 78.0275 68.0083C78.1613 67.686 78.3193 67.382 78.5139 67.0963L85.1287 57.0708C85.2685 56.858 85.3354 56.6269 85.3354 56.3959C85.3354 56.1649 85.2685 55.9338 85.1287 55.721L78.5139 45.6955V45.6894C78.3133 45.3915 78.1552 45.0936 78.0275 44.7836C77.8998 44.4735 77.8026 44.1513 77.7296 43.8047L75.322 32.0404C75.2734 31.7911 75.1579 31.5783 74.9876 31.4141C74.8235 31.25 74.6107 31.1345 74.3614 31.0798L62.597 28.6722C62.2505 28.5992 61.9283 28.5019 61.6182 28.3743C61.2899 28.2405 60.992 28.0824 60.7063 27.8879V27.9061ZM34.089 118.069L24.3736 112.457V112.451C16.634 107.983 10.5421 101.903 6.38961 94.7106C2.22497 87.5 0.00585938 79.1889 0.00585938 70.2578V13.2539L49.4648 0H50.5409L99.9998 13.2539V70.2578C99.9998 79.1829 97.7807 87.4939 93.616 94.7045V94.7106C89.4635 101.903 83.3716 107.983 75.6321 112.451V112.457L65.9166 118.069V125.523L60.4813 121.206L49.9998 127.256L39.5183 121.206L34.083 125.523V118.069H34.089ZM56.9854 118.428L50.0059 112.889L43.0263 118.428L50.0059 122.459L56.9854 118.428Z" fill="white"/>
</svg>
