<svg width="100" height="128" viewBox="0 0 100 128" fill="none" xmlns="http://www.w3.org/2000/svg">
<path fill-rule="evenodd" clip-rule="evenodd" d="M50.5411 0L100 13.2539V70.2578C100 79.1829 97.7809 87.4939 93.6162 94.7045V94.7106C89.4638 101.903 83.3718 107.983 75.6323 112.451V112.457L50 127.256L24.3677 112.457V112.451C16.6282 107.983 10.5362 101.903 6.38376 94.7106C2.21912 87.5 0 79.189 0 70.2578V13.2539L49.4589 0H50.535L50.5411 0Z" fill="#FF7955"/>
<path d="M95.8354 16.4458L50.0061 4.16464L4.1768 16.4458V70.2578C4.1768 77.8149 5.89737 84.8675 9.13789 91.0688L14.3239 62.3845L19.206 35.3721L19.7288 32.4781L21.802 20.9995L22.1 19.358L22.3553 17.9475H26.5747L26.0214 20.9995H61.0956L58.8096 33.6394H85.9071H90.9229L69.9295 54.6206L82.9645 75.0243H37.6155L38.0593 72.5803L39.9015 62.3784H18.5372L12.4027 96.3339C16.008 101.301 20.7381 105.557 26.4531 108.852H26.4591L50.0061 122.446L73.553 108.852H73.5591C80.6481 104.76 86.2172 99.2036 90.017 92.6192H90.0231C93.8108 86.053 95.8354 78.4472 95.8354 70.2456V16.4336V16.4458ZM53.6114 62.3845L45.1179 70.8779H75.3891L64.634 54.043L80.8913 37.7918H58.0557L53.8667 60.9497L53.6053 62.3845H53.6114ZM47.7323 62.3845H44.1148L43.3183 66.7923L47.7323 62.3845ZM50.1398 58.232L53.8363 37.7918L54.5841 33.6394L56.1162 25.1459H25.2614L23.3706 35.6153L23.2794 36.1077L19.2789 58.232H40.6432H42.376H50.1338H50.1398ZM50.5411 0L100 13.2539V70.2578C100 79.1829 97.7809 87.4939 93.6162 94.7045V94.7106C89.4638 101.903 83.3718 107.983 75.6323 112.451V112.457L50 127.256L24.3677 112.457V112.451C16.6282 107.983 10.5362 101.903 6.38376 94.7106C2.21912 87.5 0 79.189 0 70.2578V13.2539L49.4589 0H50.535L50.5411 0Z" fill="white"/>
</svg>
