<svg width="100" height="128" viewBox="0 0 100 128" fill="none" xmlns="http://www.w3.org/2000/svg">
<path fill-rule="evenodd" clip-rule="evenodd" d="M50.538 0.00598145L99.994 13.2591V70.2595C99.994 79.1841 97.775 87.4946 93.6106 94.7048V94.7108C89.4584 101.903 83.3668 107.982 75.6277 112.451V112.457L49.997 127.254L24.3662 112.457V112.451C16.6272 107.982 10.5356 101.903 6.38337 94.7108C2.21898 87.5007 0 79.1901 0 70.2595V13.2591L49.4559 0.00598145H50.532L50.538 0.00598145Z" fill="#FF7955"/>
<path d="M95.8293 16.4508L50.0028 4.17047L4.17632 16.4508V70.2596C4.17632 78.4546 6.20076 86.0599 9.98822 92.6257C13.7878 99.2036 19.3566 104.76 26.4452 108.858H26.4512L49.9967 122.451L73.5423 108.858H73.5484C80.6369 104.766 86.2056 99.2097 90.0052 92.6257H90.0113C93.7988 86.0599 95.8232 78.4546 95.8232 70.2535V16.4448L95.8293 16.4508ZM52.082 49.6626C52.082 52.2403 51.0303 54.5808 49.3341 56.277C47.638 57.9731 45.2974 59.0249 42.7197 59.0249V54.8605C44.1484 54.8605 45.4494 54.2769 46.3917 53.3346C47.334 52.3922 47.9176 51.0913 47.9176 49.6626H47.9237L47.948 29.6857L47.8933 29.0413C47.7717 27.6065 47.103 26.3177 46.0938 25.3936C45.0968 24.4757 43.7654 23.9163 42.3124 23.9163C40.8533 23.9163 39.528 24.4757 38.531 25.3936C37.5218 26.3177 36.8531 27.6065 36.7315 29.0413L36.5735 30.9563H29.4423C27.1564 30.9563 25.0834 31.8925 23.5757 33.4002C22.068 34.9079 21.1318 36.9871 21.1318 39.2668C21.1318 39.5951 21.1439 39.8869 21.1743 40.1423C21.2047 40.428 21.2533 40.7198 21.3141 41.0116L21.5877 42.2822L20.5481 43.0847C19.545 43.8629 18.7183 44.866 18.1529 46.015C17.6118 47.1092 17.3078 48.3494 17.3078 49.6626C17.3078 50.2645 17.3686 50.8481 17.4841 51.3952C17.6057 51.9728 17.7881 52.526 18.0191 53.0427L18.5176 54.1492L17.7942 55.128C17.2774 55.8271 16.864 56.6113 16.5844 57.4685C16.3169 58.2832 16.171 59.1525 16.171 60.0644C16.171 61.5539 16.5601 62.9461 17.241 64.1437C17.9523 65.4022 18.9857 66.4539 20.2199 67.1956L21.4114 67.9129L21.2169 69.2747C21.1865 69.4693 21.1682 69.6638 21.1561 69.8705C21.1439 70.0347 21.1379 70.2353 21.1379 70.4663C21.1379 72.0105 21.5634 73.4574 22.299 74.6915C23.065 75.9742 24.1654 77.0442 25.4846 77.7616L26.7248 78.4425L26.5546 79.8407C26.5303 80.0474 26.5121 80.2176 26.506 80.3453C26.4999 80.4669 26.4938 80.6371 26.4938 80.8621C26.4938 83.1479 27.43 85.2271 28.9377 86.7287C30.4454 88.2364 32.5246 89.1726 34.8043 89.1726H41.8747V91.9144C41.8747 92.7473 42.2151 93.5011 42.7684 94.0544C43.3155 94.6015 44.0754 94.948 44.9083 94.948C45.7412 94.948 46.495 94.6076 47.0482 94.0544C47.5954 93.5072 47.9419 92.7473 47.9419 91.9144H47.9237L47.9541 71.5606H52.1063L52.1367 91.9144H52.1185C52.1185 92.7473 52.4589 93.5011 53.0121 94.0544C53.5593 94.6015 54.3192 94.948 55.1521 94.948C55.985 94.948 56.7388 94.6076 57.292 94.0544C57.8392 93.5072 58.1857 92.7473 58.1857 91.9144V89.1726H65.2561C67.5419 89.1726 69.615 88.2364 71.1226 86.7287C72.6303 85.221 73.5666 83.1418 73.5666 80.8621C73.5666 80.6371 73.5605 80.4669 73.5544 80.3453C73.5483 80.2176 73.5301 80.0474 73.5058 79.8407L73.3356 78.4425L74.5758 77.7616C75.895 77.0381 76.9954 75.9742 77.7614 74.6915C78.497 73.4513 78.9225 72.0105 78.9225 70.4663C78.9225 70.2353 78.9165 70.0407 78.9043 69.8705C78.8921 69.6699 78.8678 69.4693 78.8435 69.2747L78.6489 67.9129L79.8405 67.1956C81.0746 66.4539 82.1021 65.4022 82.8194 64.1437C83.5003 62.9461 83.8894 61.5478 83.8894 60.0644C83.8894 59.1586 83.7435 58.2832 83.476 57.4685C83.1903 56.6113 82.7829 55.8271 82.2662 55.128L81.5427 54.1492L82.0413 53.0427C82.2723 52.526 82.4547 51.9728 82.5762 51.3952C82.6917 50.8481 82.7525 50.2705 82.7525 49.6626C82.7525 48.3494 82.4486 47.1092 81.9075 46.015C81.3421 44.866 80.5153 43.8629 79.5122 43.0847L78.4726 42.2822L78.7462 41.0116C78.807 40.7198 78.8557 40.428 78.886 40.1423C78.9104 39.8869 78.9286 39.5951 78.9286 39.2668C78.9286 36.981 77.9924 34.9018 76.4847 33.4002C74.977 31.8925 72.8979 30.9563 70.6181 30.9563H63.4869L63.3289 29.0413C63.2073 27.6065 62.5386 26.3177 61.5294 25.3936C60.5324 24.4757 59.2009 23.9163 57.748 23.9163C56.2889 23.9163 54.9636 24.4757 53.9666 25.3936C52.9574 26.3177 52.2887 27.6065 52.1671 29.0413L52.1428 49.6565H52.1489L52.082 49.6626ZM47.9176 71.5484C47.9176 68.9708 48.9693 66.6302 50.6655 64.934C52.3616 63.2379 54.7022 62.1862 57.2799 62.1862V66.3505C55.8512 66.3505 54.5502 66.9342 53.6079 67.8765C52.6656 68.8188 52.082 70.1198 52.082 71.5484H47.9176ZM32.8285 64.8611C34.4456 63.244 35.2481 61.1162 35.2481 58.9823C35.2481 57.3166 34.7557 55.6508 33.7708 54.2343C31.181 55.8757 28.1109 56.8302 24.8341 56.8302V52.6658C28.2994 52.6658 31.4546 51.2432 33.7404 48.9574C36.0263 46.6715 37.4489 43.5163 37.4489 40.0511H41.6133C41.6133 44.5133 39.8503 48.5805 36.9929 51.5898C38.604 53.7783 39.4125 56.3864 39.4125 58.9884C39.4125 62.1862 38.1966 65.3839 35.771 67.8096L32.8224 64.8611H32.8285ZM39.5828 81.3545C39.5828 79.9745 39.0173 78.716 38.1054 77.8041C37.1935 76.8922 35.9351 76.3268 34.5551 76.3268V72.1624C37.0841 72.1624 39.3821 73.1959 41.0479 74.8617C42.7136 76.5275 43.7471 78.8255 43.7471 81.3545H39.5828ZM64.2286 67.8035C61.8029 65.3778 60.5871 62.174 60.5871 58.9823C60.5871 56.3803 61.3956 53.7723 63.0067 51.5837C60.1493 48.5744 58.3863 44.5012 58.3863 40.045H62.5507C62.5507 43.5163 63.9733 46.6655 66.2591 48.9574C68.545 51.2432 71.7002 52.6658 75.1655 52.6658V56.8302C71.8887 56.8302 68.8186 55.8757 66.2287 54.2343C65.2439 55.6508 64.7514 57.3166 64.7514 58.9823C64.7514 61.1162 65.56 63.244 67.171 64.8611L64.2225 67.8096L64.2286 67.8035ZM56.2585 81.3545C56.2585 78.8255 57.292 76.5275 58.9578 74.8617C60.6236 73.1959 62.9216 72.1624 65.4506 72.1624V76.3268C64.0706 76.3268 62.8121 76.8922 61.9002 77.8041C60.9883 78.716 60.4229 79.9745 60.4229 81.3545H56.2585ZM16.9795 69.9982C15.6238 68.9708 14.4809 67.6698 13.6359 66.1864C12.6024 64.3687 12.0066 62.2713 12.0066 60.0523C12.0066 58.6966 12.2255 57.3834 12.6328 56.1554C12.9246 55.2678 13.3197 54.4228 13.8 53.6264C13.648 53.1765 13.5204 52.7145 13.417 52.2463C13.2346 51.4013 13.1434 50.5319 13.1434 49.6565C13.1434 47.699 13.6055 45.8387 14.4262 44.1729C15.0828 42.8415 15.9765 41.6378 17.0464 40.6225L17.0403 40.5678C16.9917 40.1058 16.9674 39.6681 16.9674 39.2607C16.9674 35.8259 18.3717 32.7072 20.6333 30.4456C22.8948 28.1841 26.0135 26.7797 29.4484 26.7797H32.944C33.4486 25.0471 34.4274 23.5151 35.7223 22.3235C37.4671 20.7186 39.7834 19.7398 42.3245 19.7398C44.8596 19.7398 47.182 20.7247 48.9268 22.3235C49.322 22.6822 49.6806 23.0774 50.015 23.4969C50.3433 23.0774 50.708 22.6822 51.1032 22.3235C52.848 20.7186 55.1643 19.7398 57.7054 19.7398C60.2406 19.7398 62.5629 20.7247 64.3077 22.3235C65.6026 23.5151 66.5753 25.0471 67.086 26.7797H70.5816C74.0165 26.7797 77.1352 28.1841 79.3967 30.4456C81.6583 32.7072 83.0626 35.8259 83.0626 39.2607C83.0626 39.6681 83.0383 40.1058 82.9896 40.5678L82.9836 40.6225C84.0535 41.6378 84.9411 42.8415 85.6038 44.1729C86.4245 45.8387 86.8866 47.699 86.8866 49.6565C86.8866 50.5319 86.7893 51.4013 86.613 52.2524C86.5157 52.7205 86.388 53.1826 86.23 53.6324C86.7102 54.4288 87.1054 55.2739 87.3972 56.1615C87.8045 57.3895 88.0234 58.7027 88.0234 60.0584C88.0234 62.2773 87.4337 64.3687 86.3941 66.1925C85.5491 67.6758 84.4062 68.9768 83.0505 70.0043C83.0565 70.1623 83.0626 70.3143 83.0626 70.4541C83.0626 72.7643 82.4243 74.9346 81.3178 76.7949C80.4059 78.333 79.1718 79.6583 77.7127 80.6736V80.8438C77.7127 84.2787 76.3084 87.3974 74.0468 89.659C71.7853 91.9205 68.6666 93.3248 65.2317 93.3248H62.186C61.9002 94.7352 61.2011 95.9998 60.2162 96.9785C58.9152 98.2795 57.1096 99.0942 55.1338 99.0942C53.152 99.0942 51.3525 98.2856 50.0515 96.9785L50.0211 96.9482L49.9907 96.9785C48.6897 98.2795 46.8841 99.0942 44.9083 99.0942C42.9264 99.0942 41.1269 98.2856 39.8259 96.9785C38.8411 95.9937 38.1419 94.7352 37.8562 93.3248H34.8104C31.3756 93.3248 28.2568 91.9205 25.9953 89.659C23.7337 87.3974 22.3294 84.2787 22.3294 80.8438V80.6736C20.8704 79.6523 19.6423 78.327 18.7243 76.7949C17.6179 74.9286 16.9795 72.7643 16.9795 70.4541C16.9795 70.3082 16.9856 70.1623 16.9917 70.0043L16.9795 69.9982ZM50.5439 0L99.9998 13.2531V70.2535C99.9998 79.1781 97.7808 87.4886 93.6164 94.6988V94.7048C89.4642 101.897 83.3727 107.976 75.6336 112.445V112.451L50.0028 127.248L24.3721 112.451V112.445C16.633 107.976 10.5415 101.897 6.38923 94.7048C2.22484 87.4947 0.00585938 79.1842 0.00585938 70.2535V13.2531L49.4618 0H50.5378H50.5439Z" fill="white"/>
</svg>
