<svg width="29" height="29" viewBox="0 0 29 29" fill="none" xmlns="http://www.w3.org/2000/svg">
<g clip-path="url(#clip0_96_2227)">
<path fill-rule="evenodd" clip-rule="evenodd" d="M19.9012 7.41375C21.7762 7.41375 23.7636 8.44566 25.1789 10.2303C20.5401 12.8011 21.2942 19.4996 25.9816 21.2898C25.3358 22.7342 25.0275 23.38 24.1969 24.6591C23.0372 26.4424 21.4053 28.6646 19.379 28.684C17.5804 28.7007 17.118 27.4993 14.6764 27.5132C12.2347 27.5271 11.725 28.7049 9.92647 28.6882C7.90152 28.6688 6.35295 26.6633 5.19326 24.8786C1.95167 19.8898 1.61279 14.0358 3.61274 10.9248C5.03354 8.71094 7.27376 7.41513 9.38204 7.41513C11.5278 7.41513 12.8764 8.60538 14.6514 8.60538C16.3735 8.60538 17.4207 7.41375 19.9012 7.41375ZM19.3568 0.911133C19.6068 2.59859 18.9207 4.25133 18.0193 5.42074C17.0541 6.67349 15.3916 7.6443 13.7833 7.5943C13.4917 5.97906 14.2444 4.3166 15.1583 3.1958C16.1624 1.95972 17.8846 1.01391 19.3568 0.911133Z" fill="#152347"/>
</g>
<defs>
<clipPath id="clip0_96_2227">
<rect width="27.7771" height="27.7771" fill="white" transform="translate(0.287842 0.911133)"/>
</clipPath>
</defs>
</svg>
