<svg width="84" height="80" viewBox="0 0 84 80" fill="none" xmlns="http://www.w3.org/2000/svg">
<path fill-rule="evenodd" clip-rule="evenodd" d="M2.46125 40.8697C2.15905 40.3175 2.15905 39.6825 2.46125 39.1303C5.15826 34.2018 19.5455 10 42 10C64.4545 10 78.8417 34.2018 81.5388 39.1303C81.841 39.6825 81.841 40.3175 81.5388 40.8697C78.8417 45.7982 64.4545 70 42 70C19.5455 70 5.15826 45.7982 2.46125 40.8697ZM11.05 40.65V40.65C10.8027 40.2531 10.8105 39.7455 11.06 39.35V39.35C12.69 36.8 15.09 33.415 18.16 30.07C24.47 23.175 32.6 17.5 42 17.5C51.39 17.5 59.53 23.175 65.85 30.07C68.3665 32.8382 70.6516 35.8073 72.6827 38.9474C73.097 39.588 73.0958 40.4113 72.6801 41.051C70.641 44.1879 68.3538 47.1571 65.84 49.93C59.53 56.825 51.4 62.5 42 62.5C32.61 62.5 24.47 56.825 18.15 49.93C15.5234 47.0445 13.1481 43.9399 11.05 40.65ZM57 40C56.9991 43.1576 56.0017 46.2344 54.1499 48.7921C52.2982 51.3498 49.6865 53.2578 46.687 54.2445C43.6874 55.2311 40.4531 55.246 37.4446 54.2871C34.4361 53.3281 31.8069 51.4442 29.9317 48.9037C28.0564 46.3632 27.0307 43.2957 27.0007 40.1383C26.9706 36.9808 27.9378 33.8943 29.7644 31.3186C31.5909 28.7429 34.1837 26.8093 37.1734 25.7933C39.0122 25.1684 40.9433 24.9102 42.8598 25.0202C44.12 25.0925 44.3731 26.8817 43.5961 27.8766V27.8766C42.8495 28.8325 42.3459 29.9553 42.1285 31.1486C41.9111 32.3418 41.9863 33.5701 42.3478 34.7279C42.7092 35.8857 43.3461 36.9386 44.2037 37.7963C45.0614 38.6539 46.1143 39.2908 47.2721 39.6522C48.4299 40.0137 49.6582 40.0889 50.8514 39.8715C52.0447 39.6541 53.1675 39.1505 54.1234 38.4039V38.4039C55.1173 37.6277 56.9052 37.8818 56.9762 39.1408C56.9923 39.4267 57.0003 39.7132 57 40Z" fill="#87B7DB" stroke="url(#paint0_linear_210_2217)" stroke-width="2.8"/>
<defs>
<linearGradient id="paint0_linear_210_2217" x1="42" y1="10" x2="42" y2="70" gradientUnits="userSpaceOnUse">
<stop stop-color="#DFECF5"/>
<stop offset="1" stop-color="#AECDE7"/>
</linearGradient>
</defs>
</svg>
