<svg width="24" height="24" viewBox="0 0 24 24" fill="none" xmlns="http://www.w3.org/2000/svg">
<path d="M3.81818 2C2.82364 2 2 2.82364 2 3.81818V20.1818C2 21.1764 2.82364 22 3.81818 22H20.1818C21.1764 22 22 21.1764 22 20.1818V3.81818C22 2.82364 21.1764 2 20.1818 2H3.81818ZM3.81818 3.81818H20.1818V20.1818H15.4655V14.0455H17.8236L18.1645 11.3182H15.4664V9.55636C15.4664 8.76182 15.6609 8.22182 16.8009 8.22182H18.2782V5.75C18.0264 5.71818 17.1527 5.66455 16.1482 5.66455C14.0527 5.66455 12.6255 6.92545 12.6255 9.27273V11.3182H10.2391V14.0455H12.6245V20.1818H3.81818V3.81818Z" fill="white"/>
</svg>
