<svg width="80" height="83" viewBox="0 0 80 83" fill="none" xmlns="http://www.w3.org/2000/svg">
<path d="M54.4687 38.7719C53.5899 38.1035 53.419 36.8494 54.0869 35.9702L62.3041 25.1531C62.9722 24.2735 64.2269 24.1021 65.1065 24.7703L69.1772 27.8627C70.0566 28.5308 70.2281 29.7852 69.5603 30.6647L61.3438 41.4863C60.6754 42.3665 59.4198 42.5378 58.5401 41.8687L54.4687 38.7719ZM49.108 34.7398C49.9877 35.4074 51.2421 35.2356 51.91 34.356L60.8011 22.6449C61.4691 21.765 61.2972 20.5102 60.4172 19.8423L55.9858 16.4794C55.106 15.8118 53.8516 15.9836 53.1838 16.8632L44.2927 28.5743C43.6247 29.4542 43.7966 30.709 44.6766 31.3768L49.108 34.7398ZM45.9183 19.2628C46.7695 19.6693 47.7891 19.4257 48.3646 18.6783L51.2026 14.9932C51.8797 14.1141 51.7116 12.8518 50.8281 12.1804L46.8274 9.14063C45.9478 8.47231 44.6929 8.64366 44.0247 9.52334L40.5857 14.0509C39.8189 15.0603 40.1726 16.5192 41.3165 17.0654L45.9183 19.2628ZM41.3286 8.59025C41.9966 7.71067 41.8251 6.45618 40.9456 5.7881L36.2355 2.21003C35.3558 1.54179 34.1009 1.71331 33.4329 2.59311L29.0056 8.42335C28.2432 9.42744 28.5887 10.878 29.7219 11.4305L35.142 14.0734C36 14.4918 37.0341 14.2455 37.6113 13.4853L41.3286 8.59025ZM61.5698 48.7807C61.7436 48.0034 61.4395 47.197 60.7957 46.728L37.322 29.6268C37.193 29.5327 37.0326 29.4921 36.8743 29.5134V29.5134C36.4633 29.5687 36.2213 30.0039 36.3912 30.3822L45.9943 51.7555C46.3648 52.5801 45.8382 53.5291 44.9425 53.6511V53.6511C44.3479 53.7321 43.7709 53.4118 43.5252 52.8644L34.4894 32.7344C34.2872 32.2839 33.9256 31.9242 33.4741 31.7244L28.4333 29.4939C27.7943 29.2111 27.3492 28.6152 27.2593 27.9222L27.2069 27.5185C27.0016 25.9354 28.6424 24.7616 30.0743 25.4672L32.9662 26.8923C33.2503 27.0322 33.5635 27.1027 33.88 27.098L39.3927 27.016C39.9898 27.0071 40.5517 26.7319 40.9247 26.2656L43.0987 23.5481C43.9022 22.5437 43.5624 21.053 42.4032 20.496L25.171 12.2159C24.2959 11.7954 23.2452 12.0641 22.6795 12.8531L10.8038 29.414C10.3199 30.0888 10.3033 30.9924 10.7621 31.6845L26.6842 55.7023C26.96 56.1183 27.0702 56.6223 26.9934 57.1155L23.6299 78.692C23.4409 79.9047 24.3787 81 25.6061 81H52.7738C53.8784 81 54.7738 80.1046 54.7738 79V61.3878C54.7738 60.9679 54.906 60.5585 55.1517 60.2179L60.5076 52.7918C60.6661 52.5721 60.7783 52.3225 60.8374 52.0581L61.5698 48.7807Z" fill="#87B7DB" stroke="url(#paint0_linear_210_2209)" stroke-width="2.8"/>
<defs>
<linearGradient id="paint0_linear_210_2209" x1="40.3847" y1="1" x2="40.3847" y2="81" gradientUnits="userSpaceOnUse">
<stop stop-color="#DFECF5"/>
<stop offset="1" stop-color="#AECDE7"/>
</linearGradient>
</defs>
</svg>
