<svg width="26" height="26" viewBox="0 0 26 26" fill="none" xmlns="http://www.w3.org/2000/svg">
<g clip-path="url(#clip0_96_2217)">
<path d="M25.5633 13.0414C25.5633 12.0054 25.4773 11.2494 25.2911 10.4653H13.1833V15.1415H20.2903C20.1471 16.3035 19.3733 18.0536 17.6539 19.2296L17.6298 19.3861L21.458 22.2839L21.7232 22.3098C24.159 20.1117 25.5633 16.8775 25.5633 13.0414Z" fill="#152347"/>
<path d="M13.1843 25.3619C16.6661 25.3619 19.5892 24.2418 21.7242 22.3098L17.6548 19.2296C16.5659 19.9716 15.1043 20.4897 13.1843 20.4897C9.77414 20.4897 6.87977 18.2916 5.84801 15.2535L5.69678 15.2661L1.71612 18.2762L1.66406 18.4176C3.78468 22.5337 8.1406 25.3619 13.1843 25.3619Z" fill="#152347"/>
<path d="M5.84755 15.2536C5.57531 14.4696 5.41776 13.6295 5.41776 12.7615C5.41776 11.8934 5.57531 11.0534 5.83323 10.2694L5.82602 10.1024L1.79548 7.04395L1.6636 7.10523C0.789594 8.81332 0.288086 10.7314 0.288086 12.7615C0.288086 14.7916 0.789594 16.7096 1.6636 18.4177L5.84755 15.2536Z" fill="#152347"/>
<path d="M13.1843 5.03304C15.6058 5.03304 17.2393 6.05507 18.1707 6.90916L21.8101 3.43701C19.5749 1.40694 16.6662 0.160889 13.1843 0.160889C8.1406 0.160889 3.78468 2.98897 1.66406 7.10509L5.83369 10.2693C6.87977 7.23115 9.77414 5.03304 13.1843 5.03304Z" fill="#152347"/>
</g>
<defs>
<clipPath id="clip0_96_2217">
<rect width="25.2878" height="25.2878" fill="white" transform="translate(0.287842 0.160889)"/>
</clipPath>
</defs>
</svg>
