<svg width="24" height="24" viewBox="0 0 24 24" fill="none" xmlns="http://www.w3.org/2000/svg">
<path d="M3.36114 3.73196L4.05144 3L20.3365 20.268L19.6462 21L16.3989 17.5464C15.067 18.134 13.6086 18.4639 12.0725 18.4639C7.63902 18.4639 3.80837 15.732 2 11.7629C2.94308 9.70103 4.42089 7.97938 6.23899 6.79381L3.36114 3.73196ZM12.0725 17.433C13.3266 17.433 14.5322 17.1959 15.6406 16.7526L14.5517 15.5876C13.8419 16.1031 12.9961 16.4021 12.0725 16.4021C9.64184 16.4021 7.69735 14.3402 7.69735 11.7629C7.69735 10.7835 7.9793 9.8866 8.46542 9.13402L6.95845 7.54639C5.33056 8.55203 3.99259 10.01 3.08891 11.7629C4.81951 15.1443 8.18347 17.433 12.0725 17.433ZM21.056 11.7629C19.3254 8.38144 15.9614 6.09278 12.0725 6.09278C10.9544 6.09278 9.86546 6.28866 8.85432 6.63918L8.09597 5.83505C9.33072 5.3299 10.6724 5.06186 12.0725 5.06186C16.5059 5.06186 20.3365 7.79381 22.1449 11.7629C21.2614 13.707 19.8929 15.3577 18.1879 16.5361L17.4879 15.7835C18.9754 14.7938 20.2101 13.4124 21.056 11.7629ZM12.0725 7.12371C14.5031 7.12371 16.4476 9.18557 16.4476 11.7629C16.4476 12.6082 16.2337 13.3918 15.8642 14.0722L15.1447 13.3093C15.3586 12.8351 15.4753 12.3196 15.4753 11.7629C15.4753 10.8059 15.1168 9.88815 14.4786 9.21147C13.8405 8.53479 12.9749 8.15464 12.0725 8.15464C11.5474 8.15464 11.0613 8.27835 10.6141 8.50516L9.89462 7.74227C10.5363 7.35052 11.2752 7.12371 12.0725 7.12371ZM8.6696 11.7629C8.6696 12.7199 9.02811 13.6376 9.66627 14.3143C10.3044 14.991 11.17 15.3711 12.0725 15.3711C12.7239 15.3711 13.3266 15.1753 13.8419 14.8557L9.15572 9.8866C8.85432 10.433 8.6696 11.0722 8.6696 11.7629Z" fill="#152347"/>
</svg>
