<svg width="115" height="88" viewBox="0 0 115 88" fill="none" xmlns="http://www.w3.org/2000/svg">
<g opacity="0.8">
<path d="M101.849 19.2176C101.398 19.4478 100.947 19.6419 100.558 19.9037C95.6522 23.0632 93.8196 27.6355 94.3703 33.3588C94.5666 35.355 94.5666 37.3656 94.3703 39.3618C93.0704 51.8284 83.3526 62.5527 71.0711 64.9449C59.0875 67.2785 48.819 63.8707 40.3154 55.015L40.2658 55.0511L40.1935 55.1053C49.4058 69.269 70.2993 74.1301 85.7538 64.9765C104.237 54.013 107.749 32.6185 101.849 19.2176Z" fill="url(#paint0_linear_2_135)"/>
<path d="M75.851 60.8105C90.1772 52.3475 93.2148 35.1462 88.5117 24.7965C88.331 24.8284 88.153 24.8736 87.9791 24.9319C87.7934 25.0089 87.6152 25.1026 87.4464 25.2117C83.7182 27.6039 81.9353 30.9846 82.3957 35.426C83.7182 48.204 75.6253 58.5357 62.8925 60.2508C53.7479 61.4785 46.2237 58.1971 39.7918 51.9007L38.7447 50.867C45.8356 63.3787 63.6056 68.0368 75.851 60.8105Z" fill="url(#paint1_linear_2_135)"/>
<path d="M43.7096 30.4159L43.344 30.267C43.1727 30.1961 42.9883 30.1621 42.803 30.1671C42.6176 30.1722 42.4354 30.2161 42.2681 30.2961C42.1008 30.3761 41.9523 30.4904 41.832 30.6316C41.7118 30.7728 41.6226 30.9376 41.5702 31.1155C41.1883 32.5094 41 33.9492 41.0105 35.3944C41.0181 37.7342 41.5203 40.046 42.4841 42.1781C43.4479 44.3103 44.8515 46.2146 46.6029 47.7662C46.7516 47.8923 46.9264 47.984 47.1148 48.0347C47.3031 48.0854 47.5003 48.0937 47.6923 48.0592C47.8842 48.0247 48.0662 47.9482 48.2251 47.8351C48.384 47.722 48.5159 47.5752 48.6114 47.4051V47.369C48.7727 47.1043 48.8383 46.7923 48.7972 46.485C48.7561 46.1778 48.6109 45.894 48.3857 45.6809C46.986 44.3381 45.8718 42.7265 45.1102 40.9426C44.3485 39.1587 43.9551 37.2393 43.9534 35.2996C43.9537 34.1726 44.1055 33.0507 44.4047 31.9641C44.4926 31.6655 44.4708 31.3454 44.3434 31.0615C44.2159 30.7776 43.9911 30.5486 43.7096 30.4159Z" fill="url(#paint2_linear_2_135)"/>
<path d="M61.1367 51.3952C68.3088 49.6439 73.8515 43.0766 73.8425 35.5975C73.8198 32.5343 72.9442 29.5378 71.3139 26.9443C69.6835 24.3508 67.3629 22.2628 64.6122 20.9144C61.8616 19.5661 58.7896 19.0106 55.741 19.3105C52.6923 19.6103 49.7874 20.7535 47.3522 22.6119C47.1678 22.7527 47.0192 22.9348 46.9181 23.1435C46.8171 23.3523 46.7665 23.5819 46.7704 23.8138C46.7744 24.0457 46.8328 24.2734 46.9409 24.4786C47.049 24.6838 47.2038 24.8607 47.3928 24.9951H47.4199C47.6728 25.1736 47.9762 25.2663 48.2856 25.2598C48.5951 25.2533 48.8944 25.1479 49.1395 24.959C51.5316 23.0717 54.4879 22.0417 57.5349 22.0342C64.6979 22.0116 70.7778 28.2133 70.8364 35.5975C70.8816 41.6367 66.2732 47.044 60.41 48.4839C60.0926 48.561 59.8104 48.7427 59.609 48.9999C59.4075 49.257 59.2986 49.5745 59.2997 49.9011V49.9598C59.299 50.1848 59.3498 50.4068 59.4481 50.6091C59.5464 50.8114 59.6897 50.9886 59.8669 51.1271C60.0441 51.2656 60.2507 51.3617 60.4708 51.4082C60.6908 51.4546 60.9186 51.4502 61.1367 51.3952Z" fill="url(#paint3_linear_2_135)"/>
<path d="M57.3002 45.4643C58.6214 45.5038 59.9372 45.2798 61.1709 44.8054C62.4045 44.331 63.5315 43.6158 64.4858 42.7013C65.4402 41.7869 66.203 40.6916 66.7297 39.4793C67.2564 38.2671 67.5364 36.962 67.5535 35.6404C67.5706 34.3188 67.3243 33.0069 66.8292 31.7815C66.334 30.556 65.5998 29.4413 64.6693 28.5026C63.7389 27.5638 62.6308 26.8196 61.4098 26.3135C60.1888 25.8075 58.8792 25.5495 57.5575 25.5548C54.9459 25.5653 52.443 26.6013 50.5881 28.4398C48.7332 30.2782 47.6749 32.7717 47.6412 35.3831C47.6074 37.9945 48.601 40.5145 50.4077 42.4003C52.2145 44.286 54.6898 45.3864 57.3002 45.4643Z" fill="url(#paint4_linear_2_135)"/>
<path d="M19.905 30.2579C21.2049 17.7958 30.9182 7.06702 43.1997 4.67932C55.1833 2.34579 65.4517 5.74905 73.9554 14.6092L74.0547 14.5325H74.0772C64.865 0.368828 43.976 -4.48781 28.5214 4.66126C10.0157 15.6338 6.48603 37.0328 12.3853 50.4337C12.8367 50.2035 13.288 50.0094 13.6807 49.7431C18.5825 46.5836 20.415 42.0158 19.8643 36.2926C19.6775 34.2847 19.6911 32.2631 19.905 30.2579Z" fill="url(#paint5_linear_2_135)"/>
<path d="M51.3646 9.37804C60.5092 8.14583 68.0379 11.4317 74.4653 17.7282L75.5124 18.7573C68.4215 6.24109 50.665 1.58756 38.4061 8.80932C24.0799 17.2723 21.0468 34.4737 25.768 44.8188C25.948 44.7859 26.1259 44.7422 26.3006 44.6879C26.4862 44.6109 26.6645 44.5173 26.8332 44.4081C30.5615 42.0114 32.3443 38.6307 31.8839 34.1893C30.5389 21.4203 38.6363 11.0887 51.3646 9.37804Z" fill="url(#paint6_linear_2_135)"/>
<path d="M0 83.5004L3.79594 83.2612C3.83615 83.7679 4.00893 84.2551 4.29695 84.6739C4.50796 84.9352 4.77797 85.1426 5.08478 85.2792C5.39159 85.4157 5.72643 85.4774 6.06176 85.4593C6.53514 85.4886 7.00318 85.3459 7.37974 85.0576C7.51947 84.946 7.63251 84.8046 7.7106 84.6438C7.78869 84.4829 7.82986 84.3066 7.8311 84.1278C7.82744 83.9533 7.78505 83.7818 7.70699 83.6256C7.62893 83.4695 7.51715 83.3327 7.37974 83.2251C7.07884 82.9603 6.39728 82.7105 5.33508 82.4758C3.5838 82.0786 2.33353 81.5731 1.58879 80.9051C1.22545 80.6004 0.935361 80.2178 0.740024 79.7857C0.544686 79.3536 0.449115 78.8831 0.460389 78.4091C0.462591 77.7398 0.663686 77.0862 1.03813 76.5314C1.48073 75.905 2.10213 75.4267 2.821 75.1593C3.82988 74.7816 4.90416 74.6097 5.98052 74.6537C7.6325 74.6537 8.89179 74.9547 9.7584 75.5565C10.625 76.1583 11.1411 77.1347 11.3066 78.4858L7.54223 78.707C7.53077 78.4666 7.47014 78.2311 7.3641 78.0151C7.25806 77.7991 7.10885 77.6071 6.92569 77.451C6.74253 77.2949 6.52931 77.178 6.2992 77.1076C6.06909 77.0371 5.82699 77.0146 5.58784 77.0414C5.21394 77.015 4.84239 77.1187 4.53617 77.3348C4.42632 77.4194 4.33743 77.5281 4.27637 77.6526C4.21532 77.777 4.18375 77.9139 4.18411 78.0525C4.18774 78.1612 4.21603 78.2677 4.26686 78.3639C4.31769 78.46 4.38971 78.5434 4.47749 78.6077C4.88739 78.8664 5.35011 79.0299 5.83157 79.0861C7.12234 79.3182 8.38128 79.7014 9.58237 80.2281C10.2553 80.5404 10.8263 81.0363 11.2298 81.6589C11.5749 82.237 11.753 82.8994 11.7444 83.5726C11.7502 84.3869 11.5112 85.1842 11.0583 85.861C10.5903 86.5717 9.92077 87.1264 9.13553 87.4543C8.14694 87.8459 7.08844 88.0303 6.02566 87.9959C3.82603 87.9959 2.30495 87.5732 1.46241 86.7276C0.59463 85.8684 0.0739802 84.7194 0 83.5004Z" fill="url(#paint7_linear_2_135)"/>
<path d="M21.6698 85.6443H17.1562L16.5108 87.7973H12.4485L17.3007 74.8794H21.6563L26.4994 87.7973H22.3153L21.6698 85.6443ZM20.8438 82.8324L19.4176 78.1879L18.0048 82.8324H20.8438Z" fill="url(#paint8_linear_2_135)"/>
<path d="M27.7858 74.8568H37.657V77.6327H31.7893V79.8895H36.7949V82.4938H31.7938V87.7973H27.7858V74.8568Z" fill="url(#paint9_linear_2_135)"/>
<path d="M39.7964 74.8568H50.4936V77.6146H43.7954V79.6728H50.0107V82.3088H43.7954V84.8544H50.6877V87.7973H39.7964V74.8568Z" fill="url(#paint10_linear_2_135)"/>
<path d="M52.8497 74.8569H60.3197C61.3599 74.7855 62.3877 75.1168 63.1904 75.7822C63.5111 76.0697 63.7662 76.4229 63.9383 76.8177C64.1104 77.2126 64.1955 77.6399 64.1879 78.0706C64.2054 78.7928 63.9509 79.4952 63.4747 80.0385C63.0937 80.4413 62.6147 80.7383 62.0845 80.9006C62.8758 81.0479 63.5962 81.4526 64.1337 82.0516C64.5848 82.637 64.8164 83.3622 64.7882 84.1007C64.8026 84.7322 64.6467 85.3558 64.3368 85.9062C64.031 86.4347 63.5902 86.8724 63.0595 87.1745C62.5844 87.408 62.0702 87.5519 61.5429 87.5988C60.9445 87.6886 60.3419 87.7473 59.7375 87.7748H52.8497V74.8569ZM56.8758 79.9211H58.6136C59.0695 79.9677 59.5274 79.8544 59.909 79.6007C60.0356 79.4829 60.1342 79.3382 60.1975 79.1773C60.2607 79.0164 60.2871 78.8433 60.2746 78.6709C60.2841 78.5061 60.2561 78.3413 60.1928 78.1888C60.1295 78.0364 60.0325 77.9003 59.909 77.7907C59.5336 77.5423 59.0841 77.4307 58.6361 77.4748H56.8758V79.9211ZM56.8758 84.9989H58.9115C59.4234 85.0462 59.9362 84.9172 60.3648 84.6333C60.5051 84.5118 60.6161 84.3603 60.6895 84.1899C60.763 84.0195 60.797 83.8347 60.7891 83.6494C60.7918 83.477 60.7555 83.3062 60.6828 83.1499C60.6101 82.9935 60.5029 82.8557 60.3694 82.7467C59.9318 82.473 59.4163 82.3508 58.9024 82.3991H56.8758V84.9989Z" fill="url(#paint11_linear_2_135)"/>
<path d="M66.878 74.8568H70.868V84.5927H77.1013V87.7973H66.878V74.8568Z" fill="url(#paint12_linear_2_135)"/>
<path d="M79.0738 74.8568H83.0773V87.7973H79.0738V74.8568Z" fill="url(#paint13_linear_2_135)"/>
<path d="M85.966 74.8568H89.6943L94.5599 82.0018V74.8568H98.3198V87.7973H94.5599L89.7214 80.7019V87.7973H85.966V74.8568Z" fill="url(#paint14_linear_2_135)"/>
<path d="M100.992 74.8568H104.982V79.736L109.166 74.8568H114.474L109.762 79.7315L114.686 87.7973H109.793L107.085 82.4848L104.982 84.6378V87.7973H100.992V74.8568Z" fill="url(#paint15_linear_2_135)"/>
<path d="M57.4401 38.739C59.225 38.739 60.6719 37.2921 60.6719 35.5073C60.6719 33.7225 59.225 32.2756 57.4401 32.2756C55.6553 32.2756 54.2084 33.7225 54.2084 35.5073C54.2084 37.2921 55.6553 38.739 57.4401 38.739Z" fill="white"/>
</g>
<defs>
<linearGradient id="paint0_linear_2_135" x1="57.3431" y1="0" x2="57.3431" y2="88" gradientUnits="userSpaceOnUse">
<stop stop-color="#9946F3"/>
<stop offset="0.739583" stop-color="#42356B"/>
</linearGradient>
<linearGradient id="paint1_linear_2_135" x1="57.3431" y1="0" x2="57.3431" y2="88" gradientUnits="userSpaceOnUse">
<stop stop-color="#9946F3"/>
<stop offset="0.739583" stop-color="#42356B"/>
</linearGradient>
<linearGradient id="paint2_linear_2_135" x1="57.3431" y1="0" x2="57.3431" y2="88" gradientUnits="userSpaceOnUse">
<stop stop-color="#9946F3"/>
<stop offset="0.739583" stop-color="#42356B"/>
</linearGradient>
<linearGradient id="paint3_linear_2_135" x1="57.3431" y1="0" x2="57.3431" y2="88" gradientUnits="userSpaceOnUse">
<stop stop-color="#9946F3"/>
<stop offset="0.739583" stop-color="#42356B"/>
</linearGradient>
<linearGradient id="paint4_linear_2_135" x1="57.3431" y1="0" x2="57.3431" y2="88" gradientUnits="userSpaceOnUse">
<stop stop-color="#9946F3"/>
<stop offset="0.739583" stop-color="#42356B"/>
</linearGradient>
<linearGradient id="paint5_linear_2_135" x1="57.3431" y1="0" x2="57.3431" y2="88" gradientUnits="userSpaceOnUse">
<stop stop-color="#9946F3"/>
<stop offset="0.739583" stop-color="#42356B"/>
</linearGradient>
<linearGradient id="paint6_linear_2_135" x1="57.3431" y1="0" x2="57.3431" y2="88" gradientUnits="userSpaceOnUse">
<stop stop-color="#9946F3"/>
<stop offset="0.739583" stop-color="#42356B"/>
</linearGradient>
<linearGradient id="paint7_linear_2_135" x1="57.3431" y1="0" x2="57.3431" y2="88" gradientUnits="userSpaceOnUse">
<stop stop-color="#9946F3"/>
<stop offset="0.739583" stop-color="#42356B"/>
</linearGradient>
<linearGradient id="paint8_linear_2_135" x1="57.3431" y1="0" x2="57.3431" y2="88" gradientUnits="userSpaceOnUse">
<stop stop-color="#9946F3"/>
<stop offset="0.739583" stop-color="#42356B"/>
</linearGradient>
<linearGradient id="paint9_linear_2_135" x1="57.3431" y1="0" x2="57.3431" y2="88" gradientUnits="userSpaceOnUse">
<stop stop-color="#9946F3"/>
<stop offset="0.739583" stop-color="#42356B"/>
</linearGradient>
<linearGradient id="paint10_linear_2_135" x1="57.3431" y1="0" x2="57.3431" y2="88" gradientUnits="userSpaceOnUse">
<stop stop-color="#9946F3"/>
<stop offset="0.739583" stop-color="#42356B"/>
</linearGradient>
<linearGradient id="paint11_linear_2_135" x1="57.3431" y1="0" x2="57.3431" y2="88" gradientUnits="userSpaceOnUse">
<stop stop-color="#9946F3"/>
<stop offset="0.739583" stop-color="#42356B"/>
</linearGradient>
<linearGradient id="paint12_linear_2_135" x1="57.3431" y1="0" x2="57.3431" y2="88" gradientUnits="userSpaceOnUse">
<stop stop-color="#9946F3"/>
<stop offset="0.739583" stop-color="#42356B"/>
</linearGradient>
<linearGradient id="paint13_linear_2_135" x1="57.3431" y1="0" x2="57.3431" y2="88" gradientUnits="userSpaceOnUse">
<stop stop-color="#9946F3"/>
<stop offset="0.739583" stop-color="#42356B"/>
</linearGradient>
<linearGradient id="paint14_linear_2_135" x1="57.3431" y1="0" x2="57.3431" y2="88" gradientUnits="userSpaceOnUse">
<stop stop-color="#9946F3"/>
<stop offset="0.739583" stop-color="#42356B"/>
</linearGradient>
<linearGradient id="paint15_linear_2_135" x1="57.3431" y1="0" x2="57.3431" y2="88" gradientUnits="userSpaceOnUse">
<stop stop-color="#9946F3"/>
<stop offset="0.739583" stop-color="#42356B"/>
</linearGradient>
</defs>
</svg>
