<svg width="83" height="80" viewBox="0 0 83 80" fill="none" xmlns="http://www.w3.org/2000/svg">
<path d="M15.7759 40.3113C16.5872 40.1926 17.3889 40.5811 17.7984 41.2915L24.4405 52.8156C24.8505 53.527 24.784 54.4169 24.2728 55.0595L16.8283 64.4166C15.9503 65.5201 14.2366 65.3928 13.5313 64.1716L2.47406 45.0268C1.76731 43.8031 2.51803 42.2523 3.91624 42.0476L15.7759 40.3113ZM63 63.9946C61.8954 63.9946 61 63.0991 61 61.9946V54.4558C61 53.6647 61.4763 52.9629 62.153 52.553C65.0496 50.7987 67 47.6483 67 43.9946C67 42.5646 66.6853 41.1976 66.1251 39.9824C65.6089 38.8628 65.8465 37.4304 66.9112 36.8088L72.76 33.3946C76.8 31.0346 78.2 25.8746 75.84 21.8346L70.32 12.2346C69.1945 10.2946 67.3479 8.87807 65.1826 8.29366C63.0173 7.70925 60.7087 8.00431 58.76 9.11456L26.24 27.9946C22.44 30.1146 21.12 34.9946 23.32 38.8346L29.32 49.2346C31.52 53.0346 36.44 54.3546 40.24 52.1546L45.8029 48.9589C46.8434 48.3611 48.1637 48.8236 48.8648 49.7975C49.6598 50.9018 50.6734 51.8426 51.844 52.5525C52.5218 52.9635 53 53.6661 53 54.4588V63.9946C53 68.3946 56.6 71.9946 61 71.9946H79C80.1046 71.9946 81 71.0991 81 69.9946V65.9946C81 64.89 80.1046 63.9946 79 63.9946H63Z" fill="#87B7DB" stroke="url(#paint0_linear_210_2215)" stroke-width="2.8"/>
<defs>
<linearGradient id="paint0_linear_210_2215" x1="41" y1="8" x2="41" y2="71.9946" gradientUnits="userSpaceOnUse">
<stop stop-color="#DFECF5"/>
<stop offset="1" stop-color="#AECDE7"/>
</linearGradient>
</defs>
</svg>
