<svg width="80" height="83" viewBox="0 0 80 83" fill="none" xmlns="http://www.w3.org/2000/svg">
<path d="M76 45C75.7368 49.7914 74.328 54.4497 71.892 58.584C69.456 62.7183 66.0637 66.208 62 68.76L40.9724 80.459C40.3678 80.7954 39.6322 80.7954 39.0276 80.459L18 68.76C13.9363 66.208 10.544 62.7183 8.108 58.584C5.67196 54.4497 4.26322 49.7914 4 45V15C4 13.8954 4.89639 13.0034 6.00037 12.9672C18.2112 12.5666 29.501 8.51241 38.7835 1.89103C39.5103 1.37264 40.4888 1.37394 41.2143 1.89395C50.4973 8.54698 61.7879 12.5702 73.9996 12.9675C75.1036 13.0034 76 13.8954 76 15V45ZM40 49.3514C40 49.3382 40.0149 49.3304 40.0257 49.338L46.9525 54.1772C48.5081 55.264 50.5612 53.776 50.0125 51.9594L47.9625 45.1726C47.7206 44.3717 48.0028 43.5048 48.6699 42.9997L54.3428 38.7051C55.8536 37.5614 55.075 35.1536 53.1806 35.111L46.0675 34.9512C45.2331 34.9324 44.4981 34.3975 44.2236 33.6094L41.8888 26.9042C41.2656 25.1144 38.7344 25.1144 38.1112 26.9041L35.7764 33.6094C35.5019 34.3975 34.7669 34.9324 33.9325 34.9512L26.8245 35.1109C24.9295 35.1535 24.1513 37.5624 25.6631 38.7057L31.288 42.9591C31.9562 43.4644 32.2387 44.3325 31.9958 45.1342L29.9314 51.9488C29.3834 53.7576 31.4184 55.247 32.9769 54.1779L39.9929 49.3649C39.9973 49.3618 40 49.3568 40 49.3514V49.3514Z" fill="#87B7DB" stroke="url(#paint0_linear_210_2219)" stroke-width="2.8"/>
<defs>
<linearGradient id="paint0_linear_210_2219" x1="40" y1="1" x2="40" y2="81" gradientUnits="userSpaceOnUse">
<stop stop-color="#DFECF5"/>
<stop offset="1" stop-color="#AECDE7"/>
</linearGradient>
</defs>
</svg>
