<svg width="80" height="80" viewBox="0 0 80 80" fill="none" xmlns="http://www.w3.org/2000/svg">
<path d="M63.5003 71.9999L55.1645 63.7354C54.3825 62.96 53.1208 62.9627 52.3422 63.7414L47.8312 68.2524C47.0502 69.0334 45.7838 69.0334 45.0028 68.2524L44.0837 67.3333C42.8059 66.0555 42.167 64.4721 42.167 62.5833C42.167 60.6944 42.8059 59.111 44.0837 57.8333L58.167 43.7499C59.4448 42.4721 61.0281 41.8333 62.917 41.8333C64.8059 41.8333 66.3892 42.4721 67.667 43.7499L68.5861 44.669C69.3672 45.4501 69.3672 46.7164 68.5861 47.4975L64.0751 52.0084C63.2965 52.7871 63.2938 54.0488 64.0691 54.8308L72.3337 63.1666C73.0003 63.8333 73.3337 64.611 73.3337 65.4999C73.3337 66.3888 73.0003 67.1666 72.3337 67.8333L68.167 71.9999C67.5003 72.6666 66.7225 72.9999 65.8337 72.9999C64.9448 72.9999 64.167 72.6666 63.5003 71.9999ZM73.3337 18.8382C73.3337 19.3686 73.1229 19.8773 72.7479 20.2524L35.8776 57.1226C35.6764 57.3239 35.6947 57.6554 35.917 57.8333V57.8333C37.1948 59.111 37.8337 60.6944 37.8337 62.5833C37.8337 64.4721 37.1948 66.0555 35.917 67.3333L34.9979 68.2524C34.2168 69.0334 32.9505 69.0334 32.1694 68.2524L27.6585 63.7414C26.8798 62.9627 25.6182 62.96 24.8361 63.7354L16.5003 71.9999C15.8337 72.6666 15.0559 72.9999 14.167 72.9999C13.2781 72.9999 12.5003 72.6666 11.8337 71.9999L7.66699 67.8333C7.00033 67.1666 6.66699 66.3888 6.66699 65.4999C6.66699 64.611 7.00033 63.8333 7.66699 63.1666L15.9316 54.8308C16.7069 54.0488 16.7042 52.7871 15.9255 52.0084L11.4145 47.4975C10.6335 46.7164 10.6335 45.4501 11.4145 44.669L12.3337 43.7499C13.6114 42.4721 15.1948 41.8333 17.0837 41.8333C18.9725 41.8333 20.5559 42.4721 21.8337 43.7499V43.7499C22.0115 43.9722 22.343 43.9906 22.5443 43.7893L59.4145 6.91904C59.7896 6.54396 60.2983 6.33325 60.8288 6.33325H71.3337C72.4382 6.33325 73.3337 7.22868 73.3337 8.33325V18.8382ZM24.5812 34.7524C23.8002 35.5334 22.5338 35.5334 21.7528 34.7524L7.25278 20.2524C6.8777 19.8773 6.66699 19.3686 6.66699 18.8382V8.33325C6.66699 7.22868 7.56242 6.33325 8.66699 6.33325H19.1719C19.7023 6.33325 20.211 6.54397 20.5861 6.91904L35.0861 21.419C35.8672 22.2001 35.8672 23.4664 35.0861 24.2475L24.5812 34.7524Z" fill="#87B7DB" stroke="url(#paint0_linear_210_2223)" stroke-width="2.8"/>
<defs>
<linearGradient id="paint0_linear_210_2223" x1="40.0003" y1="6.33325" x2="40.0003" y2="72.9999" gradientUnits="userSpaceOnUse">
<stop stop-color="#DFECF5"/>
<stop offset="1" stop-color="#AECDE7"/>
</linearGradient>
</defs>
</svg>
