<svg width="29" height="29" viewBox="0 0 29 29" fill="none" xmlns="http://www.w3.org/2000/svg">
<path d="M23.2491 7.03525C23.0733 6.94433 22.9022 6.84467 22.7364 6.73664C22.2545 6.41804 21.8127 6.04267 21.4204 5.61861C20.4378 4.4948 20.0709 3.35478 19.9367 2.55735H19.9413C19.829 1.89417 19.8753 1.46594 19.8834 1.46594H15.4102V18.7606C15.4102 18.9921 15.4102 19.2224 15.4009 19.4493C15.4009 19.4771 15.3974 19.5025 15.3963 19.5338C15.3963 19.5453 15.3963 19.5592 15.3928 19.572V19.5824C15.3458 20.2028 15.1471 20.8021 14.8141 21.3276C14.4811 21.8532 14.024 22.2888 13.4831 22.5962C12.9188 22.9172 12.2805 23.0856 11.6313 23.0846C9.54803 23.0846 7.85826 21.3856 7.85826 19.2873C7.85826 17.1878 9.54803 15.4887 11.6313 15.4887C12.026 15.4887 12.4183 15.5512 12.7933 15.6739L12.7991 11.1185C11.6603 10.9715 10.5033 11.0623 9.40132 11.385C8.29932 11.7077 7.27618 12.2554 6.39649 12.9934C5.62551 13.663 4.9773 14.462 4.48103 15.3545C4.29238 15.6797 3.57944 16.9887 3.49379 19.1113C3.43939 20.315 3.80165 21.565 3.9741 22.08V22.0916C4.08174 22.3948 4.50302 23.4318 5.18819 24.3056C5.74072 25.007 6.39354 25.6232 7.12564 26.1343V26.1227L7.13606 26.1343C9.30036 27.6042 11.7019 27.5081 11.7019 27.5081C12.1174 27.4907 13.5097 27.5081 15.0907 26.7593C16.8441 25.9283 17.8418 24.691 17.8418 24.691C18.4796 23.9516 18.9869 23.109 19.3418 22.1992C19.7468 21.1344 19.8811 19.859 19.8811 19.3497V10.1729C19.9355 10.2053 20.6589 10.6833 20.6589 10.6833C20.6589 10.6833 21.7005 11.3511 23.3243 11.7851C24.4886 12.0941 26.0592 12.1601 26.0592 12.1601V7.71926C25.5094 7.77944 24.3926 7.60583 23.2479 7.0364L23.2491 7.03525Z" fill="#152347"/>
</svg>
