<svg width="24" height="24" viewBox="0 0 24 24" fill="none" xmlns="http://www.w3.org/2000/svg">
<path d="M16.8222 5.13333C16.0627 4.26625 15.6441 3.1527 15.6444 2H12.2111V15.7778C12.1846 16.5234 11.8699 17.2296 11.3331 17.7477C10.7963 18.2658 10.0794 18.5555 9.33333 18.5556C7.75556 18.5556 6.44444 17.2667 6.44444 15.6667C6.44444 13.7556 8.28889 12.3222 10.1889 12.9111V9.4C6.35556 8.88889 3 11.8667 3 15.6667C3 19.3667 6.06667 22 9.32222 22C12.8111 22 15.6444 19.1667 15.6444 15.6667V8.67778C17.0367 9.67761 18.7082 10.2141 20.4222 10.2111V6.77778C20.4222 6.77778 18.3333 6.87778 16.8222 5.13333Z" fill="white"/>
</svg>
